0
SECTION
2
HEADER
9
$INSUNITS
70
4
9
$ACADVER
1
AC1014
9
$HANDSEED
5
FFFF
0
ENDSEC
0
SECTION
2
TABLES
0
TABLE
2
VPORT
5
8
100
AcDbSymbolTable
0
ENDTAB
0
TABLE
2
LTYPE
5
5
100
AcDbSymbolTable
0
LTYPE
5
14
100
AcDbSymbolTableRecord
100
AcDbLinetypeTableRecord
2
BYBLOCK
70
0
0
LTYPE
5
15
100
AcDbSymbolTableRecord
100
AcDbLinetypeTableRecord
2
BYLAYER
70
0
0
ENDTAB
0
TABLE
2
LAYER
5
2
100
AcDbSymbolTable
70
2
0
LAYER
5
50
100
AcDbSymbolTableRecord
100
AcDbLayerTableRecord
2
0
70
0
6
CONTINUOUS
0
ENDTAB
0
TABLE
2
STYLE
5
3
100
AcDbSymbolTable
70
1
0
STYLE
5
11
100
AcDbSymbolTableRecord
100
AcDbTextStyleTableRecord
2
STANDARD
70
0
0
ENDTAB
0
TABLE
2
VIEW
5
6
100
AcDbSymbolTable
70
0
0
ENDTAB
0
TABLE
2
UCS
5
7
100
AcDbSymbolTable
70
0
0
ENDTAB
0
TABLE
2
APPID
5
9
100
AcDbSymbolTable
70
2
0
APPID
5
12
100
AcDbSymbolTableRecord
100
AcDbRegAppTableRecord
2
ACAD
70
0
0
ENDTAB
0
TABLE
2
DIMSTYLE
5
A
100
AcDbSymbolTable
70
1
0
ENDTAB
0
TABLE
2
BLOCK_RECORD
5
1
100
AcDbSymbolTable
70
1
0
BLOCK_RECORD
5
1F
100
AcDbSymbolTableRecord
100
AcDbBlockTableRecord
2
*MODEL_SPACE
0
BLOCK_RECORD
5
1B
100
AcDbSymbolTableRecord
100
AcDbBlockTableRecord
2
*PAPER_SPACE
0
ENDTAB
0
ENDSEC
0
SECTION
2
BLOCKS
0
BLOCK
5
20
100
AcDbEntity
100
AcDbBlockBegin
2
*MODEL_SPACE
0
ENDBLK
5
21
100
AcDbEntity
100
AcDbBlockEnd
0
BLOCK
5
1C
100
AcDbEntity
100
AcDbBlockBegin
2
*PAPER_SPACE
0
ENDBLK
5
1D
100
AcDbEntity
100
AcDbBlockEnd
0
ENDSEC
0
SECTION
2
ENTITIES
0
ARC
5
100
100
AcDbEntity
8
0
100
AcDbCircle
10
823.35836809085993
20
-384.62514120231356
30
0
40
49.999999995605755
100
AcDbArc
50
-89.999550642609393
51
8.1982777428640254
0
LINE
5
101
100
AcDbEntity
8
0
100
AcDbLine
10
669.01365021454376
20
5.9497830872683464
30
0
11
669.01365019516288
21
-434.6251411911278
31
0
0
ARC
5
102
100
AcDbEntity
8
0
100
AcDbCircle
10
777.27124876079461
20
-344.62591157426482
30
0
40
39.999999999845777
100
AcDbArc
50
-90.355598838194396
51
4.4029636723078003
0
LINE
5
103
100
AcDbEntity
8
0
100
AcDbLine
10
872.84739397410908
20
-377.49518210792235
30
0
11
817.95251726948504
21
3.5300016452323923
31
0
0
LINE
5
104
100
AcDbEntity
8
0
100
AcDbLine
10
465.58561520513035
20
-377.56362583908844
30
0
11
519.95251726948504
21
3.5300016581399123
31
0
0
LINE
5
105
100
AcDbEntity
8
0
100
AcDbLine
10
817.153200062118
20
-341.55508751767593
30
0
11
780.76780113177756
21
-89.004136579850041
31
0
0
LINE
5
106
100
AcDbEntity
8
0
100
AcDbLine
10
561.00430486188645
20
-384.62514118637455
30
0
11
777.02299553283819
21
-384.62514119587718
31
0
0
LINE
5
107
100
AcDbEntity
8
0
100
AcDbLine
10
709.01364392531889
20
15.330001649823089
30
0
11
709.01364392531889
21
3.5300016498230882
31
0
0
ARC
5
108
100
AcDbEntity
8
0
100
AcDbCircle
10
731.32833402303072
20
-96.469998350746891
30
0
40
49.999999999789999
100
AcDbArc
50
8.5873614358228867
51
89.999999997479449
0
ARC
5
109
100
AcDbEntity
8
0
100
AcDbCircle
10
561.00430486364598
20
-344.62514118636204
30
0
40
40.000000000012356
100
AcDbArc
50
177.46216906399448
51
269.99999999747968
0
ARC
5
110
100
AcDbEntity
8
0
100
AcDbCircle
10
515.08445358577387
20
-384.62514118431523
30
0
40
50.000000000039336
100
AcDbArc
50
171.88095494694988
51
269.99999999747877
0
LINE
5
111
100
AcDbEntity
8
0
100
AcDbLine
10
519.95251726948504
20
3.5300016581399123
30
0
11
622.8073646566711
21
3.5300016536153129
31
0
0
ARC
5
112
100
AcDbEntity
8
0
100
AcDbCircle
10
712.11364392531891
20
3.5300016498230873
30
0
40
3.1000000000000227
100
AcDbArc
50
180
51
360
0
ARC
5
113
100
AcDbEntity
8
0
100
AcDbCircle
10
625.90736465666839
20
3.5300016534789447
30
0
40
3.0999999999973227
100
AcDbArc
50
-180
51
0.82913605709259308
0
LINE
5
114
100
AcDbEntity
8
0
100
AcDbLine
10
521.04353674180163
20
-342.85398023569371
30
0
11
557.20012801634334
21
-89.408483000379846
31
0
0
LINE
5
115
100
AcDbEntity
8
0
100
AcDbLine
10
606.69896639924536
20
-46.469998345474515
30
0
11
731.32833402523033
21
-46.469998350956971
31
0
0
LINE
5
116
100
AcDbEntity
8
0
100
AcDbLine
10
715.21364392531893
20
3.5300016497518771
30
0
11
817.95251726948504
21
3.5300016452323923
31
0
0
LINE
5
117
100
AcDbEntity
8
0
100
AcDbLine
10
629.00704007016168
20
3.5748606655983455
30
0
11
629.0136565013504
21
15.374858810633725
31
0
0
ARC
5
118
100
AcDbEntity
8
0
100
AcDbCircle
10
606.69896639704587
20
-96.469998345566609
30
0
40
50.000000000092093
100
AcDbArc
50
89.999999997479563
51
171.88095494700482
0
LINE
5
119
100
AcDbEntity
8
0
100
AcDbLine
10
675.11365021333461
20
15.349009871099682
30
0
11
675.11365021333756
21
-21.469998354767608
31
0
0
LINE
5
120
100
AcDbEntity
8
0
100
AcDbLine
10
662.91365021333763
20
-21.469998354230921
30
0
11
662.91365021333468
21
15.355850589367208
31
0
0
LINE
5
121
100
AcDbEntity
8
0
100
AcDbLine
10
629.0136565013504
20
15.374858810633725
30
0
11
662.91365021333468
21
15.355850589367208
31
0
0
LINE
5
122
100
AcDbEntity
8
0
100
AcDbLine
10
675.11365021333461
20
15.349009871099682
30
0
11
709.01364392531889
21
15.330001649823089
31
0
0
LINE
5
123
100
AcDbEntity
8
0
100
AcDbLine
10
665.9117400969136
20
-24.469998354495036
30
0
11
672.11365021320557
21
-24.469998354767842
31
0
0
ARC
5
124
100
AcDbEntity
8
0
100
AcDbCircle
10
672.11365021333768
20
-21.469998354767842
30
0
40
2.9999999999999982
100
AcDbArc
50
-90.000000002523024
51
0
0
ARC
5
125
100
AcDbEntity
8
0
100
AcDbCircle
10
665.91365021333763
20
-21.469998962585905
30
0
40
3.0000000000000333
100
AcDbArc
50
179.99998838742292
51
269.96351946104335
0
LINE
5
126
100
AcDbEntity
8
0
100
AcDbLine
10
675.1136501962626
20
-434.62514119013542
30
0
11
675.11365019626271
21
-409.62514119139422
31
0
0
LINE
5
127
100
AcDbEntity
8
0
100
AcDbLine
10
662.91365019626267
20
-409.62514119085756
30
0
11
662.91365019626267
21
-434.62514119085944
31
0
0
LINE
5
128
100
AcDbEntity
8
0
100
AcDbLine
10
665.95147288852218
20
-406.62514119112325
30
0
11
672.1136501963947
21
-406.62514119139428
31
0
0
ARC
5
129
100
AcDbEntity
8
0
100
AcDbCircle
10
665.91365018678755
20
-409.62490275552022
30
0
40
2.999999999999984
100
AcDbArc
50
89.277620468951071
51
180.00455377948612
0
ARC
5
130
100
AcDbEntity
8
0
100
AcDbCircle
10
672.11365019626271
20
-409.62514119139422
30
0
40
2.9999999999999716
100
AcDbArc
50
0
51
89.999999997479165
0
LINE
5
131
100
AcDbEntity
8
0
100
AcDbLine
10
515.08445358357369
20
-434.62514118435445
30
0
11
662.91365019626267
21
-434.62514119085944
31
0
0
LINE
5
132
100
AcDbEntity
8
0
100
AcDbLine
10
675.1136501962626
20
-434.62514119013542
30
0
11
823.35876022915909
21
-434.62514119638161
31
0
0
ENDSEC
0
SECTION
2
OBJECTS
0
DICTIONARY
5
C
100
AcDbDictionary
3
ACAD_GROUP
350
D
3
ACAD_MLINESTYLE
350
17
0
DICTIONARY
5
D
100
AcDbDictionary
0
DICTIONARY
5
1A
330
C
100
AcDbDictionary
0
DICTIONARY
5
17
100
AcDbDictionary
0
ENDSEC
0
EOF
