0
SECTION
2
HEADER
9
$INSUNITS
70
4
9
$ACADVER
1
AC1014
9
$HANDSEED
5
FFFF
0
ENDSEC
0
SECTION
2
TABLES
0
TABLE
2
VPORT
5
8
100
AcDbSymbolTable
0
ENDTAB
0
TABLE
2
LTYPE
5
5
100
AcDbSymbolTable
0
LTYPE
5
14
100
AcDbSymbolTableRecord
100
AcDbLinetypeTableRecord
2
BYBLOCK
70
0
0
LTYPE
5
15
100
AcDbSymbolTableRecord
100
AcDbLinetypeTableRecord
2
BYLAYER
70
0
0
ENDTAB
0
TABLE
2
LAYER
5
2
100
AcDbSymbolTable
70
2
0
LAYER
5
50
100
AcDbSymbolTableRecord
100
AcDbLayerTableRecord
2
0
70
0
6
CONTINUOUS
0
ENDTAB
0
TABLE
2
STYLE
5
3
100
AcDbSymbolTable
70
1
0
STYLE
5
11
100
AcDbSymbolTableRecord
100
AcDbTextStyleTableRecord
2
STANDARD
70
0
0
ENDTAB
0
TABLE
2
VIEW
5
6
100
AcDbSymbolTable
70
0
0
ENDTAB
0
TABLE
2
UCS
5
7
100
AcDbSymbolTable
70
0
0
ENDTAB
0
TABLE
2
APPID
5
9
100
AcDbSymbolTable
70
2
0
APPID
5
12
100
AcDbSymbolTableRecord
100
AcDbRegAppTableRecord
2
ACAD
70
0
0
ENDTAB
0
TABLE
2
DIMSTYLE
5
A
100
AcDbSymbolTable
70
1
0
ENDTAB
0
TABLE
2
BLOCK_RECORD
5
1
100
AcDbSymbolTable
70
1
0
BLOCK_RECORD
5
1F
100
AcDbSymbolTableRecord
100
AcDbBlockTableRecord
2
*MODEL_SPACE
0
BLOCK_RECORD
5
1B
100
AcDbSymbolTableRecord
100
AcDbBlockTableRecord
2
*PAPER_SPACE
0
ENDTAB
0
ENDSEC
0
SECTION
2
BLOCKS
0
BLOCK
5
20
100
AcDbEntity
100
AcDbBlockBegin
2
*MODEL_SPACE
0
ENDBLK
5
21
100
AcDbEntity
100
AcDbBlockEnd
0
BLOCK
5
1C
100
AcDbEntity
100
AcDbBlockBegin
2
*PAPER_SPACE
0
ENDBLK
5
1D
100
AcDbEntity
100
AcDbBlockEnd
0
ENDSEC
0
SECTION
2
ENTITIES
0
LINE
5
100
100
AcDbEntity
8
0
100
AcDbLine
10
85.731506621481813
20
-456.10341740923775
30
0
11
389.30732801752993
21
-456.10341740913583
31
0
0
LINE
5
101
100
AcDbEntity
8
0
100
AcDbLine
10
383.29029169510693
20
-362.24372087443868
30
0
11
348.8305085747192
21
-111.05626847567888
31
0
0
ARC
5
102
100
AcDbEntity
8
0
100
AcDbCircle
10
194.41941731957195
20
-17.903417409272347
30
0
40
3.1000000000000227
100
AcDbArc
50
180
51
360
0
ARC
5
103
100
AcDbEntity
8
0
100
AcDbCircle
10
389.30729460275063
20
-406.10341741316404
30
0
40
49.999999995982954
100
AcDbArc
50
-89.999961709483458
51
7.8115040784102323
0
ARC
5
104
100
AcDbEntity
8
0
100
AcDbCircle
10
343.47694411069887
20
-366.10342995600666
30
0
40
40.000000000809237
100
AcDbArc
50
-90.04538224985059
51
5.5372415245140933
0
ARC
5
105
100
AcDbEntity
8
0
100
AcDbCircle
10
280.61941731956841
20
-17.90341740927235
30
0
40
3.0999999999972161
100
AcDbArc
50
-180
51
0
0
LINE
5
106
100
AcDbEntity
8
0
100
AcDbLine
10
91.95325131650219
20
-360.75132694996068
30
0
11
126.20126432812771
21
-111.1076883460035
31
0
0
ARC
5
107
100
AcDbEntity
8
0
100
AcDbCircle
10
299.30156196809662
20
-117.90341741450897
30
0
40
50.000000005521947
100
AcDbArc
50
7.8709879806550642
51
90.000022484833835
0
ARC
5
108
100
AcDbEntity
8
0
100
AcDbCircle
10
175.73729229274645
20
-117.90341740909443
30
0
40
50.000000000107477
100
AcDbArc
50
89.999999999995438
51
172.18849099400308
0
LINE
5
109
100
AcDbEntity
8
0
100
AcDbLine
10
88.51941731956876
20
-17.903417409272343
30
0
11
191.31941731957193
21
-17.903417409272343
31
0
0
LINE
5
110
100
AcDbEntity
8
0
100
AcDbLine
10
36.195478656885044
20
-399.30768834599166
30
0
11
88.51941731956876
21
-17.903417409272343
31
0
0
LINE
5
111
100
AcDbEntity
8
0
100
AcDbLine
10
438.84332314782353
20
-399.30769261084919
30
0
11
386.51941731956873
21
-17.903417408993835
31
0
0
LINE
5
112
100
AcDbEntity
8
0
100
AcDbLine
10
197.51941731957197
20
-17.903417409272397
30
0
11
197.51941731957123
21
-6.1034174092723958
31
0
0
ARC
5
113
100
AcDbEntity
8
0
100
AcDbCircle
10
131.59357331230962
20
-366.10341740703143
30
0
40
40.000000002399531
100
AcDbArc
50
172.31063381979871
51
269.99999999994969
0
LINE
5
114
100
AcDbEntity
8
0
100
AcDbLine
10
197.51941731957123
20
-6.1034174092723958
30
0
11
277.51941731957123
21
-6.103417409272347
31
0
0
LINE
5
115
100
AcDbEntity
8
0
100
AcDbLine
10
283.71941731956565
20
-17.903417408986947
30
0
11
386.51941731956873
21
-17.903417408993835
31
0
0
LINE
5
116
100
AcDbEntity
8
0
100
AcDbLine
10
277.51941731957123
20
-6.103417409272347
30
0
11
277.51941731957118
21
-17.90341740927235
31
0
0
ARC
5
117
100
AcDbEntity
8
0
100
AcDbCircle
10
85.731506621481813
20
-406.10341740915089
30
0
40
50.000000000091802
100
AcDbArc
50
172.18849099392207
51
270
0
LINE
5
118
100
AcDbEntity
8
0
100
AcDbLine
10
237.51941731957123
20
-6.103417409272371
30
0
11
237.51941731954943
21
-456.10341740923764
31
0
0
LINE
5
119
100
AcDbEntity
8
0
100
AcDbLine
10
234.41941731957041
20
-39.903417408985
30
0
11
240.61941731957035
21
-39.903417408986911
31
0
0
ARC
5
120
100
AcDbEntity
8
0
100
AcDbCircle
10
234.41941731956948
20
-42.903417408984993
30
0
40
2.9999999999999982
100
AcDbArc
50
89.999999999982094
51
180
0
ARC
5
121
100
AcDbEntity
8
0
100
AcDbCircle
10
240.61941731956944
20
-42.903417408986968
30
0
40
3.0000000000000426
100
AcDbArc
50
0
51
89.999999999982634
0
LINE
5
122
100
AcDbEntity
8
0
100
AcDbLine
10
234.42447282041914
20
-434.11386108021679
30
0
11
240.6244728197895
21
-434.10341303029332
31
0
0
ARC
5
123
100
AcDbEntity
8
0
100
AcDbCircle
10
240.61941731893882
20
-431.10341728934793
30
0
40
3.000000000629921
100
AcDbArc
50
270.09655299970115
51
359.99999774112729
0
ARC
5
124
100
AcDbEntity
8
0
100
AcDbCircle
10
234.41941731956948
20
-431.11386533990139
30
0
40
3.0000000000000071
100
AcDbArc
50
180
51
270.09655299970188
0
LINE
5
125
100
AcDbEntity
8
0
100
AcDbLine
10
131.59357331227449
20
-406.10341740942783
30
0
11
231.41941731956948
21
-406.10341740933961
31
0
0
LINE
5
126
100
AcDbEntity
8
0
100
AcDbLine
10
243.61941731956898
20
-406.10341740935036
30
0
11
343.44526132673684
21
-406.10341740932893
31
0
0
LINE
5
127
100
AcDbEntity
8
0
100
AcDbLine
10
231.41941731956948
20
-431.11386533990139
30
0
11
231.41941731956948
21
-406.10341740933961
31
0
0
LINE
5
128
100
AcDbEntity
8
0
100
AcDbLine
10
231.41941731956948
20
-67.90341740898684
30
0
11
231.41941731956945
21
-42.903417408986371
31
0
0
LINE
5
129
100
AcDbEntity
8
0
100
AcDbLine
10
243.61941731956946
20
-42.903417408986968
30
0
11
243.61941731956944
21
-67.90341740898684
31
0
0
LINE
5
130
100
AcDbEntity
8
0
100
AcDbLine
10
243.61941731956898
20
-406.10341740935036
30
0
11
243.6194173195689
21
-431.10341740928669
31
0
0
LINE
5
131
100
AcDbEntity
8
0
100
AcDbLine
10
175.73729229275042
20
-67.903417408986954
30
0
11
231.41941731956948
21
-67.90341740898684
31
0
0
LINE
5
132
100
AcDbEntity
8
0
100
AcDbLine
10
243.61941731956944
20
-67.90341740898684
30
0
11
299.30154234637752
21
-67.903417408987224
31
0
0
ENDSEC
0
SECTION
2
OBJECTS
0
DICTIONARY
5
C
100
AcDbDictionary
3
ACAD_GROUP
350
D
3
ACAD_MLINESTYLE
350
17
0
DICTIONARY
5
D
100
AcDbDictionary
0
DICTIONARY
5
1A
330
C
100
AcDbDictionary
0
DICTIONARY
5
17
100
AcDbDictionary
0
ENDSEC
0
EOF
