0
SECTION
2
HEADER
9
$INSUNITS
70
4
9
$ACADVER
1
AC1014
9
$HANDSEED
5
FFFF
0
ENDSEC
0
SECTION
2
TABLES
0
TABLE
2
VPORT
5
8
100
AcDbSymbolTable
0
ENDTAB
0
TABLE
2
LTYPE
5
5
100
AcDbSymbolTable
0
LTYPE
5
14
100
AcDbSymbolTableRecord
100
AcDbLinetypeTableRecord
2
BYBLOCK
70
0
0
LTYPE
5
15
100
AcDbSymbolTableRecord
100
AcDbLinetypeTableRecord
2
BYLAYER
70
0
0
ENDTAB
0
TABLE
2
LAYER
5
2
100
AcDbSymbolTable
70
2
0
LAYER
5
50
100
AcDbSymbolTableRecord
100
AcDbLayerTableRecord
2
0
70
0
6
CONTINUOUS
0
ENDTAB
0
TABLE
2
STYLE
5
3
100
AcDbSymbolTable
70
1
0
STYLE
5
11
100
AcDbSymbolTableRecord
100
AcDbTextStyleTableRecord
2
STANDARD
70
0
0
ENDTAB
0
TABLE
2
VIEW
5
6
100
AcDbSymbolTable
70
0
0
ENDTAB
0
TABLE
2
UCS
5
7
100
AcDbSymbolTable
70
0
0
ENDTAB
0
TABLE
2
APPID
5
9
100
AcDbSymbolTable
70
2
0
APPID
5
12
100
AcDbSymbolTableRecord
100
AcDbRegAppTableRecord
2
ACAD
70
0
0
ENDTAB
0
TABLE
2
DIMSTYLE
5
A
100
AcDbSymbolTable
70
1
0
ENDTAB
0
TABLE
2
BLOCK_RECORD
5
1
100
AcDbSymbolTable
70
1
0
BLOCK_RECORD
5
1F
100
AcDbSymbolTableRecord
100
AcDbBlockTableRecord
2
*MODEL_SPACE
0
BLOCK_RECORD
5
1B
100
AcDbSymbolTableRecord
100
AcDbBlockTableRecord
2
*PAPER_SPACE
0
ENDTAB
0
ENDSEC
0
SECTION
2
BLOCKS
0
BLOCK
5
20
100
AcDbEntity
100
AcDbBlockBegin
2
*MODEL_SPACE
0
ENDBLK
5
21
100
AcDbEntity
100
AcDbBlockEnd
0
BLOCK
5
1C
100
AcDbEntity
100
AcDbBlockBegin
2
*PAPER_SPACE
0
ENDBLK
5
1D
100
AcDbEntity
100
AcDbBlockEnd
0
ENDSEC
0
SECTION
2
ENTITIES
0
LINE
5
100
100
AcDbEntity
8
0
100
AcDbLine
10
85.713358828320466
20
-456.00861350151632
30
0
11
389.31642761834973
21
-456.00861350142213
31
0
0
LINE
5
101
100
AcDbEntity
8
0
100
AcDbLine
10
383.29233473554359
20
-362.1319103615898
30
0
11
348.83598488560153
21
-111.16654865216506
31
0
0
ARC
5
102
100
AcDbEntity
8
0
100
AcDbCircle
10
194.41489322321792
20
-18.008613501516308
30
0
40
3.1000000000000227
100
AcDbArc
50
-180
51
0
0
ARC
5
103
100
AcDbEntity
8
0
100
AcDbCircle
10
389.3163972774172
20
-406.00861350536047
30
0
40
49.999999996070805
100
AcDbArc
50
-89.9999652318524
51
7.8175625654161287
0
ARC
5
104
100
AcDbEntity
8
0
100
AcDbCircle
10
343.48063948167714
20
-366.00862560492499
30
0
40
40.000000000809173
100
AcDbArc
50
-90.044573656457914
51
5.5617157664331698
0
ARC
5
105
100
AcDbEntity
8
0
100
AcDbCircle
10
280.61489322321188
20
-18.0086174656441
30
0
40
3.0999999999972285
100
AcDbArc
50
-180.0000732655198
51
7.3265519782809199e-05
0
LINE
5
106
100
AcDbEntity
8
0
100
AcDbLine
10
91.939673868812193
20
-360.65851858789767
30
0
11
126.18814234736141
21
-111.20764143076607
31
0
0
ARC
5
107
100
AcDbEntity
8
0
100
AcDbCircle
10
299.30633569284862
20
-118.00861350095538
30
0
40
50.000000005522224
100
AcDbArc
50
7.8651066757700203
51
90.000000000015049
0
ARC
5
108
100
AcDbEntity
8
0
100
AcDbCircle
10
175.72345075364456
20
-118.00861350134775
30
0
40
50.00000000010423
100
AcDbArc
50
90.000000000015021
51
172.18242663246522
0
LINE
5
109
100
AcDbEntity
8
0
100
AcDbLine
10
88.514893223212255
20
-18.008613501516304
30
0
11
191.31489322321789
21
-18.008613501516308
31
0
0
LINE
5
110
100
AcDbEntity
8
0
100
AcDbLine
10
36.178004129108736
20
-399.20764143079685
30
0
11
88.514893223212255
21
-18.008613501516304
31
0
0
LINE
5
111
100
AcDbEntity
8
0
100
AcDbLine
10
438.85170696189891
20
-399.20765077434618
30
0
11
386.51489322321225
21
-18.008613501295045
31
0
0
LINE
5
112
100
AcDbEntity
8
0
100
AcDbLine
10
197.51489322321794
20
-18.008613501515118
30
0
11
197.51489322321726
21
-6.0086135015163027
31
0
0
ARC
5
113
100
AcDbEntity
8
0
100
AcDbCircle
10
131.5802652444238
20
-366.00861350140167
30
0
40
40.000000002396433
100
AcDbArc
50
172.31351815145683
51
269.99999999999784
0
LINE
5
114
100
AcDbEntity
8
0
100
AcDbLine
10
197.51489322321726
20
-6.0086135015163027
30
0
11
277.51489322321726
21
-6.008613501516253
31
0
0
LINE
5
115
100
AcDbEntity
8
0
100
AcDbLine
10
283.71489322320662
20
-18.008613501288156
30
0
11
386.51489322321225
21
-18.008613501295045
31
0
0
LINE
5
116
100
AcDbEntity
8
0
100
AcDbLine
10
277.51489322321726
20
-6.008613501516253
30
0
11
277.5148932232172
21
-18.008613501516251
31
0
0
ARC
5
117
100
AcDbEntity
8
0
100
AcDbCircle
10
85.713312535366896
20
-406.00861350143271
30
0
40
50.000000000086771
100
AcDbArc
50
172.1824266323998
51
270.00005304781718
0
LINE
5
118
100
AcDbEntity
8
0
100
AcDbLine
10
237.51489322321726
20
-6.0086135015163062
30
0
11
237.51489322333509
21
-456.0086135014692
31
0
0
LINE
5
119
100
AcDbEntity
8
0
100
AcDbLine
10
234.31489322322693
20
-40.008613501225618
30
0
11
240.71489322322691
21
-40.008613501225618
31
0
0
ARC
5
120
100
AcDbEntity
8
0
100
AcDbCircle
10
234.31489322322693
20
-43.008613501225611
30
0
40
2.9999999999999982
100
AcDbArc
50
90
51
180
0
ARC
5
121
100
AcDbEntity
8
0
100
AcDbCircle
10
240.71489322322691
20
-43.008613501225625
30
0
40
3.0000000000000426
100
AcDbArc
50
0
51
90
0
LINE
5
122
100
AcDbEntity
8
0
100
AcDbLine
10
234.32020881556195
20
-434.01994917953868
30
0
11
240.72020881493296
21
-434.00860923142437
31
0
0
ARC
5
123
100
AcDbEntity
8
0
100
AcDbCircle
10
240.71489322259683
20
-431.00861394005165
30
0
40
3.0000000006300835
100
AcDbArc
50
-89.898479611409897
51
8.3215561470319699e-06
0
ARC
5
124
100
AcDbEntity
8
0
100
AcDbCircle
10
234.31489322322693
20
-431.01995388879601
30
0
40
3.0000000000000071
100
AcDbArc
50
180
51
270.1015203885903
0
LINE
5
125
100
AcDbEntity
8
0
100
AcDbLine
10
131.58026524442229
20
-406.00861350144646
30
0
11
231.31489322322693
21
-406.00861350145021
31
0
0
LINE
5
126
100
AcDbEntity
8
0
100
AcDbLine
10
243.71489322322691
20
-406.00861350131265
30
0
11
343.44952120222166
21
-406.00861350139093
31
0
0
LINE
5
127
100
AcDbEntity
8
0
100
AcDbLine
10
231.31489322322693
20
-431.01995388879601
30
0
11
231.31489322322693
21
-406.00861350145021
31
0
0
LINE
5
128
100
AcDbEntity
8
0
100
AcDbLine
10
231.31489322322693
20
-68.008613501228851
30
0
11
231.31489322322696
21
-43.008613501228872
31
0
0
LINE
5
129
100
AcDbEntity
8
0
100
AcDbLine
10
243.71489322322697
20
-43.008613501225625
30
0
11
243.71489322322691
21
-68.008613501225597
31
0
0
LINE
5
130
100
AcDbEntity
8
0
100
AcDbLine
10
243.71489322322691
20
-406.00861350131265
30
0
11
243.71489322322691
21
-431.008613501387
31
0
0
LINE
5
131
100
AcDbEntity
8
0
100
AcDbLine
10
175.72345075363145
20
-68.008613501243531
30
0
11
231.31489322322693
21
-68.008613501228851
31
0
0
LINE
5
132
100
AcDbEntity
8
0
100
AcDbLine
10
243.71489322322691
20
-68.008613501225597
30
0
11
299.30633569283549
21
-68.00861350121113
31
0
0
ENDSEC
0
SECTION
2
OBJECTS
0
DICTIONARY
5
C
100
AcDbDictionary
3
ACAD_GROUP
350
D
3
ACAD_MLINESTYLE
350
17
0
DICTIONARY
5
D
100
AcDbDictionary
0
DICTIONARY
5
1A
330
C
100
AcDbDictionary
0
DICTIONARY
5
17
100
AcDbDictionary
0
ENDSEC
0
EOF
