  0
SECTION
  2
HEADER
  9
$ACADVER
  1
AC1009
  9
$DWGCODEPAGE
  3
ansi_1252
  9
$INSBASE
 10
0.0
 20
0.0
 30
0.0
  9
$EXTMIN
 10
0.681090192383067
 20
0.6045584840916252
 30
0.0
  9
$EXTMAX
 10
47.24607366235153
 20
86.3843352601156
 30
0.0
  9
$LIMMIN
 10
0.0
 20
0.0
  9
$LIMMAX
 10
12.0
 20
9.0
  9
$ORTHOMODE
 70
     0
  9
$REGENMODE
 70
     1
  9
$FILLMODE
 70
     1
  9
$QTEXTMODE
 70
     0
  9
$MIRRTEXT
 70
     1
  9
$DRAGMODE
 70
     2
  9
$LTSCALE
 40
1.0
  9
$OSMODE
 70
    37
  9
$ATTMODE
 70
     1
  9
$TEXTSIZE
 40
0.2
  9
$TRACEWID
 40
0.05
  9
$TEXTSTYLE
  7
STANDARD
  9
$CLAYER
  8
0
  9
$CELTYPE
  6
BYLAYER
  9
$CECOLOR
 62
   256
  9
$DIMSCALE
 40
1.0
  9
$DIMASZ
 40
0.18
  9
$DIMEXO
 40
0.0625
  9
$DIMDLI
 40
0.38
  9
$DIMRND
 40
0.0
  9
$DIMDLE
 40
0.0
  9
$DIMEXE
 40
0.18
  9
$DIMTP
 40
0.0
  9
$DIMTM
 40
0.0
  9
$DIMTXT
 40
0.18
  9
$DIMCEN
 40
0.09
  9
$DIMTSZ
 40
0.0
  9
$DIMTOL
 70
     0
  9
$DIMLIM
 70
     0
  9
$DIMTIH
 70
     1
  9
$DIMTOH
 70
     1
  9
$DIMSE1
 70
     0
  9
$DIMSE2
 70
     0
  9
$DIMTAD
 70
     0
  9
$DIMZIN
 70
     0
  9
$DIMBLK
  1

  9
$DIMASO
 70
     1
  9
$DIMSHO
 70
     1
  9
$DIMPOST
  1

  9
$DIMAPOST
  1

  9
$DIMALT
 70
     0
  9
$DIMALTD
 70
     2
  9
$DIMALTF
 40
25.4
  9
$DIMLFAC
 40
1.0
  9
$DIMTOFL
 70
     0
  9
$DIMTVP
 40
0.0
  9
$DIMTIX
 70
     0
  9
$DIMSOXD
 70
     0
  9
$DIMSAH
 70
     0
  9
$DIMBLK1
  1

  9
$DIMBLK2
  1

  9
$DIMSTYLE
  2
STANDARD
  9
$DIMCLRD
 70
     0
  9
$DIMCLRE
 70
     0
  9
$DIMCLRT
 70
     0
  9
$DIMTFAC
 40
1.0
  9
$DIMGAP
 40
0.09
  9
$LUNITS
 70
     2
  9
$LUPREC
 70
     4
  9
$SKETCHINC
 40
0.1
  9
$FILLETRAD
 40
0.5
  9
$AUNITS
 70
     0
  9
$AUPREC
 70
     0
  9
$MENU
  1
.
  9
$ELEVATION
 40
0.0
  9
$PELEVATION
 40
0.0
  9
$THICKNESS
 40
0.0
  9
$LIMCHECK
 70
     0
  9
$CHAMFERA
 40
0.0
  9
$CHAMFERB
 40
0.0
  9
$SKPOLY
 70
     0
  9
$TDCREATE
 40
2454910.5
  9
$TDUPDATE
 40
2456917.493505775
  9
$TDINDWG
 40
0.0000000116
  9
$TDUSRTIMER
 40
0.0000000116
  9
$USRTIMER
 70
     1
  9
$ANGBASE
 50
0.0
  9
$ANGDIR
 70
     0
  9
$PDMODE
 70
     0
  9
$PDSIZE
 40
0.0
  9
$PLINEWID
 40
0.0
  9
$COORDS
 70
     1
  9
$SPLFRAME
 70
     0
  9
$SPLINETYPE
 70
     6
  9
$SPLINESEGS
 70
     8
  9
$ATTDIA
 70
     0
  9
$ATTREQ
 70
     1
  9
$HANDLING
 70
     1
  9
$HANDSEED
  5
64E
  9
$SURFTAB1
 70
     6
  9
$SURFTAB2
 70
     6
  9
$SURFTYPE
 70
     6
  9
$SURFU
 70
     6
  9
$SURFV
 70
     6
  9
$UCSNAME
  2

  9
$UCSORG
 10
0.0
 20
0.0
 30
0.0
  9
$UCSXDIR
 10
1.0
 20
0.0
 30
0.0
  9
$UCSYDIR
 10
0.0
 20
1.0
 30
0.0
  9
$PUCSNAME
  2

  9
$PUCSORG
 10
0.0
 20
0.0
 30
0.0
  9
$PUCSXDIR
 10
1.0
 20
0.0
 30
0.0
  9
$PUCSYDIR
 10
0.0
 20
1.0
 30
0.0
  9
$USERI1
 70
     0
  9
$USERI2
 70
     0
  9
$USERI3
 70
     0
  9
$USERI4
 70
     0
  9
$USERI5
 70
     0
  9
$USERR1
 40
0.0
  9
$USERR2
 40
0.0
  9
$USERR3
 40
0.0
  9
$USERR4
 40
0.0
  9
$USERR5
 40
0.0
  9
$WORLDVIEW
 70
     1
  9
$SHADEDGE
 70
     3
  9
$SHADEDIF
 70
    70
  9
$TILEMODE
 70
     1
  9
$MAXACTVP
 70
    64
  9
$PLIMCHECK
 70
     0
  9
$PEXTMIN
 10
1.000000000000000E+20
 20
1.000000000000000E+20
 30
1.000000000000000E+20
  9
$PEXTMAX
 10
-1.000000000000000E+20
 20
-1.000000000000000E+20
 30
-1.000000000000000E+20
  9
$PLIMMIN
 10
0.0
 20
0.0
  9
$PLIMMAX
 10
12.0
 20
9.0
  9
$UNITMODE
 70
     0
  9
$VISRETAIN
 70
     1
  9
$PLINEGEN
 70
     0
  9
$PSLTSCALE
 70
     1
  0
ENDSEC
  0
SECTION
  2
TABLES
  0
TABLE
  2
VPORT
 70
     1
  0
VPORT
  2
*ACTIVE
 70
     0
 10
0.0
 20
0.0
 11
1.0
 21
1.0
 12
10.42990654205607
 22
4.5
 13
0.0
 23
0.0
 14
0.5
 24
0.5
 15
0.5
 25
0.5
 16
0.0
 26
0.0
 36
1.0
 17
0.0
 27
0.0
 37
0.0
 40
9.0
 41
1.972972972850329
 42
50.0
 43
0.0
 44
0.0
 50
0.0
 51
0.0
 71
     0
 72
   100
 73
     1
 74
     3
 75
     0
 76
     0
 77
     0
 78
     0
  0
ENDTAB
  0
TABLE
  2
LTYPE
 70
     2
  0
LTYPE
  2
CONTINUOUS
 70
     0
  3
Solid line
 72
    65
 73
     0
 40
0.0
  0
LTYPE
  2
CONTINUOUS2
 70
     0
  3
Solid Line
 72
    65
 73
     0
 40
0.0
  0
ENDTAB
  0
TABLE
  2
LAYER
 70
     4
  0
LAYER
  2
0
 70
     0
 62
     7
  6
CONTINUOUS
  0
LAYER
  2
PROFILE
 70
     0
 62
    96
  6
CONTINUOUS
  0
LAYER
  2
POCKET
 70
     0
 62
     5
  6
CONTINUOUS
  0
LAYER
  2
POCKET125
 70
     0
 62
   216
  6
CONTINUOUS
  0
ENDTAB
  0
TABLE
  2
STYLE
 70
     1
  0
STYLE
  2
STANDARD
 70
     0
 40
0.0
 41
1.0
 50
0.0
 71
     0
 42
0.2
  3
txt
  4

  0
ENDTAB
  0
TABLE
  2
VIEW
 70
     0
  0
ENDTAB
  0
TABLE
  2
UCS
 70
     0
  0
ENDTAB
  0
TABLE
  2
APPID
 70
     1
  0
APPID
  2
ACAD
 70
     0
  0
ENDTAB
  0
TABLE
  2
DIMSTYLE
 70
     1
  0
DIMSTYLE
  2
STANDARD
 70
     0
  3

  4

  5

  6

  7

 40
1.0
 41
0.18
 42
0.0625
 43
0.38
 44
0.18
 45
0.0
 46
0.0
 47
0.0
 48
0.0
140
0.18
141
0.09
142
0.0
143
25.4
144
1.0
145
0.0
146
1.0
147
0.09
 71
     0
 72
     0
 73
     1
 74
     1
 75
     0
 76
     0
 77
     0
 78
     0
170
     0
171
     2
172
     0
173
     0
174
     0
175
     0
176
     0
177
     0
178
     0
  0
ENDTAB
  0
ENDSEC
  0
SECTION
  2
BLOCKS
  0
BLOCK
  8
0
  2
$MODEL_SPACE
 70
     0
 10
0.0
 20
0.0
 30
0.0
  3
$MODEL_SPACE
  1

  0
ENDBLK
  5
21
  8
0
  0
BLOCK
 67
     1
  8
0
  2
$PAPER_SPACE
 70
     0
 10
0.0
 20
0.0
 30
0.0
  3
$PAPER_SPACE
  1

  0
ENDBLK
  5
1D
 67
     1
  8
0
  0
ENDSEC
  0
SECTION
  2
ENTITIES
  0
POLYLINE
  5
6C
  8
PROFILE
 66
     1
 10
0.0
 20
0.0
 30
0.0
 70
     1
  0
VERTEX
  5
D4
  8
PROFILE
 10
46.875
 20
0.875
 30
0.0
  0
VERTEX
  5
D5
  8
PROFILE
 10
46.875
 20
22.875
 30
0.0
  0
VERTEX
  5
D6
  8
PROFILE
 10
0.875
 20
22.875
 30
0.0
  0
VERTEX
  5
D7
  8
PROFILE
 10
0.875
 20
0.8750000000000036
 30
0.0
  0
SEQEND
  5
5EF
  8
PROFILE
  0
POLYLINE
  5
6D
  8
PROFILE
 66
     1
 10
0.0
 20
0.0
 30
0.0
 70
     1
  0
VERTEX
  5
D8
  8
PROFILE
 10
46.875
 20
23.675
 30
0.0
  0
VERTEX
  5
D9
  8
PROFILE
 10
46.875
 20
45.675
 30
0.0
  0
VERTEX
  5
DA
  8
PROFILE
 10
0.875
 20
45.675
 30
0.0
  0
VERTEX
  5
DB
  8
PROFILE
 10
0.875
 20
23.675
 30
0.0
  0
SEQEND
  5
5F0
  8
PROFILE
  0
POLYLINE
  5
6E
  8
PROFILE
 66
     1
 10
0.0
 20
0.0
 30
0.0
 70
     1
  0
VERTEX
  5
DC
  8
PROFILE
 10
46.875
 20
46.47500000000001
 30
0.0
  0
VERTEX
  5
DD
  8
PROFILE
 10
46.375
 20
46.47500000000003
 30
0.0
  0
VERTEX
  5
DE
  8
PROFILE
 10
31.70833301544189
 20
46.47500000000003
 30
0.0
  0
VERTEX
  5
DF
  8
PROFILE
 10
31.20833301544189
 20
46.47500000000003
 30
0.0
  0
VERTEX
  5
E0
  8
PROFILE
 10
16.54166603088379
 20
46.47500000000003
 30
0.0
  0
VERTEX
  5
E1
  8
PROFILE
 10
16.04166603088379
 20
46.47500000000003
 30
0.0
  0
VERTEX
  5
E2
  8
PROFILE
 10
1.375
 20
46.47500000000004
 30
0.0
  0
VERTEX
  5
E3
  8
PROFILE
 10
0.875
 20
46.47500000000004
 30
0.0
  0
VERTEX
  5
E4
  8
PROFILE
 10
0.875
 20
53.97500000000003
 30
0.0
  0
VERTEX
  5
E5
  8
PROFILE
 10
1.375
 20
53.97500000000003
 30
0.0
  0
VERTEX
  5
E6
  8
PROFILE
 10
16.04166603088379
 20
53.97500000000003
 30
0.0
  0
VERTEX
  5
E7
  8
PROFILE
 10
16.54166603088379
 20
53.97500000000003
 30
0.0
  0
VERTEX
  5
E8
  8
PROFILE
 10
31.20833301544189
 20
53.97500000000002
 30
0.0
  0
VERTEX
  5
E9
  8
PROFILE
 10
31.70833301544189
 20
53.97500000000002
 30
0.0
  0
VERTEX
  5
EA
  8
PROFILE
 10
46.375
 20
53.97500000000002
 30
0.0
  0
VERTEX
  5
EB
  8
PROFILE
 10
46.875
 20
53.97500000000002
 30
0.0
  0
SEQEND
  5
5F1
  8
PROFILE
  0
POLYLINE
  5
6F
  8
PROFILE
 66
     1
 10
0.0
 20
0.0
 30
0.0
 70
     1
  0
VERTEX
  5
EC
  8
PROFILE
 10
46.875
 20
54.875
 30
0.0
  0
VERTEX
  5
ED
  8
PROFILE
 10
46.875
 20
62.375
 30
0.0
  0
VERTEX
  5
EE
  8
PROFILE
 10
46.375
 20
62.375
 30
0.0
  0
VERTEX
  5
EF
  8
PROFILE
 10
31.70833301544189
 20
62.375
 30
0.0
  0
VERTEX
  5
F0
  8
PROFILE
 10
31.20833301544189
 20
62.375
 30
0.0
  0
VERTEX
  5
F1
  8
PROFILE
 10
16.54166603088379
 20
62.375
 30
0.0
  0
VERTEX
  5
F2
  8
PROFILE
 10
16.04166603088379
 20
62.375
 30
0.0
  0
VERTEX
  5
F3
  8
PROFILE
 10
1.375
 20
62.375
 30
0.0
  0
VERTEX
  5
F4
  8
PROFILE
 10
0.875
 20
62.375
 30
0.0
  0
VERTEX
  5
F5
  8
PROFILE
 10
0.875
 20
54.875
 30
0.0
  0
VERTEX
  5
F6
  8
PROFILE
 10
1.375
 20
54.875
 30
0.0
  0
VERTEX
  5
F7
  8
PROFILE
 10
16.04166603088379
 20
54.875
 30
0.0
  0
VERTEX
  5
F8
  8
PROFILE
 10
16.54166603088379
 20
54.875
 30
0.0
  0
VERTEX
  5
F9
  8
PROFILE
 10
31.20833301544189
 20
54.875
 30
0.0
  0
VERTEX
  5
FA
  8
PROFILE
 10
31.70833301544189
 20
54.875
 30
0.0
  0
VERTEX
  5
FB
  8
PROFILE
 10
46.375
 20
54.875
 30
0.0
  0
SEQEND
  5
5F2
  8
PROFILE
  0
POLYLINE
  5
70
  8
PROFILE
 66
     1
 10
0.0
 20
0.0
 30
0.0
 70
     1
  0
VERTEX
  5
FC
  8
PROFILE
 10
3.167893171310411
 20
60.582106590271
 30
0.0
  0
VERTEX
  5
FD
  8
PROFILE
 10
2.94521164894104
 20
60.24309492111206
 30
0.0
  0
VERTEX
  5
FE
  8
PROFILE
 10
2.875
 20
59.875
 30
0.0
  0
VERTEX
  5
FF
  8
PROFILE
 10
2.874999999999986
 20
57.375
 30
0.0
  0
VERTEX
  5
100
  8
PROFILE
 10
2.945211648941026
 20
57.00690531730652
 30
0.0
  0
VERTEX
  5
101
  8
PROFILE
 10
3.167893171310396
 20
56.66789317131042
 30
0.0
  0
VERTEX
  5
102
  8
PROFILE
 10
3.506905317306504
 20
56.44521164894104
 30
0.0
  0
VERTEX
  5
103
  8
PROFILE
 10
3.874999999999986
 20
56.375
 30
0.0
  0
VERTEX
  5
104
  8
PROFILE
 10
13.54166698455809
 20
56.375
 30
0.0
  0
VERTEX
  5
105
  8
PROFILE
 10
13.90976142883298
 20
56.44521164894104
 30
0.0
  0
VERTEX
  5
106
  8
PROFILE
 10
14.24877357482907
 20
56.66789317131042
 30
0.0
  0
VERTEX
  5
107
  8
PROFILE
 10
14.4714546203613
 20
57.00690531730652
 30
0.0
  0
VERTEX
  5
108
  8
PROFILE
 10
14.54166698455808
 20
57.375
 30
0.0
  0
VERTEX
  5
109
  8
PROFILE
 10
14.54166698455809
 20
59.875
 30
0.0
  0
VERTEX
  5
10A
  8
PROFILE
 10
14.47145462036131
 20
60.24309492111206
 30
0.0
  0
VERTEX
  5
10B
  8
PROFILE
 10
14.24877357482909
 20
60.582106590271
 30
0.0
  0
VERTEX
  5
10C
  8
PROFILE
 10
13.90976142883299
 20
60.80478811264038
 30
0.0
  0
VERTEX
  5
10D
  8
PROFILE
 10
13.54166698455811
 20
60.875
 30
0.0
  0
VERTEX
  5
10E
  8
PROFILE
 10
3.875
 20
60.875
 30
0.0
  0
VERTEX
  5
10F
  8
PROFILE
 10
3.506905317306519
 20
60.80478811264038
 30
0.0
  0
SEQEND
  5
5F3
  8
PROFILE
  0
POLYLINE
  5
71
  8
PROFILE
 66
     1
 10
0.0
 20
0.0
 30
0.0
 70
     1
  0
VERTEX
  5
110
  8
PROFILE
 10
33.20833206176756
 20
57.375
 30
0.0
  0
VERTEX
  5
111
  8
PROFILE
 10
33.27854537963866
 20
57.00690531730652
 30
0.0
  0
VERTEX
  5
112
  8
PROFILE
 10
33.50122833251952
 20
56.66789317131042
 30
0.0
  0
VERTEX
  5
113
  8
PROFILE
 10
33.84024047851561
 20
56.44521164894104
 30
0.0
  0
VERTEX
  5
114
  8
PROFILE
 10
34.20833206176756
 20
56.375
 30
0.0
  0
VERTEX
  5
115
  8
PROFILE
 10
43.87499999999999
 20
56.375
 30
0.0
  0
VERTEX
  5
116
  8
PROFILE
 10
44.2430953979492
 20
56.44521164894104
 30
0.0
  0
VERTEX
  5
117
  8
PROFILE
 10
44.5821075439453
 20
56.66789317131042
 30
0.0
  0
VERTEX
  5
118
  8
PROFILE
 10
44.80478668212889
 20
57.00690531730652
 30
0.0
  0
VERTEX
  5
119
  8
PROFILE
 10
44.87499999999999
 20
57.375
 30
0.0
  0
VERTEX
  5
11A
  8
PROFILE
 10
44.87499999999999
 20
59.875
 30
0.0
  0
VERTEX
  5
11B
  8
PROFILE
 10
44.80478668212889
 20
60.24309492111206
 30
0.0
  0
VERTEX
  5
11C
  8
PROFILE
 10
44.5821075439453
 20
60.582106590271
 30
0.0
  0
VERTEX
  5
11D
  8
PROFILE
 10
44.2430953979492
 20
60.80478811264038
 30
0.0
  0
VERTEX
  5
11E
  8
PROFILE
 10
43.87499999999999
 20
60.875
 30
0.0
  0
VERTEX
  5
11F
  8
PROFILE
 10
34.20833206176756
 20
60.875
 30
0.0
  0
VERTEX
  5
120
  8
PROFILE
 10
33.84024047851561
 20
60.80478811264038
 30
0.0
  0
VERTEX
  5
121
  8
PROFILE
 10
33.50122833251952
 20
60.582106590271
 30
0.0
  0
VERTEX
  5
122
  8
PROFILE
 10
33.27854537963866
 20
60.24309492111206
 30
0.0
  0
VERTEX
  5
123
  8
PROFILE
 10
33.20833206176756
 20
59.875
 30
0.0
  0
SEQEND
  5
5F4
  8
PROFILE
  0
POLYLINE
  5
72
  8
PROFILE
 66
     1
 10
0.0
 20
0.0
 30
0.0
 70
     1
  0
VERTEX
  5
124
  8
PROFILE
 10
2.875
 20
51.47500000000003
 30
0.0
  0
VERTEX
  5
125
  8
PROFILE
 10
2.875
 20
48.97500000000003
 30
0.0
  0
VERTEX
  5
126
  8
PROFILE
 10
2.94521164894104
 20
48.60690507888797
 30
0.0
  0
VERTEX
  5
127
  8
PROFILE
 10
3.167893171310425
 20
48.26789340972903
 30
0.0
  0
VERTEX
  5
128
  8
PROFILE
 10
3.506905317306519
 20
48.04521188735965
 30
0.0
  0
VERTEX
  5
129
  8
PROFILE
 10
3.875
 20
47.97500000000003
 30
0.0
  0
VERTEX
  5
12A
  8
PROFILE
 10
13.54166698455811
 20
47.97500000000003
 30
0.0
  0
VERTEX
  5
12B
  8
PROFILE
 10
13.90976142883299
 20
48.04521188735965
 30
0.0
  0
VERTEX
  5
12C
  8
PROFILE
 10
14.24877357482909
 20
48.26789340972903
 30
0.0
  0
VERTEX
  5
12D
  8
PROFILE
 10
14.47145462036131
 20
48.60690507888797
 30
0.0
  0
VERTEX
  5
12E
  8
PROFILE
 10
14.54166698455809
 20
48.97500000000003
 30
0.0
  0
VERTEX
  5
12F
  8
PROFILE
 10
14.54166698455809
 20
51.47500000000003
 30
0.0
  0
VERTEX
  5
130
  8
PROFILE
 10
14.47145462036131
 20
51.84309468269351
 30
0.0
  0
VERTEX
  5
131
  8
PROFILE
 10
14.24877357482909
 20
52.18210682868961
 30
0.0
  0
VERTEX
  5
132
  8
PROFILE
 10
13.90976142883301
 20
52.40478835105899
 30
0.0
  0
VERTEX
  5
133
  8
PROFILE
 10
13.54166698455811
 20
52.47500000000003
 30
0.0
  0
VERTEX
  5
134
  8
PROFILE
 10
3.875
 20
52.47500000000003
 30
0.0
  0
VERTEX
  5
135
  8
PROFILE
 10
3.506905317306519
 20
52.40478835105899
 30
0.0
  0
VERTEX
  5
136
  8
PROFILE
 10
3.167893171310411
 20
52.18210682868961
 30
0.0
  0
VERTEX
  5
137
  8
PROFILE
 10
2.94521164894104
 20
51.8430946826935
 30
0.0
  0
SEQEND
  5
5F5
  8
PROFILE
  0
POLYLINE
  5
73
  8
PROFILE
 66
     1
 10
0.0
 20
0.0
 30
0.0
 70
     1
  0
VERTEX
  5
138
  8
PROFILE
 10
18.11187744140624
 20
51.84309468269351
 30
0.0
  0
VERTEX
  5
139
  8
PROFILE
 10
18.04166603088378
 20
51.47500000000002
 30
0.0
  0
VERTEX
  5
13A
  8
PROFILE
 10
18.04166603088378
 20
48.97500000000002
 30
0.0
  0
VERTEX
  5
13B
  8
PROFILE
 10
18.11187744140624
 20
48.60690507888797
 30
0.0
  0
VERTEX
  5
13C
  8
PROFILE
 10
18.33456039428712
 20
48.26789340972903
 30
0.0
  0
VERTEX
  5
13D
  8
PROFILE
 10
18.6735725402832
 20
48.04521188735965
 30
0.0
  0
VERTEX
  5
13E
  8
PROFILE
 10
19.04166603088378
 20
47.97500000000003
 30
0.0
  0
VERTEX
  5
13F
  8
PROFILE
 10
28.70833396911621
 20
47.97500000000003
 30
0.0
  0
VERTEX
  5
140
  8
PROFILE
 10
29.0764274597168
 20
48.04521188735965
 30
0.0
  0
VERTEX
  5
141
  8
PROFILE
 10
29.41543960571289
 20
48.26789340972903
 30
0.0
  0
VERTEX
  5
142
  8
PROFILE
 10
29.63812255859375
 20
48.60690507888797
 30
0.0
  0
VERTEX
  5
143
  8
PROFILE
 10
29.70833396911621
 20
48.97500000000003
 30
0.0
  0
VERTEX
  5
144
  8
PROFILE
 10
29.70833396911621
 20
51.47500000000003
 30
0.0
  0
VERTEX
  5
145
  8
PROFILE
 10
29.63812255859375
 20
51.8430946826935
 30
0.0
  0
VERTEX
  5
146
  8
PROFILE
 10
29.4154396057129
 20
52.18210682868961
 30
0.0
  0
VERTEX
  5
147
  8
PROFILE
 10
29.0764274597168
 20
52.40478835105899
 30
0.0
  0
VERTEX
  5
148
  8
PROFILE
 10
28.70833396911621
 20
52.47500000000003
 30
0.0
  0
VERTEX
  5
149
  8
PROFILE
 10
19.04166603088378
 20
52.47500000000003
 30
0.0
  0
VERTEX
  5
14A
  8
PROFILE
 10
18.6735725402832
 20
52.40478835105899
 30
0.0
  0
VERTEX
  5
14B
  8
PROFILE
 10
18.3345603942871
 20
52.18210682868961
 30
0.0
  0
SEQEND
  5
5F6
  8
PROFILE
  0
POLYLINE
  5
74
  8
PROFILE
 66
     1
 10
0.0
 20
0.0
 30
0.0
 70
     1
  0
VERTEX
  5
14C
  8
PROFILE
 10
33.50122833251953
 20
48.26789340972903
 30
0.0
  0
VERTEX
  5
14D
  8
PROFILE
 10
33.84024047851562
 20
48.04521188735965
 30
0.0
  0
VERTEX
  5
14E
  8
PROFILE
 10
34.20833206176758
 20
47.97500000000003
 30
0.0
  0
VERTEX
  5
14F
  8
PROFILE
 10
43.875
 20
47.97500000000003
 30
0.0
  0
VERTEX
  5
150
  8
PROFILE
 10
44.24309539794922
 20
48.04521188735965
 30
0.0
  0
VERTEX
  5
151
  8
PROFILE
 10
44.58210754394531
 20
48.26789340972903
 30
0.0
  0
VERTEX
  5
152
  8
PROFILE
 10
44.80478668212891
 20
48.60690507888797
 30
0.0
  0
VERTEX
  5
153
  8
PROFILE
 10
44.875
 20
48.97500000000003
 30
0.0
  0
VERTEX
  5
154
  8
PROFILE
 10
44.875
 20
51.47500000000003
 30
0.0
  0
VERTEX
  5
155
  8
PROFILE
 10
44.80478668212891
 20
51.8430946826935
 30
0.0
  0
VERTEX
  5
156
  8
PROFILE
 10
44.58210754394531
 20
52.18210682868961
 30
0.0
  0
VERTEX
  5
157
  8
PROFILE
 10
44.24309539794922
 20
52.40478835105899
 30
0.0
  0
VERTEX
  5
158
  8
PROFILE
 10
43.875
 20
52.47500000000003
 30
0.0
  0
VERTEX
  5
159
  8
PROFILE
 10
34.20833206176758
 20
52.47500000000003
 30
0.0
  0
VERTEX
  5
15A
  8
PROFILE
 10
33.84024047851562
 20
52.40478835105899
 30
0.0
  0
VERTEX
  5
15B
  8
PROFILE
 10
33.50122833251953
 20
52.18210682868961
 30
0.0
  0
VERTEX
  5
15C
  8
PROFILE
 10
33.27854537963867
 20
51.84309468269351
 30
0.0
  0
VERTEX
  5
15D
  8
PROFILE
 10
33.20833206176758
 20
51.47500000000002
 30
0.0
  0
VERTEX
  5
15E
  8
PROFILE
 10
33.20833206176758
 20
48.97500000000003
 30
0.0
  0
VERTEX
  5
15F
  8
PROFILE
 10
33.27854537963867
 20
48.60690507888797
 30
0.0
  0
SEQEND
  5
5F7
  8
PROFILE
  0
POLYLINE
  5
75
  8
PROFILE
 66
     1
 10
0.0
 20
0.0
 30
0.0
 70
     1
  0
VERTEX
  5
160
  8
PROFILE
 10
16.29166650772094
 20
58.835
 30
0.0
 42
0.4142135623730951
  0
VERTEX
  5
161
  8
PROFILE
 10
16.08166650772094
 20
58.625
 30
0.0
 42
0.4142135623730951
  0
VERTEX
  5
162
  8
PROFILE
 10
16.29166650772094
 20
58.415
 30
0.0
 42
0.4142135623730951
  0
VERTEX
  5
163
  8
PROFILE
 10
16.50166650772094
 20
58.625
 30
0.0
 42
0.4142135623730951
  0
SEQEND
  5
5F8
  8
PROFILE
  0
POLYLINE
  5
76
  8
PROFILE
 66
     1
 10
0.0
 20
0.0
 30
0.0
 70
     1
  0
VERTEX
  5
164
  8
PROFILE
 10
31.45833349227903
 20
58.83500000000006
 30
0.0
 42
0.4142135623730951
  0
VERTEX
  5
165
  8
PROFILE
 10
31.24833349227903
 20
58.62500000000006
 30
0.0
 42
0.4142135623730951
  0
VERTEX
  5
166
  8
PROFILE
 10
31.45833349227903
 20
58.41500000000006
 30
0.0
 42
0.4142135623730951
  0
VERTEX
  5
167
  8
PROFILE
 10
31.66833349227904
 20
58.62500000000006
 30
0.0
 42
0.4142135623730951
  0
SEQEND
  5
5F9
  8
PROFILE
  0
POLYLINE
  5
77
  8
PROFILE
 66
     1
 10
0.0
 20
0.0
 30
0.0
 70
     1
  0
VERTEX
  5
168
  8
PROFILE
 10
31.4583339691162
 20
34.88499999999996
 30
0.0
 42
0.4142135623730951
  0
VERTEX
  5
169
  8
PROFILE
 10
31.2483339691162
 20
34.67499999999995
 30
0.0
 42
0.4142135623730951
  0
VERTEX
  5
16A
  8
PROFILE
 10
31.4583339691162
 20
34.46499999999995
 30
0.0
 42
0.4142135623730951
  0
VERTEX
  5
16B
  8
PROFILE
 10
31.6683339691162
 20
34.67499999999995
 30
0.0
 42
0.4142135623730951
  0
SEQEND
  5
5FA
  8
PROFILE
  0
POLYLINE
  5
78
  8
PROFILE
 66
     1
 10
0.0
 20
0.0
 30
0.0
 70
     1
  0
VERTEX
  5
16C
  8
PROFILE
 10
16.29166698455808
 20
34.88499999999999
 30
0.0
 42
0.4142135623730951
  0
VERTEX
  5
16D
  8
PROFILE
 10
16.08166698455808
 20
34.67499999999999
 30
0.0
 42
0.4142135623730951
  0
VERTEX
  5
16E
  8
PROFILE
 10
16.29166698455808
 20
34.46499999999999
 30
0.0
 42
0.4142135623730951
  0
VERTEX
  5
16F
  8
PROFILE
 10
16.50166698455809
 20
34.67499999999999
 30
0.0
 42
0.4142135623730951
  0
SEQEND
  5
5FB
  8
PROFILE
  0
POLYLINE
  5
79
  8
PROFILE
 66
     1
 10
0.0
 20
0.0
 30
0.0
 70
     1
  0
VERTEX
  5
170
  8
PROFILE
 10
16.29166650772094
 20
50.43500000000008
 30
0.0
 42
0.4142135623730951
  0
VERTEX
  5
171
  8
PROFILE
 10
16.08166650772094
 20
50.22500000000008
 30
0.0
 42
0.4142135623730951
  0
VERTEX
  5
172
  8
PROFILE
 10
16.29166650772094
 20
50.01500000000008
 30
0.0
 42
0.4142135623730951
  0
VERTEX
  5
173
  8
PROFILE
 10
16.50166650772094
 20
50.22500000000008
 30
0.0
 42
0.4142135623730951
  0
SEQEND
  5
5FC
  8
PROFILE
  0
POLYLINE
  5
7A
  8
PROFILE
 66
     1
 10
0.0
 20
0.0
 30
0.0
 70
     1
  0
VERTEX
  5
174
  8
PROFILE
 10
31.45833396911619
 20
50.43499999999997
 30
0.0
 42
0.4142135623730951
  0
VERTEX
  5
175
  8
PROFILE
 10
31.24833396911619
 20
50.22499999999997
 30
0.0
 42
0.4142135623730951
  0
VERTEX
  5
176
  8
PROFILE
 10
31.45833396911619
 20
50.01499999999997
 30
0.0
 42
0.4142135623730951
  0
VERTEX
  5
177
  8
PROFILE
 10
31.66833396911619
 20
50.22499999999997
 30
0.0
 42
0.4142135623730951
  0
SEQEND
  5
5FD
  8
PROFILE
  0
POLYLINE
  5
7B
  8
PROFILE
 66
     1
 10
0.0
 20
0.0
 30
0.0
 70
     1
  0
VERTEX
  5
178
  8
PROFILE
 10
24.62499999999998
 20
60.875
 30
0.0
  0
VERTEX
  5
179
  8
PROFILE
 10
28.7083339691162
 20
60.875
 30
0.0
  0
VERTEX
  5
17A
  8
PROFILE
 10
29.07642745971678
 20
60.80478811264038
 30
0.0
  0
VERTEX
  5
17B
  8
PROFILE
 10
29.41543960571288
 20
60.582106590271
 30
0.0
  0
VERTEX
  5
17C
  8
PROFILE
 10
29.63812255859374
 20
60.24309492111206
 30
0.0
  0
VERTEX
  5
17D
  8
PROFILE
 10
29.7083339691162
 20
59.875
 30
0.0
  0
VERTEX
  5
17E
  8
PROFILE
 10
29.7083339691162
 20
57.375
 30
0.0
  0
VERTEX
  5
17F
  8
PROFILE
 10
29.63812255859374
 20
57.00690531730652
 30
0.0
  0
VERTEX
  5
180
  8
PROFILE
 10
29.41543960571288
 20
56.66789317131042
 30
0.0
  0
VERTEX
  5
181
  8
PROFILE
 10
29.07642745971678
 20
56.44521164894104
 30
0.0
  0
VERTEX
  5
182
  8
PROFILE
 10
28.7083339691162
 20
56.375
 30
0.0
  0
VERTEX
  5
183
  8
PROFILE
 10
24.62499999999998
 20
56.375
 30
0.0
  0
VERTEX
  5
184
  8
PROFILE
 10
24.62499999999998
 20
56.62499999999999
 30
0.0
  0
VERTEX
  5
185
  8
PROFILE
 10
24.62401336421412
 20
56.65639525976465
 30
0.0
  0
VERTEX
  5
186
  8
PROFILE
 10
24.62105735065722
 20
56.68766661678215
 30
0.0
  0
VERTEX
  5
187
  8
PROFILE
 10
24.61614362536433
 20
56.71869065729286
 30
0.0
  0
VERTEX
  5
188
  8
PROFILE
 10
24.6092915805643
 20
56.74934494358242
 30
0.0
  0
VERTEX
  5
189
  8
PROFILE
 10
24.60052825814756
 20
56.77950849718746
 30
0.0
  0
VERTEX
  5
18A
  8
PROFILE
 10
24.58988824294411
 20
56.80906227634234
 30
0.0
  0
VERTEX
  5
18B
  8
PROFILE
 10
24.57741352623299
 20
56.83788964578253
 30
0.0
  0
VERTEX
  5
18C
  8
PROFILE
 10
24.56315334002191
 20
56.86587683705086
 30
0.0
  0
VERTEX
  5
18D
  8
PROFILE
 10
24.54716396275099
 20
56.89291339748949
 30
0.0
  0
VERTEX
  5
18E
  8
PROFILE
 10
24.52950849718745
 20
56.91889262614624
 30
0.0
  0
VERTEX
  5
18F
  8
PROFILE
 10
24.51025662138788
 20
56.94371199487434
 30
0.0
  0
VERTEX
  5
190
  8
PROFILE
 10
24.48948431371069
 20
56.96727355296434
 30
0.0
  0
VERTEX
  5
191
  8
PROFILE
 10
24.46727355296433
 20
56.9894843137107
 30
0.0
  0
VERTEX
  5
192
  8
PROFILE
 10
24.44371199487433
 20
57.01025662138788
 30
0.0
  0
VERTEX
  5
193
  8
PROFILE
 10
24.42875442429381
 20
57.02194127331882
 30
0.0
  0
VERTEX
  5
194
  8
PROFILE
 10
24.42410921069458
 20
57.02531238140344
 30
0.0
  0
VERTEX
  5
195
  8
PROFILE
 10
24.41962326433517
 20
57.02889269764103
 30
0.0
  0
VERTEX
  5
196
  8
PROFILE
 10
24.41530599958985
 20
57.03267470824645
 30
0.0
  0
VERTEX
  5
197
  8
PROFILE
 10
24.41116647683138
 20
57.03665047615124
 30
0.0
  0
VERTEX
  5
198
  8
PROFILE
 10
24.40721338341654
 20
57.04081165766065
 30
0.0
  0
VERTEX
  5
199
  8
PROFILE
 10
24.40345501545456
 20
57.04514951996402
 30
0.0
  0
VERTEX
  5
19A
  8
PROFILE
 10
24.39989926039657
 20
57.04965495946182
 30
0.0
  0
VERTEX
  5
19B
  8
PROFILE
 10
24.39655358048269
 20
57.05431852087072
 30
0.0
  0
VERTEX
  5
19C
  8
PROFILE
 10
24.39342499708154
 20
57.05913041706689
 30
0.0
  0
VERTEX
  5
19D
  8
PROFILE
 10
24.39052007595486
 20
57.06408054962557
 30
0.0
  0
VERTEX
  5
19E
  8
PROFILE
 10
24.38784491347845
 20
57.06915853001401
 30
0.0
  0
VERTEX
  5
19F
  8
PROFILE
 10
24.38540512384801
 20
57.07435370139327
 30
0.0
  0
VERTEX
  5
1A0
  8
PROFILE
 10
24.38320582729701
 20
57.07965516098299
 30
0.0
  0
VERTEX
  5
1A1
  8
PROFILE
 10
24.38125163935121
 20
57.08505178294244
 30
0.0
  0
VERTEX
  5
1A2
  8
PROFILE
 10
24.37954666114227
 20
57.09053224171956
 30
0.0
  0
VERTEX
  5
1A3
  8
PROFILE
 10
24.37809447080103
 20
57.09608503581924
 30
0.0
  0
VERTEX
  5
1A4
  8
PROFILE
 10
24.3768981159483
 20
57.10169851194077
 30
0.0
  0
VERTEX
  5
1A5
  8
PROFILE
 10
24.37596010729894
 20
57.10736088943388
 30
0.0
  0
VERTEX
  5
1A6
  8
PROFILE
 10
24.3752824133929
 20
57.11306028502204
 30
0.0
  0
VERTEX
  5
1A7
  8
PROFILE
 10
24.37486645646387
 20
57.1187847377412
 30
0.0
  0
VERTEX
  5
1A8
  8
PROFILE
 10
24.37471310945457
 20
57.12452223404146
 30
0.0
  0
VERTEX
  5
1A9
  8
PROFILE
 10
24.37482269418475
 20
57.13026073299917
 30
0.0
  0
VERTEX
  5
1AA
  8
PROFILE
 10
24.3751949806758
 20
57.13598819158646
 30
0.0
  0
VERTEX
  5
1AB
  8
PROFILE
 10
24.37582918763343
 20
57.14169258994524
 30
0.0
  0
VERTEX
  5
1AC
  8
PROFILE
 10
24.37672398408727
 20
57.14736195661241
 30
0.0
  0
VERTEX
  5
1AD
  8
PROFILE
 10
24.37787749218409
 20
57.15298439364374
 30
0.0
  0
VERTEX
  5
1AE
  8
PROFILE
 10
24.37928729112884
 20
57.15854810158324
 30
0.0
  0
VERTEX
  5
1AF
  8
PROFILE
 10
24.38095042226487
 20
57.16404140422601
 30
0.0
  0
VERTEX
  5
1B0
  8
PROFILE
 10
24.38286339528317
 20
57.16945277312232
 30
0.0
  0
VERTEX
  5
1B1
  8
PROFILE
 10
24.38502219554724
 20
57.17477085177165
 30
0.0
  0
VERTEX
  5
1B2
  8
PROFILE
 10
24.38742229251838
 20
57.17998447945589
 30
0.0
  0
VERTEX
  5
1B3
  8
PROFILE
 10
24.39005864926359
 20
57.18508271466159
 30
0.0
  0
VERTEX
  5
1B4
  8
PROFILE
 10
24.39292573302632
 20
57.19005485804229
 30
0.0
  0
VERTEX
  5
1B5
  8
PROFILE
 10
24.3960175268377
 20
57.1948904748725
 30
0.0
  0
VERTEX
  5
1B6
  8
PROFILE
 10
24.39932754214395
 20
57.19957941694646
 30
0.0
  0
VERTEX
  5
1B7
  8
PROFILE
 10
24.40284883242357
 20
57.20411184387554
 30
0.0
  0
VERTEX
  5
1B8
  8
PROFILE
 10
24.40657400776547
 20
57.20847824373958
 30
0.0
  0
VERTEX
  5
1B9
  8
PROFILE
 10
24.41049525037782
 20
57.21266945304905
 30
0.0
  0
VERTEX
  5
1BA
  8
PROFILE
 10
24.41460433099466
 20
57.21667667597585
 30
0.0
  0
VERTEX
  5
1BB
  8
PROFILE
 10
24.41889262614621
 20
57.22049150281252
 30
0.0
  0
VERTEX
  5
1BC
  8
PROFILE
 10
24.44371199487432
 20
57.2397433786121
 30
0.0
  0
VERTEX
  5
1BD
  8
PROFILE
 10
24.46727355296433
 20
57.26051568628929
 30
0.0
  0
VERTEX
  5
1BE
  8
PROFILE
 10
24.48948431371069
 20
57.28272644703565
 30
0.0
  0
VERTEX
  5
1BF
  8
PROFILE
 10
24.51025662138787
 20
57.30628800512565
 30
0.0
  0
VERTEX
  5
1C0
  8
PROFILE
 10
24.52950849718745
 20
57.33110737385376
 30
0.0
  0
VERTEX
  5
1C1
  8
PROFILE
 10
24.54716396275099
 20
57.35708660251049
 30
0.0
  0
VERTEX
  5
1C2
  8
PROFILE
 10
24.56315334002191
 20
57.38412316294913
 30
0.0
  0
VERTEX
  5
1C3
  8
PROFILE
 10
24.57741352623299
 20
57.41211035421745
 30
0.0
  0
VERTEX
  5
1C4
  8
PROFILE
 10
24.58988824294411
 20
57.44093772365765
 30
0.0
  0
VERTEX
  5
1C5
  8
PROFILE
 10
24.60052825814756
 20
57.47049150281251
 30
0.0
  0
VERTEX
  5
1C6
  8
PROFILE
 10
24.6092915805643
 20
57.50065505641756
 30
0.0
  0
VERTEX
  5
1C7
  8
PROFILE
 10
24.61614362536433
 20
57.53130934270713
 30
0.0
  0
VERTEX
  5
1C8
  8
PROFILE
 10
24.62105735065722
 20
57.56233338321784
 30
0.0
  0
VERTEX
  5
1C9
  8
PROFILE
 10
24.62401336421412
 20
57.59360474023533
 30
0.0
  0
VERTEX
  5
1CA
  8
PROFILE
 10
24.62499999999998
 20
57.62499999999999
 30
0.0
  0
VERTEX
  5
1CB
  8
PROFILE
 10
24.62401336421412
 20
57.65639525976465
 30
0.0
  0
VERTEX
  5
1CC
  8
PROFILE
 10
24.62105735065722
 20
57.68766661678214
 30
0.0
  0
VERTEX
  5
1CD
  8
PROFILE
 10
24.61614362536432
 20
57.71869065729285
 30
0.0
  0
VERTEX
  5
1CE
  8
PROFILE
 10
24.6092915805643
 20
57.74934494358242
 30
0.0
  0
VERTEX
  5
1CF
  8
PROFILE
 10
24.60052825814756
 20
57.77950849718747
 30
0.0
  0
VERTEX
  5
1D0
  8
PROFILE
 10
24.58988824294411
 20
57.80906227634234
 30
0.0
  0
VERTEX
  5
1D1
  8
PROFILE
 10
24.57741352623299
 20
57.83788964578253
 30
0.0
  0
VERTEX
  5
1D2
  8
PROFILE
 10
24.56315334002192
 20
57.86587683705086
 30
0.0
  0
VERTEX
  5
1D3
  8
PROFILE
 10
24.54716396275099
 20
57.89291339748949
 30
0.0
  0
VERTEX
  5
1D4
  8
PROFILE
 10
24.52950849718745
 20
57.91889262614623
 30
0.0
  0
VERTEX
  5
1D5
  8
PROFILE
 10
24.51025662138788
 20
57.94371199487433
 30
0.0
  0
VERTEX
  5
1D6
  8
PROFILE
 10
24.48948431371069
 20
57.96727355296434
 30
0.0
  0
VERTEX
  5
1D7
  8
PROFILE
 10
24.46727355296433
 20
57.9894843137107
 30
0.0
  0
VERTEX
  5
1D8
  8
PROFILE
 10
24.44371199487432
 20
58.01025662138789
 30
0.0
  0
VERTEX
  5
1D9
  8
PROFILE
 10
24.43658786307529
 20
58.01694476369239
 30
0.0
  0
VERTEX
  5
1DA
  8
PROFILE
 10
24.42875442429381
 20
58.02194127331882
 30
0.0
  0
VERTEX
  5
1DB
  8
PROFILE
 10
24.42710578723527
 20
58.02313771640974
 30
0.0
  0
VERTEX
  5
1DC
  8
PROFILE
 10
24.42410921069458
 20
58.02531238140345
 30
0.0
  0
VERTEX
  5
1DD
  8
PROFILE
 10
24.41889262614622
 20
58.02950849718746
 30
0.0
  0
VERTEX
  5
1DE
  8
PROFILE
 10
24.41530599958985
 20
58.03267470824644
 30
0.0
  0
VERTEX
  5
1DF
  8
PROFILE
 10
24.41116647683138
 20
58.03665047615124
 30
0.0
  0
VERTEX
  5
1E0
  8
PROFILE
 10
24.40721338341654
 20
58.04081165766065
 30
0.0
  0
VERTEX
  5
1E1
  8
PROFILE
 10
24.40345501545456
 20
58.04514951996403
 30
0.0
  0
VERTEX
  5
1E2
  8
PROFILE
 10
24.39989926039657
 20
58.04965495946182
 30
0.0
  0
VERTEX
  5
1E3
  8
PROFILE
 10
24.3965535804827
 20
58.05431852087072
 30
0.0
  0
VERTEX
  5
1E4
  8
PROFILE
 10
24.39342499708154
 20
58.05913041706688
 30
0.0
  0
VERTEX
  5
1E5
  8
PROFILE
 10
24.39052007595486
 20
58.06408054962556
 30
0.0
  0
VERTEX
  5
1E6
  8
PROFILE
 10
24.38784491347845
 20
58.06915853001401
 30
0.0
  0
VERTEX
  5
1E7
  8
PROFILE
 10
24.385405123848
 20
58.07435370139326
 30
0.0
  0
VERTEX
  5
1E8
  8
PROFILE
 10
24.38320582729702
 20
58.07965516098299
 30
0.0
  0
VERTEX
  5
1E9
  8
PROFILE
 10
24.38125163935121
 20
58.08505178294244
 30
0.0
  0
VERTEX
  5
1EA
  8
PROFILE
 10
24.37954666114227
 20
58.09053224171956
 30
0.0
  0
VERTEX
  5
1EB
  8
PROFILE
 10
24.37809447080104
 20
58.09608503581924
 30
0.0
  0
VERTEX
  5
1EC
  8
PROFILE
 10
24.3768981159483
 20
58.10169851194077
 30
0.0
  0
VERTEX
  5
1ED
  8
PROFILE
 10
24.37596010729894
 20
58.10736088943388
 30
0.0
  0
VERTEX
  5
1EE
  8
PROFILE
 10
24.37528241339291
 20
58.11306028502204
 30
0.0
  0
VERTEX
  5
1EF
  8
PROFILE
 10
24.37486645646387
 20
58.1187847377412
 30
0.0
  0
VERTEX
  5
1F0
  8
PROFILE
 10
24.37471310945457
 20
58.12452223404146
 30
0.0
  0
VERTEX
  5
1F1
  8
PROFILE
 10
24.37482269418475
 20
58.13026073299916
 30
0.0
  0
VERTEX
  5
1F2
  8
PROFILE
 10
24.37519498067581
 20
58.13598819158646
 30
0.0
  0
VERTEX
  5
1F3
  8
PROFILE
 10
24.37582918763343
 20
58.14169258994524
 30
0.0
  0
VERTEX
  5
1F4
  8
PROFILE
 10
24.37672398408726
 20
58.14736195661241
 30
0.0
  0
VERTEX
  5
1F5
  8
PROFILE
 10
24.3778774921841
 20
58.15298439364374
 30
0.0
  0
VERTEX
  5
1F6
  8
PROFILE
 10
24.37928729112884
 20
58.15854810158324
 30
0.0
  0
VERTEX
  5
1F7
  8
PROFILE
 10
24.38095042226487
 20
58.164041404226
 30
0.0
  0
VERTEX
  5
1F8
  8
PROFILE
 10
24.38286339528316
 20
58.16945277312232
 30
0.0
  0
VERTEX
  5
1F9
  8
PROFILE
 10
24.38502219554724
 20
58.17477085177165
 30
0.0
  0
VERTEX
  5
1FA
  8
PROFILE
 10
24.38742229251838
 20
58.17998447945588
 30
0.0
  0
VERTEX
  5
1FB
  8
PROFILE
 10
24.39005864926359
 20
58.18508271466159
 30
0.0
  0
VERTEX
  5
1FC
  8
PROFILE
 10
24.39292573302632
 20
58.19005485804229
 30
0.0
  0
VERTEX
  5
1FD
  8
PROFILE
 10
24.3960175268377
 20
58.1948904748725
 30
0.0
  0
VERTEX
  5
1FE
  8
PROFILE
 10
24.39932754214395
 20
58.19957941694646
 30
0.0
  0
VERTEX
  5
1FF
  8
PROFILE
 10
24.40284883242357
 20
58.20411184387554
 30
0.0
  0
VERTEX
  5
200
  8
PROFILE
 10
24.40657400776547
 20
58.20847824373958
 30
0.0
  0
VERTEX
  5
201
  8
PROFILE
 10
24.41049525037781
 20
58.21266945304906
 30
0.0
  0
VERTEX
  5
202
  8
PROFILE
 10
24.41460433099466
 20
58.21667667597585
 30
0.0
  0
VERTEX
  5
203
  8
PROFILE
 10
24.41889262614622
 20
58.22049150281251
 30
0.0
  0
VERTEX
  5
204
  8
PROFILE
 10
24.42619238751131
 20
58.22623966387523
 30
0.0
  0
VERTEX
  5
205
  8
PROFILE
 10
24.42703464501263
 20
58.22680710002577
 30
0.0
  0
VERTEX
  5
206
  8
PROFILE
 10
24.43389806342158
 20
58.23143104426544
 30
0.0
  0
VERTEX
  5
207
  8
PROFILE
 10
24.44371199487432
 20
58.2397433786121
 30
0.0
  0
VERTEX
  5
208
  8
PROFILE
 10
24.46727355296433
 20
58.26051568628929
 30
0.0
  0
VERTEX
  5
209
  8
PROFILE
 10
24.48948431371069
 20
58.28272644703565
 30
0.0
  0
VERTEX
  5
20A
  8
PROFILE
 10
24.51025662138788
 20
58.30628800512564
 30
0.0
  0
VERTEX
  5
20B
  8
PROFILE
 10
24.52950849718746
 20
58.33110737385375
 30
0.0
  0
VERTEX
  5
20C
  8
PROFILE
 10
24.54716396275099
 20
58.35708660251049
 30
0.0
  0
VERTEX
  5
20D
  8
PROFILE
 10
24.56315334002191
 20
58.38412316294913
 30
0.0
  0
VERTEX
  5
20E
  8
PROFILE
 10
24.57741352623299
 20
58.41211035421745
 30
0.0
  0
VERTEX
  5
20F
  8
PROFILE
 10
24.5898882429441
 20
58.44093772365765
 30
0.0
  0
VERTEX
  5
210
  8
PROFILE
 10
24.60052825814756
 20
58.47049150281251
 30
0.0
  0
VERTEX
  5
211
  8
PROFILE
 10
24.6092915805643
 20
58.50065505641756
 30
0.0
  0
VERTEX
  5
212
  8
PROFILE
 10
24.61614362536433
 20
58.53130934270713
 30
0.0
  0
VERTEX
  5
213
  8
PROFILE
 10
24.62105735065722
 20
58.56233338321783
 30
0.0
  0
VERTEX
  5
214
  8
PROFILE
 10
24.62401336421412
 20
58.59360474023534
 30
0.0
  0
VERTEX
  5
215
  8
PROFILE
 10
24.62499999999998
 20
58.625
 30
0.0
  0
VERTEX
  5
216
  8
PROFILE
 10
24.62401336421411
 20
58.65639525976466
 30
0.0
  0
VERTEX
  5
217
  8
PROFILE
 10
24.62105735065722
 20
58.68766661678215
 30
0.0
  0
VERTEX
  5
218
  8
PROFILE
 10
24.61614362536433
 20
58.71869065729285
 30
0.0
  0
VERTEX
  5
219
  8
PROFILE
 10
24.6092915805643
 20
58.74934494358242
 30
0.0
  0
VERTEX
  5
21A
  8
PROFILE
 10
24.60052825814756
 20
58.77950849718747
 30
0.0
  0
VERTEX
  5
21B
  8
PROFILE
 10
24.58988824294411
 20
58.80906227634234
 30
0.0
  0
VERTEX
  5
21C
  8
PROFILE
 10
24.57741352623299
 20
58.83788964578253
 30
0.0
  0
VERTEX
  5
21D
  8
PROFILE
 10
24.56315334002191
 20
58.86587683705086
 30
0.0
  0
VERTEX
  5
21E
  8
PROFILE
 10
24.54716396275099
 20
58.89291339748949
 30
0.0
  0
VERTEX
  5
21F
  8
PROFILE
 10
24.52950849718745
 20
58.91889262614623
 30
0.0
  0
VERTEX
  5
220
  8
PROFILE
 10
24.51025662138788
 20
58.94371199487434
 30
0.0
  0
VERTEX
  5
221
  8
PROFILE
 10
24.48948431371069
 20
58.96727355296434
 30
0.0
  0
VERTEX
  5
222
  8
PROFILE
 10
24.46727355296433
 20
58.9894843137107
 30
0.0
  0
VERTEX
  5
223
  8
PROFILE
 10
24.44371199487433
 20
59.01025662138789
 30
0.0
  0
VERTEX
  5
224
  8
PROFILE
 10
24.43658786307529
 20
59.01694476369239
 30
0.0
  0
VERTEX
  5
225
  8
PROFILE
 10
24.41889262614621
 20
59.02950849718746
 30
0.0
  0
VERTEX
  5
226
  8
PROFILE
 10
24.41530599958985
 20
59.03267470824645
 30
0.0
  0
VERTEX
  5
227
  8
PROFILE
 10
24.41116647683138
 20
59.03665047615124
 30
0.0
  0
VERTEX
  5
228
  8
PROFILE
 10
24.40721338341654
 20
59.04081165766065
 30
0.0
  0
VERTEX
  5
229
  8
PROFILE
 10
24.40345501545456
 20
59.04514951996403
 30
0.0
  0
VERTEX
  5
22A
  8
PROFILE
 10
24.39989926039657
 20
59.04965495946182
 30
0.0
  0
VERTEX
  5
22B
  8
PROFILE
 10
24.3965535804827
 20
59.05431852087072
 30
0.0
  0
VERTEX
  5
22C
  8
PROFILE
 10
24.39342499708154
 20
59.05913041706688
 30
0.0
  0
VERTEX
  5
22D
  8
PROFILE
 10
24.39052007595486
 20
59.06408054962556
 30
0.0
  0
VERTEX
  5
22E
  8
PROFILE
 10
24.38784491347844
 20
59.06915853001401
 30
0.0
  0
VERTEX
  5
22F
  8
PROFILE
 10
24.385405123848
 20
59.07435370139327
 30
0.0
  0
VERTEX
  5
230
  8
PROFILE
 10
24.38320582729701
 20
59.07965516098299
 30
0.0
  0
VERTEX
  5
231
  8
PROFILE
 10
24.38125163935121
 20
59.08505178294244
 30
0.0
  0
VERTEX
  5
232
  8
PROFILE
 10
24.37954666114227
 20
59.09053224171956
 30
0.0
  0
VERTEX
  5
233
  8
PROFILE
 10
24.37809447080103
 20
59.09608503581925
 30
0.0
  0
VERTEX
  5
234
  8
PROFILE
 10
24.37689811594829
 20
59.10169851194077
 30
0.0
  0
VERTEX
  5
235
  8
PROFILE
 10
24.37596010729894
 20
59.10736088943388
 30
0.0
  0
VERTEX
  5
236
  8
PROFILE
 10
24.3752824133929
 20
59.11306028502204
 30
0.0
  0
VERTEX
  5
237
  8
PROFILE
 10
24.37486645646387
 20
59.1187847377412
 30
0.0
  0
VERTEX
  5
238
  8
PROFILE
 10
24.37471310945457
 20
59.12452223404146
 30
0.0
  0
VERTEX
  5
239
  8
PROFILE
 10
24.37482269418475
 20
59.13026073299916
 30
0.0
  0
VERTEX
  5
23A
  8
PROFILE
 10
24.3751949806758
 20
59.13598819158646
 30
0.0
  0
VERTEX
  5
23B
  8
PROFILE
 10
24.37582918763343
 20
59.14169258994524
 30
0.0
  0
VERTEX
  5
23C
  8
PROFILE
 10
24.37672398408726
 20
59.14736195661242
 30
0.0
  0
VERTEX
  5
23D
  8
PROFILE
 10
24.37787749218409
 20
59.15298439364374
 30
0.0
  0
VERTEX
  5
23E
  8
PROFILE
 10
24.37928729112884
 20
59.15854810158324
 30
0.0
  0
VERTEX
  5
23F
  8
PROFILE
 10
24.38095042226486
 20
59.16404140422601
 30
0.0
  0
VERTEX
  5
240
  8
PROFILE
 10
24.38286339528316
 20
59.16945277312232
 30
0.0
  0
VERTEX
  5
241
  8
PROFILE
 10
24.38502219554724
 20
59.17477085177165
 30
0.0
  0
VERTEX
  5
242
  8
PROFILE
 10
24.38742229251838
 20
59.17998447945589
 30
0.0
  0
VERTEX
  5
243
  8
PROFILE
 10
24.39005864926359
 20
59.1850827146616
 30
0.0
  0
VERTEX
  5
244
  8
PROFILE
 10
24.39292573302632
 20
59.19005485804229
 30
0.0
  0
VERTEX
  5
245
  8
PROFILE
 10
24.3960175268377
 20
59.1948904748725
 30
0.0
  0
VERTEX
  5
246
  8
PROFILE
 10
24.39932754214395
 20
59.19957941694646
 30
0.0
  0
VERTEX
  5
247
  8
PROFILE
 10
24.40284883242357
 20
59.20411184387554
 30
0.0
  0
VERTEX
  5
248
  8
PROFILE
 10
24.40657400776547
 20
59.20847824373958
 30
0.0
  0
VERTEX
  5
249
  8
PROFILE
 10
24.41049525037781
 20
59.21266945304906
 30
0.0
  0
VERTEX
  5
24A
  8
PROFILE
 10
24.41460433099466
 20
59.21667667597585
 30
0.0
  0
VERTEX
  5
24B
  8
PROFILE
 10
24.41889262614621
 20
59.22049150281252
 30
0.0
  0
VERTEX
  5
24C
  8
PROFILE
 10
24.43389806342158
 20
59.23143104426544
 30
0.0
  0
VERTEX
  5
24D
  8
PROFILE
 10
24.44371199487432
 20
59.2397433786121
 30
0.0
  0
VERTEX
  5
24E
  8
PROFILE
 10
24.46727355296433
 20
59.26051568628929
 30
0.0
  0
VERTEX
  5
24F
  8
PROFILE
 10
24.48948431371069
 20
59.28272644703565
 30
0.0
  0
VERTEX
  5
250
  8
PROFILE
 10
24.51025662138787
 20
59.30628800512564
 30
0.0
  0
VERTEX
  5
251
  8
PROFILE
 10
24.52950849718745
 20
59.33110737385376
 30
0.0
  0
VERTEX
  5
252
  8
PROFILE
 10
24.54716396275099
 20
59.3570866025105
 30
0.0
  0
VERTEX
  5
253
  8
PROFILE
 10
24.56315334002191
 20
59.38412316294913
 30
0.0
  0
VERTEX
  5
254
  8
PROFILE
 10
24.57741352623299
 20
59.41211035421745
 30
0.0
  0
VERTEX
  5
255
  8
PROFILE
 10
24.5898882429441
 20
59.44093772365765
 30
0.0
  0
VERTEX
  5
256
  8
PROFILE
 10
24.60052825814756
 20
59.47049150281252
 30
0.0
  0
VERTEX
  5
257
  8
PROFILE
 10
24.60929158056429
 20
59.50065505641756
 30
0.0
  0
VERTEX
  5
258
  8
PROFILE
 10
24.61614362536433
 20
59.53130934270713
 30
0.0
  0
VERTEX
  5
259
  8
PROFILE
 10
24.62105735065722
 20
59.56233338321784
 30
0.0
  0
VERTEX
  5
25A
  8
PROFILE
 10
24.62401336421412
 20
59.59360474023534
 30
0.0
  0
VERTEX
  5
25B
  8
PROFILE
 10
24.62499999999998
 20
59.62499999999999
 30
0.0
  0
VERTEX
  5
25C
  8
PROFILE
 10
24.62401336421412
 20
59.65639525976465
 30
0.0
  0
VERTEX
  5
25D
  8
PROFILE
 10
24.62105735065721
 20
59.68766661678215
 30
0.0
  0
VERTEX
  5
25E
  8
PROFILE
 10
24.61614362536432
 20
59.71869065729286
 30
0.0
  0
VERTEX
  5
25F
  8
PROFILE
 10
24.6092915805643
 20
59.74934494358242
 30
0.0
  0
VERTEX
  5
260
  8
PROFILE
 10
24.60052825814756
 20
59.77950849718747
 30
0.0
  0
VERTEX
  5
261
  8
PROFILE
 10
24.58988824294411
 20
59.80906227634233
 30
0.0
  0
VERTEX
  5
262
  8
PROFILE
 10
24.57741352623299
 20
59.83788964578253
 30
0.0
  0
VERTEX
  5
263
  8
PROFILE
 10
24.56315334002191
 20
59.86587683705086
 30
0.0
  0
VERTEX
  5
264
  8
PROFILE
 10
24.54716396275099
 20
59.89291339748949
 30
0.0
  0
VERTEX
  5
265
  8
PROFILE
 10
24.52950849718745
 20
59.91889262614623
 30
0.0
  0
VERTEX
  5
266
  8
PROFILE
 10
24.51025662138787
 20
59.94371199487434
 30
0.0
  0
VERTEX
  5
267
  8
PROFILE
 10
24.48948431371069
 20
59.96727355296434
 30
0.0
  0
VERTEX
  5
268
  8
PROFILE
 10
24.46727355296433
 20
59.9894843137107
 30
0.0
  0
VERTEX
  5
269
  8
PROFILE
 10
24.44371199487432
 20
60.01025662138789
 30
0.0
  0
VERTEX
  5
26A
  8
PROFILE
 10
24.43658786307529
 20
60.01694476369239
 30
0.0
  0
VERTEX
  5
26B
  8
PROFILE
 10
24.41889262614622
 20
60.02950849718747
 30
0.0
  0
VERTEX
  5
26C
  8
PROFILE
 10
24.41530599958985
 20
60.03267470824645
 30
0.0
  0
VERTEX
  5
26D
  8
PROFILE
 10
24.41116647683138
 20
60.03665047615124
 30
0.0
  0
VERTEX
  5
26E
  8
PROFILE
 10
24.40721338341654
 20
60.04081165766065
 30
0.0
  0
VERTEX
  5
26F
  8
PROFILE
 10
24.40345501545456
 20
60.04514951996403
 30
0.0
  0
VERTEX
  5
270
  8
PROFILE
 10
24.39989926039657
 20
60.04965495946182
 30
0.0
  0
VERTEX
  5
271
  8
PROFILE
 10
24.39655358048269
 20
60.05431852087072
 30
0.0
  0
VERTEX
  5
272
  8
PROFILE
 10
24.39342499708154
 20
60.05913041706688
 30
0.0
  0
VERTEX
  5
273
  8
PROFILE
 10
24.39052007595486
 20
60.06408054962556
 30
0.0
  0
VERTEX
  5
274
  8
PROFILE
 10
24.38784491347844
 20
60.06915853001401
 30
0.0
  0
VERTEX
  5
275
  8
PROFILE
 10
24.38540512384801
 20
60.07435370139327
 30
0.0
  0
VERTEX
  5
276
  8
PROFILE
 10
24.38320582729701
 20
60.07965516098299
 30
0.0
  0
VERTEX
  5
277
  8
PROFILE
 10
24.38125163935121
 20
60.08505178294244
 30
0.0
  0
VERTEX
  5
278
  8
PROFILE
 10
24.37954666114227
 20
60.09053224171956
 30
0.0
  0
VERTEX
  5
279
  8
PROFILE
 10
24.37809447080103
 20
60.09608503581924
 30
0.0
  0
VERTEX
  5
27A
  8
PROFILE
 10
24.3768981159483
 20
60.10169851194077
 30
0.0
  0
VERTEX
  5
27B
  8
PROFILE
 10
24.37596010729894
 20
60.10736088943388
 30
0.0
  0
VERTEX
  5
27C
  8
PROFILE
 10
24.3752824133929
 20
60.11306028502204
 30
0.0
  0
VERTEX
  5
27D
  8
PROFILE
 10
24.37486645646387
 20
60.1187847377412
 30
0.0
  0
VERTEX
  5
27E
  8
PROFILE
 10
24.37471310945457
 20
60.12452223404146
 30
0.0
  0
VERTEX
  5
27F
  8
PROFILE
 10
24.37482269418475
 20
60.13026073299916
 30
0.0
  0
VERTEX
  5
280
  8
PROFILE
 10
24.3751949806758
 20
60.13598819158646
 30
0.0
  0
VERTEX
  5
281
  8
PROFILE
 10
24.37582918763343
 20
60.14169258994524
 30
0.0
  0
VERTEX
  5
282
  8
PROFILE
 10
24.37672398408726
 20
60.14736195661241
 30
0.0
  0
VERTEX
  5
283
  8
PROFILE
 10
24.37787749218409
 20
60.15298439364374
 30
0.0
  0
VERTEX
  5
284
  8
PROFILE
 10
24.37928729112884
 20
60.15854810158324
 30
0.0
  0
VERTEX
  5
285
  8
PROFILE
 10
24.38095042226486
 20
60.16404140422601
 30
0.0
  0
VERTEX
  5
286
  8
PROFILE
 10
24.38286339528316
 20
60.16945277312232
 30
0.0
  0
VERTEX
  5
287
  8
PROFILE
 10
24.38502219554724
 20
60.17477085177165
 30
0.0
  0
VERTEX
  5
288
  8
PROFILE
 10
24.38742229251838
 20
60.17998447945589
 30
0.0
  0
VERTEX
  5
289
  8
PROFILE
 10
24.39005864926359
 20
60.18508271466159
 30
0.0
  0
VERTEX
  5
28A
  8
PROFILE
 10
24.39292573302632
 20
60.19005485804229
 30
0.0
  0
VERTEX
  5
28B
  8
PROFILE
 10
24.3960175268377
 20
60.1948904748725
 30
0.0
  0
VERTEX
  5
28C
  8
PROFILE
 10
24.39932754214395
 20
60.19957941694647
 30
0.0
  0
VERTEX
  5
28D
  8
PROFILE
 10
24.40284883242356
 20
60.20411184387554
 30
0.0
  0
VERTEX
  5
28E
  8
PROFILE
 10
24.40657400776547
 20
60.20847824373958
 30
0.0
  0
VERTEX
  5
28F
  8
PROFILE
 10
24.41049525037781
 20
60.21266945304906
 30
0.0
  0
VERTEX
  5
290
  8
PROFILE
 10
24.41460433099466
 20
60.21667667597585
 30
0.0
  0
VERTEX
  5
291
  8
PROFILE
 10
24.41889262614621
 20
60.22049150281252
 30
0.0
  0
VERTEX
  5
292
  8
PROFILE
 10
24.43389806342158
 20
60.23143104426544
 30
0.0
  0
VERTEX
  5
293
  8
PROFILE
 10
24.44371199487432
 20
60.2397433786121
 30
0.0
  0
VERTEX
  5
294
  8
PROFILE
 10
24.46727355296433
 20
60.26051568628929
 30
0.0
  0
VERTEX
  5
295
  8
PROFILE
 10
24.48948431371068
 20
60.28272644703565
 30
0.0
  0
VERTEX
  5
296
  8
PROFILE
 10
24.51025662138787
 20
60.30628800512565
 30
0.0
  0
VERTEX
  5
297
  8
PROFILE
 10
24.52950849718745
 20
60.33110737385375
 30
0.0
  0
VERTEX
  5
298
  8
PROFILE
 10
24.54716396275099
 20
60.35708660251049
 30
0.0
  0
VERTEX
  5
299
  8
PROFILE
 10
24.56315334002191
 20
60.38412316294913
 30
0.0
  0
VERTEX
  5
29A
  8
PROFILE
 10
24.57741352623299
 20
60.41211035421745
 30
0.0
  0
VERTEX
  5
29B
  8
PROFILE
 10
24.5898882429441
 20
60.44093772365765
 30
0.0
  0
VERTEX
  5
29C
  8
PROFILE
 10
24.60052825814756
 20
60.47049150281251
 30
0.0
  0
VERTEX
  5
29D
  8
PROFILE
 10
24.6092915805643
 20
60.50065505641756
 30
0.0
  0
VERTEX
  5
29E
  8
PROFILE
 10
24.61614362536433
 20
60.53130934270713
 30
0.0
  0
VERTEX
  5
29F
  8
PROFILE
 10
24.62105735065722
 20
60.56233338321784
 30
0.0
  0
VERTEX
  5
2A0
  8
PROFILE
 10
24.62401336421411
 20
60.59360474023534
 30
0.0
  0
VERTEX
  5
2A1
  8
PROFILE
 10
24.62499999999998
 20
60.62499999999999
 30
0.0
  0
SEQEND
  5
5FE
  8
PROFILE
  0
POLYLINE
  5
7C
  8
PROFILE
 66
     1
 10
0.0
 20
0.0
 30
0.0
 70
     1
  0
VERTEX
  5
2A2
  8
PROFILE
 10
23.125
 20
60.875
 30
0.0
  0
VERTEX
  5
2A3
  8
PROFILE
 10
19.04166603088377
 20
60.875
 30
0.0
  0
VERTEX
  5
2A4
  8
PROFILE
 10
18.67357254028318
 20
60.80478811264038
 30
0.0
  0
VERTEX
  5
2A5
  8
PROFILE
 10
18.33456039428709
 20
60.582106590271
 30
0.0
  0
VERTEX
  5
2A6
  8
PROFILE
 10
18.11187744140623
 20
60.24309492111206
 30
0.0
  0
VERTEX
  5
2A7
  8
PROFILE
 10
18.04166603088377
 20
59.875
 30
0.0
  0
VERTEX
  5
2A8
  8
PROFILE
 10
18.04166603088377
 20
57.375
 30
0.0
  0
VERTEX
  5
2A9
  8
PROFILE
 10
18.11187744140623
 20
57.00690531730652
 30
0.0
  0
VERTEX
  5
2AA
  8
PROFILE
 10
18.33456039428709
 20
56.66789317131042
 30
0.0
  0
VERTEX
  5
2AB
  8
PROFILE
 10
18.67357254028318
 20
56.44521164894104
 30
0.0
  0
VERTEX
  5
2AC
  8
PROFILE
 10
19.04166603088377
 20
56.375
 30
0.0
  0
VERTEX
  5
2AD
  8
PROFILE
 10
23.12499999999999
 20
56.375
 30
0.0
  0
VERTEX
  5
2AE
  8
PROFILE
 10
23.12499999999998
 20
56.62499999999999
 30
0.0
  0
VERTEX
  5
2AF
  8
PROFILE
 10
23.12598663578585
 20
56.65639525976466
 30
0.0
  0
VERTEX
  5
2B0
  8
PROFILE
 10
23.12894264934274
 20
56.68766661678215
 30
0.0
  0
VERTEX
  5
2B1
  8
PROFILE
 10
23.13385637463564
 20
56.71869065729286
 30
0.0
  0
VERTEX
  5
2B2
  8
PROFILE
 10
23.14070841943566
 20
56.74934494358242
 30
0.0
  0
VERTEX
  5
2B3
  8
PROFILE
 10
23.14947174185241
 20
56.77950849718747
 30
0.0
  0
VERTEX
  5
2B4
  8
PROFILE
 10
23.16011175705586
 20
56.80906227634234
 30
0.0
  0
VERTEX
  5
2B5
  8
PROFILE
 10
23.17258647376697
 20
56.83788964578253
 30
0.0
  0
VERTEX
  5
2B6
  8
PROFILE
 10
23.18684665997805
 20
56.86587683705086
 30
0.0
  0
VERTEX
  5
2B7
  8
PROFILE
 10
23.20283603724898
 20
56.89291339748949
 30
0.0
  0
VERTEX
  5
2B8
  8
PROFILE
 10
23.22049150281251
 20
56.91889262614623
 30
0.0
  0
VERTEX
  5
2B9
  8
PROFILE
 10
23.23974337861209
 20
56.94371199487434
 30
0.0
  0
VERTEX
  5
2BA
  8
PROFILE
 10
23.26051568628928
 20
56.96727355296434
 30
0.0
  0
VERTEX
  5
2BB
  8
PROFILE
 10
23.28272644703564
 20
56.9894843137107
 30
0.0
  0
VERTEX
  5
2BC
  8
PROFILE
 10
23.30628800512564
 20
57.01025662138789
 30
0.0
  0
VERTEX
  5
2BD
  8
PROFILE
 10
23.31610193657838
 20
57.01856895573454
 30
0.0
  0
VERTEX
  5
2BE
  8
PROFILE
 10
23.33110737385374
 20
57.02950849718747
 30
0.0
  0
VERTEX
  5
2BF
  8
PROFILE
 10
23.3353956690053
 20
57.03332332402414
 30
0.0
  0
VERTEX
  5
2C0
  8
PROFILE
 10
23.33950474962215
 20
57.03733054695093
 30
0.0
  0
VERTEX
  5
2C1
  8
PROFILE
 10
23.34342599223449
 20
57.0415217562604
 30
0.0
  0
VERTEX
  5
2C2
  8
PROFILE
 10
23.3471511675764
 20
57.04588815612445
 30
0.0
  0
VERTEX
  5
2C3
  8
PROFILE
 10
23.35067245785601
 20
57.05042058305352
 30
0.0
  0
VERTEX
  5
2C4
  8
PROFILE
 10
23.35398247316227
 20
57.05510952512749
 30
0.0
  0
VERTEX
  5
2C5
  8
PROFILE
 10
23.35707426697364
 20
57.05994514195771
 30
0.0
  0
VERTEX
  5
2C6
  8
PROFILE
 10
23.35994135073637
 20
57.0649172853384
 30
0.0
  0
VERTEX
  5
2C7
  8
PROFILE
 10
23.36257770748158
 20
57.0700155205441
 30
0.0
  0
VERTEX
  5
2C8
  8
PROFILE
 10
23.36497780445272
 20
57.07522914822833
 30
0.0
  0
VERTEX
  5
2C9
  8
PROFILE
 10
23.36713660471679
 20
57.08054722687767
 30
0.0
  0
VERTEX
  5
2CA
  8
PROFILE
 10
23.36904957773509
 20
57.08595859577397
 30
0.0
  0
VERTEX
  5
2CB
  8
PROFILE
 10
23.37071270887112
 20
57.09145189841674
 30
0.0
  0
VERTEX
  5
2CC
  8
PROFILE
 10
23.37212250781586
 20
57.09701560635625
 30
0.0
  0
VERTEX
  5
2CD
  8
PROFILE
 10
23.3732760159127
 20
57.10263804338757
 30
0.0
  0
VERTEX
  5
2CE
  8
PROFILE
 10
23.37417081236653
 20
57.10830741005475
 30
0.0
  0
VERTEX
  5
2CF
  8
PROFILE
 10
23.37480501932416
 20
57.11401180841352
 30
0.0
  0
VERTEX
  5
2D0
  8
PROFILE
 10
23.37517730581521
 20
57.11973926700082
 30
0.0
  0
VERTEX
  5
2D1
  8
PROFILE
 10
23.37528689054539
 20
57.12547776595853
 30
0.0
  0
VERTEX
  5
2D2
  8
PROFILE
 10
23.37513354353609
 20
57.13121526225878
 30
0.0
  0
VERTEX
  5
2D3
  8
PROFILE
 10
23.37471758660706
 20
57.13693971497794
 30
0.0
  0
VERTEX
  5
2D4
  8
PROFILE
 10
23.37403989270102
 20
57.14263911056611
 30
0.0
  0
VERTEX
  5
2D5
  8
PROFILE
 10
23.37310188405167
 20
57.14830148805921
 30
0.0
  0
VERTEX
  5
2D6
  8
PROFILE
 10
23.37190552919892
 20
57.15391496418074
 30
0.0
  0
VERTEX
  5
2D7
  8
PROFILE
 10
23.37045333885769
 20
57.15946775828044
 30
0.0
  0
VERTEX
  5
2D8
  8
PROFILE
 10
23.36874836064875
 20
57.16494821705755
 30
0.0
  0
VERTEX
  5
2D9
  8
PROFILE
 10
23.36679417270295
 20
57.170344839017
 30
0.0
  0
VERTEX
  5
2DA
  8
PROFILE
 10
23.36459487615196
 20
57.17564629860672
 30
0.0
  0
VERTEX
  5
2DB
  8
PROFILE
 10
23.36215508652151
 20
57.18084146998598
 30
0.0
  0
VERTEX
  5
2DC
  8
PROFILE
 10
23.3594799240451
 20
57.18591945037443
 30
0.0
  0
VERTEX
  5
2DD
  8
PROFILE
 10
23.35657500291843
 20
57.1908695829331
 30
0.0
  0
VERTEX
  5
2DE
  8
PROFILE
 10
23.35344641951727
 20
57.19568147912927
 30
0.0
  0
VERTEX
  5
2DF
  8
PROFILE
 10
23.35010073960339
 20
57.20034504053817
 30
0.0
  0
VERTEX
  5
2E0
  8
PROFILE
 10
23.3465449845454
 20
57.20485048003596
 30
0.0
  0
VERTEX
  5
2E1
  8
PROFILE
 10
23.34278661658342
 20
57.20918834233934
 30
0.0
  0
VERTEX
  5
2E2
  8
PROFILE
 10
23.33883352316859
 20
57.21334952384875
 30
0.0
  0
VERTEX
  5
2E3
  8
PROFILE
 10
23.33469400041011
 20
57.21732529175354
 30
0.0
  0
VERTEX
  5
2E4
  8
PROFILE
 10
23.33110737385374
 20
57.22049150281252
 30
0.0
  0
VERTEX
  5
2E5
  8
PROFILE
 10
23.31341213692467
 20
57.2330552363076
 30
0.0
  0
VERTEX
  5
2E6
  8
PROFILE
 10
23.30628800512563
 20
57.2397433786121
 30
0.0
  0
VERTEX
  5
2E7
  8
PROFILE
 10
23.28272644703564
 20
57.26051568628929
 30
0.0
  0
VERTEX
  5
2E8
  8
PROFILE
 10
23.26051568628927
 20
57.28272644703565
 30
0.0
  0
VERTEX
  5
2E9
  8
PROFILE
 10
23.23974337861209
 20
57.30628800512565
 30
0.0
  0
VERTEX
  5
2EA
  8
PROFILE
 10
23.22049150281251
 20
57.33110737385376
 30
0.0
  0
VERTEX
  5
2EB
  8
PROFILE
 10
23.20283603724897
 20
57.3570866025105
 30
0.0
  0
VERTEX
  5
2EC
  8
PROFILE
 10
23.18684665997805
 20
57.38412316294914
 30
0.0
  0
VERTEX
  5
2ED
  8
PROFILE
 10
23.17258647376697
 20
57.41211035421745
 30
0.0
  0
VERTEX
  5
2EE
  8
PROFILE
 10
23.16011175705586
 20
57.44093772365765
 30
0.0
  0
VERTEX
  5
2EF
  8
PROFILE
 10
23.14947174185241
 20
57.47049150281252
 30
0.0
  0
VERTEX
  5
2F0
  8
PROFILE
 10
23.14070841943566
 20
57.50065505641756
 30
0.0
  0
VERTEX
  5
2F1
  8
PROFILE
 10
23.13385637463564
 20
57.53130934270713
 30
0.0
  0
VERTEX
  5
2F2
  8
PROFILE
 10
23.12894264934274
 20
57.56233338321784
 30
0.0
  0
VERTEX
  5
2F3
  8
PROFILE
 10
23.12598663578585
 20
57.59360474023534
 30
0.0
  0
VERTEX
  5
2F4
  8
PROFILE
 10
23.12499999999998
 20
57.62499999999999
 30
0.0
  0
VERTEX
  5
2F5
  8
PROFILE
 10
23.12598663578585
 20
57.65639525976466
 30
0.0
  0
VERTEX
  5
2F6
  8
PROFILE
 10
23.12894264934274
 20
57.68766661678215
 30
0.0
  0
VERTEX
  5
2F7
  8
PROFILE
 10
23.13385637463564
 20
57.71869065729286
 30
0.0
  0
VERTEX
  5
2F8
  8
PROFILE
 10
23.14070841943566
 20
57.74934494358243
 30
0.0
  0
VERTEX
  5
2F9
  8
PROFILE
 10
23.14947174185241
 20
57.77950849718747
 30
0.0
  0
VERTEX
  5
2FA
  8
PROFILE
 10
23.16011175705586
 20
57.80906227634234
 30
0.0
  0
VERTEX
  5
2FB
  8
PROFILE
 10
23.17258647376697
 20
57.83788964578253
 30
0.0
  0
VERTEX
  5
2FC
  8
PROFILE
 10
23.18684665997805
 20
57.86587683705086
 30
0.0
  0
VERTEX
  5
2FD
  8
PROFILE
 10
23.20283603724898
 20
57.89291339748949
 30
0.0
  0
VERTEX
  5
2FE
  8
PROFILE
 10
23.22049150281251
 20
57.91889262614623
 30
0.0
  0
VERTEX
  5
2FF
  8
PROFILE
 10
23.23974337861209
 20
57.94371199487434
 30
0.0
  0
VERTEX
  5
300
  8
PROFILE
 10
23.26051568628928
 20
57.96727355296434
 30
0.0
  0
VERTEX
  5
301
  8
PROFILE
 10
23.28272644703564
 20
57.9894843137107
 30
0.0
  0
VERTEX
  5
302
  8
PROFILE
 10
23.30628800512564
 20
58.01025662138789
 30
0.0
  0
VERTEX
  5
303
  8
PROFILE
 10
23.31610193657838
 20
58.01856895573454
 30
0.0
  0
VERTEX
  5
304
  8
PROFILE
 10
23.33110737385374
 20
58.02950849718747
 30
0.0
  0
VERTEX
  5
305
  8
PROFILE
 10
23.3353956690053
 20
58.03332332402414
 30
0.0
  0
VERTEX
  5
306
  8
PROFILE
 10
23.33950474962215
 20
58.03733054695093
 30
0.0
  0
VERTEX
  5
307
  8
PROFILE
 10
23.34342599223449
 20
58.0415217562604
 30
0.0
  0
VERTEX
  5
308
  8
PROFILE
 10
23.3471511675764
 20
58.04588815612445
 30
0.0
  0
VERTEX
  5
309
  8
PROFILE
 10
23.35067245785601
 20
58.05042058305352
 30
0.0
  0
VERTEX
  5
30A
  8
PROFILE
 10
23.35398247316227
 20
58.05510952512749
 30
0.0
  0
VERTEX
  5
30B
  8
PROFILE
 10
23.35707426697364
 20
58.05994514195771
 30
0.0
  0
VERTEX
  5
30C
  8
PROFILE
 10
23.35994135073637
 20
58.0649172853384
 30
0.0
  0
VERTEX
  5
30D
  8
PROFILE
 10
23.36257770748158
 20
58.0700155205441
 30
0.0
  0
VERTEX
  5
30E
  8
PROFILE
 10
23.36497780445272
 20
58.07522914822833
 30
0.0
  0
VERTEX
  5
30F
  8
PROFILE
 10
23.36713660471679
 20
58.08054722687767
 30
0.0
  0
VERTEX
  5
310
  8
PROFILE
 10
23.36904957773509
 20
58.08595859577397
 30
0.0
  0
VERTEX
  5
311
  8
PROFILE
 10
23.37071270887112
 20
58.09145189841674
 30
0.0
  0
VERTEX
  5
312
  8
PROFILE
 10
23.37212250781586
 20
58.09701560635625
 30
0.0
  0
VERTEX
  5
313
  8
PROFILE
 10
23.3732760159127
 20
58.10263804338757
 30
0.0
  0
VERTEX
  5
314
  8
PROFILE
 10
23.37417081236653
 20
58.10830741005475
 30
0.0
  0
VERTEX
  5
315
  8
PROFILE
 10
23.37480501932416
 20
58.11401180841352
 30
0.0
  0
VERTEX
  5
316
  8
PROFILE
 10
23.37517730581521
 20
58.11973926700082
 30
0.0
  0
VERTEX
  5
317
  8
PROFILE
 10
23.37528689054539
 20
58.12547776595853
 30
0.0
  0
VERTEX
  5
318
  8
PROFILE
 10
23.37513354353609
 20
58.13121526225878
 30
0.0
  0
VERTEX
  5
319
  8
PROFILE
 10
23.37471758660706
 20
58.13693971497794
 30
0.0
  0
VERTEX
  5
31A
  8
PROFILE
 10
23.37403989270102
 20
58.14263911056611
 30
0.0
  0
VERTEX
  5
31B
  8
PROFILE
 10
23.37310188405167
 20
58.14830148805921
 30
0.0
  0
VERTEX
  5
31C
  8
PROFILE
 10
23.37190552919892
 20
58.15391496418074
 30
0.0
  0
VERTEX
  5
31D
  8
PROFILE
 10
23.37045333885769
 20
58.15946775828043
 30
0.0
  0
VERTEX
  5
31E
  8
PROFILE
 10
23.36874836064875
 20
58.16494821705755
 30
0.0
  0
VERTEX
  5
31F
  8
PROFILE
 10
23.36679417270295
 20
58.170344839017
 30
0.0
  0
VERTEX
  5
320
  8
PROFILE
 10
23.36459487615196
 20
58.17564629860672
 30
0.0
  0
VERTEX
  5
321
  8
PROFILE
 10
23.36215508652151
 20
58.18084146998598
 30
0.0
  0
VERTEX
  5
322
  8
PROFILE
 10
23.3594799240451
 20
58.18591945037443
 30
0.0
  0
VERTEX
  5
323
  8
PROFILE
 10
23.35657500291843
 20
58.1908695829331
 30
0.0
  0
VERTEX
  5
324
  8
PROFILE
 10
23.35344641951727
 20
58.19568147912927
 30
0.0
  0
VERTEX
  5
325
  8
PROFILE
 10
23.35010073960339
 20
58.20034504053817
 30
0.0
  0
VERTEX
  5
326
  8
PROFILE
 10
23.3465449845454
 20
58.20485048003596
 30
0.0
  0
VERTEX
  5
327
  8
PROFILE
 10
23.34278661658342
 20
58.20918834233934
 30
0.0
  0
VERTEX
  5
328
  8
PROFILE
 10
23.33883352316859
 20
58.21334952384875
 30
0.0
  0
VERTEX
  5
329
  8
PROFILE
 10
23.33469400041011
 20
58.21732529175354
 30
0.0
  0
VERTEX
  5
32A
  8
PROFILE
 10
23.33110737385374
 20
58.22049150281252
 30
0.0
  0
VERTEX
  5
32B
  8
PROFILE
 10
23.31341213692467
 20
58.2330552363076
 30
0.0
  0
VERTEX
  5
32C
  8
PROFILE
 10
23.30628800512563
 20
58.2397433786121
 30
0.0
  0
VERTEX
  5
32D
  8
PROFILE
 10
23.28272644703564
 20
58.26051568628929
 30
0.0
  0
VERTEX
  5
32E
  8
PROFILE
 10
23.26051568628927
 20
58.28272644703565
 30
0.0
  0
VERTEX
  5
32F
  8
PROFILE
 10
23.23974337861209
 20
58.30628800512565
 30
0.0
  0
VERTEX
  5
330
  8
PROFILE
 10
23.22049150281251
 20
58.33110737385375
 30
0.0
  0
VERTEX
  5
331
  8
PROFILE
 10
23.20283603724897
 20
58.3570866025105
 30
0.0
  0
VERTEX
  5
332
  8
PROFILE
 10
23.18684665997805
 20
58.38412316294914
 30
0.0
  0
VERTEX
  5
333
  8
PROFILE
 10
23.17258647376697
 20
58.41211035421745
 30
0.0
  0
VERTEX
  5
334
  8
PROFILE
 10
23.16011175705586
 20
58.44093772365765
 30
0.0
  0
VERTEX
  5
335
  8
PROFILE
 10
23.14947174185241
 20
58.47049150281252
 30
0.0
  0
VERTEX
  5
336
  8
PROFILE
 10
23.14070841943566
 20
58.50065505641756
 30
0.0
  0
VERTEX
  5
337
  8
PROFILE
 10
23.13385637463564
 20
58.53130934270713
 30
0.0
  0
VERTEX
  5
338
  8
PROFILE
 10
23.12894264934274
 20
58.56233338321784
 30
0.0
  0
VERTEX
  5
339
  8
PROFILE
 10
23.12598663578585
 20
58.59360474023534
 30
0.0
  0
VERTEX
  5
33A
  8
PROFILE
 10
23.12499999999998
 20
58.62499999999999
 30
0.0
  0
VERTEX
  5
33B
  8
PROFILE
 10
23.12598663578585
 20
58.65639525976466
 30
0.0
  0
VERTEX
  5
33C
  8
PROFILE
 10
23.12894264934274
 20
58.68766661678215
 30
0.0
  0
VERTEX
  5
33D
  8
PROFILE
 10
23.13385637463564
 20
58.71869065729286
 30
0.0
  0
VERTEX
  5
33E
  8
PROFILE
 10
23.14070841943566
 20
58.74934494358243
 30
0.0
  0
VERTEX
  5
33F
  8
PROFILE
 10
23.14947174185241
 20
58.77950849718747
 30
0.0
  0
VERTEX
  5
340
  8
PROFILE
 10
23.16011175705586
 20
58.80906227634234
 30
0.0
  0
VERTEX
  5
341
  8
PROFILE
 10
23.17258647376697
 20
58.83788964578253
 30
0.0
  0
VERTEX
  5
342
  8
PROFILE
 10
23.18684665997805
 20
58.86587683705086
 30
0.0
  0
VERTEX
  5
343
  8
PROFILE
 10
23.20283603724898
 20
58.89291339748949
 30
0.0
  0
VERTEX
  5
344
  8
PROFILE
 10
23.22049150281251
 20
58.91889262614623
 30
0.0
  0
VERTEX
  5
345
  8
PROFILE
 10
23.23974337861209
 20
58.94371199487434
 30
0.0
  0
VERTEX
  5
346
  8
PROFILE
 10
23.26051568628928
 20
58.96727355296434
 30
0.0
  0
VERTEX
  5
347
  8
PROFILE
 10
23.28272644703564
 20
58.9894843137107
 30
0.0
  0
VERTEX
  5
348
  8
PROFILE
 10
23.30628800512564
 20
59.01025662138789
 30
0.0
  0
VERTEX
  5
349
  8
PROFILE
 10
23.31610193657838
 20
59.01856895573454
 30
0.0
  0
VERTEX
  5
34A
  8
PROFILE
 10
23.32296535498734
 20
59.02319289997422
 30
0.0
  0
VERTEX
  5
34B
  8
PROFILE
 10
23.32380761248865
 20
59.02376033612476
 30
0.0
  0
VERTEX
  5
34C
  8
PROFILE
 10
23.33110737385374
 20
59.02950849718747
 30
0.0
  0
VERTEX
  5
34D
  8
PROFILE
 10
23.3353956690053
 20
59.03332332402414
 30
0.0
  0
VERTEX
  5
34E
  8
PROFILE
 10
23.33950474962215
 20
59.03733054695093
 30
0.0
  0
VERTEX
  5
34F
  8
PROFILE
 10
23.34342599223449
 20
59.0415217562604
 30
0.0
  0
VERTEX
  5
350
  8
PROFILE
 10
23.3471511675764
 20
59.04588815612445
 30
0.0
  0
VERTEX
  5
351
  8
PROFILE
 10
23.35067245785601
 20
59.05042058305352
 30
0.0
  0
VERTEX
  5
352
  8
PROFILE
 10
23.35398247316227
 20
59.05510952512749
 30
0.0
  0
VERTEX
  5
353
  8
PROFILE
 10
23.35707426697364
 20
59.05994514195771
 30
0.0
  0
VERTEX
  5
354
  8
PROFILE
 10
23.35994135073637
 20
59.0649172853384
 30
0.0
  0
VERTEX
  5
355
  8
PROFILE
 10
23.36257770748158
 20
59.0700155205441
 30
0.0
  0
VERTEX
  5
356
  8
PROFILE
 10
23.36497780445272
 20
59.07522914822833
 30
0.0
  0
VERTEX
  5
357
  8
PROFILE
 10
23.36713660471679
 20
59.08054722687767
 30
0.0
  0
VERTEX
  5
358
  8
PROFILE
 10
23.36904957773509
 20
59.08595859577397
 30
0.0
  0
VERTEX
  5
359
  8
PROFILE
 10
23.37071270887112
 20
59.09145189841674
 30
0.0
  0
VERTEX
  5
35A
  8
PROFILE
 10
23.37212250781586
 20
59.09701560635625
 30
0.0
  0
VERTEX
  5
35B
  8
PROFILE
 10
23.3732760159127
 20
59.10263804338757
 30
0.0
  0
VERTEX
  5
35C
  8
PROFILE
 10
23.37417081236653
 20
59.10830741005475
 30
0.0
  0
VERTEX
  5
35D
  8
PROFILE
 10
23.37480501932416
 20
59.11401180841352
 30
0.0
  0
VERTEX
  5
35E
  8
PROFILE
 10
23.37517730581521
 20
59.11973926700082
 30
0.0
  0
VERTEX
  5
35F
  8
PROFILE
 10
23.37528689054539
 20
59.12547776595853
 30
0.0
  0
VERTEX
  5
360
  8
PROFILE
 10
23.37513354353609
 20
59.13121526225878
 30
0.0
  0
VERTEX
  5
361
  8
PROFILE
 10
23.37471758660706
 20
59.13693971497794
 30
0.0
  0
VERTEX
  5
362
  8
PROFILE
 10
23.37403989270102
 20
59.14263911056611
 30
0.0
  0
VERTEX
  5
363
  8
PROFILE
 10
23.37310188405167
 20
59.14830148805921
 30
0.0
  0
VERTEX
  5
364
  8
PROFILE
 10
23.37190552919892
 20
59.15391496418074
 30
0.0
  0
VERTEX
  5
365
  8
PROFILE
 10
23.37045333885769
 20
59.15946775828044
 30
0.0
  0
VERTEX
  5
366
  8
PROFILE
 10
23.36874836064875
 20
59.16494821705755
 30
0.0
  0
VERTEX
  5
367
  8
PROFILE
 10
23.36679417270295
 20
59.170344839017
 30
0.0
  0
VERTEX
  5
368
  8
PROFILE
 10
23.36459487615196
 20
59.17564629860672
 30
0.0
  0
VERTEX
  5
369
  8
PROFILE
 10
23.36215508652151
 20
59.18084146998598
 30
0.0
  0
VERTEX
  5
36A
  8
PROFILE
 10
23.3594799240451
 20
59.18591945037443
 30
0.0
  0
VERTEX
  5
36B
  8
PROFILE
 10
23.35657500291843
 20
59.1908695829331
 30
0.0
  0
VERTEX
  5
36C
  8
PROFILE
 10
23.35344641951727
 20
59.19568147912927
 30
0.0
  0
VERTEX
  5
36D
  8
PROFILE
 10
23.35010073960339
 20
59.20034504053817
 30
0.0
  0
VERTEX
  5
36E
  8
PROFILE
 10
23.3465449845454
 20
59.20485048003596
 30
0.0
  0
VERTEX
  5
36F
  8
PROFILE
 10
23.34278661658342
 20
59.20918834233934
 30
0.0
  0
VERTEX
  5
370
  8
PROFILE
 10
23.33883352316859
 20
59.21334952384875
 30
0.0
  0
VERTEX
  5
371
  8
PROFILE
 10
23.33469400041011
 20
59.21732529175354
 30
0.0
  0
VERTEX
  5
372
  8
PROFILE
 10
23.33110737385374
 20
59.22049150281252
 30
0.0
  0
VERTEX
  5
373
  8
PROFILE
 10
23.32589078930538
 20
59.22468761859655
 30
0.0
  0
VERTEX
  5
374
  8
PROFILE
 10
23.32289421276469
 20
59.22686228359025
 30
0.0
  0
VERTEX
  5
375
  8
PROFILE
 10
23.32124557570615
 20
59.22805872668117
 30
0.0
  0
VERTEX
  5
376
  8
PROFILE
 10
23.31341213692467
 20
59.2330552363076
 30
0.0
  0
VERTEX
  5
377
  8
PROFILE
 10
23.30628800512563
 20
59.2397433786121
 30
0.0
  0
VERTEX
  5
378
  8
PROFILE
 10
23.28272644703564
 20
59.26051568628929
 30
0.0
  0
VERTEX
  5
379
  8
PROFILE
 10
23.26051568628927
 20
59.28272644703565
 30
0.0
  0
VERTEX
  5
37A
  8
PROFILE
 10
23.23974337861209
 20
59.30628800512565
 30
0.0
  0
VERTEX
  5
37B
  8
PROFILE
 10
23.22049150281251
 20
59.33110737385376
 30
0.0
  0
VERTEX
  5
37C
  8
PROFILE
 10
23.20283603724897
 20
59.3570866025105
 30
0.0
  0
VERTEX
  5
37D
  8
PROFILE
 10
23.18684665997805
 20
59.38412316294914
 30
0.0
  0
VERTEX
  5
37E
  8
PROFILE
 10
23.17258647376697
 20
59.41211035421745
 30
0.0
  0
VERTEX
  5
37F
  8
PROFILE
 10
23.16011175705586
 20
59.44093772365765
 30
0.0
  0
VERTEX
  5
380
  8
PROFILE
 10
23.14947174185241
 20
59.47049150281252
 30
0.0
  0
VERTEX
  5
381
  8
PROFILE
 10
23.14070841943566
 20
59.50065505641756
 30
0.0
  0
VERTEX
  5
382
  8
PROFILE
 10
23.13385637463564
 20
59.53130934270713
 30
0.0
  0
VERTEX
  5
383
  8
PROFILE
 10
23.12894264934274
 20
59.56233338321784
 30
0.0
  0
VERTEX
  5
384
  8
PROFILE
 10
23.12598663578585
 20
59.59360474023534
 30
0.0
  0
VERTEX
  5
385
  8
PROFILE
 10
23.12499999999998
 20
59.62499999999999
 30
0.0
  0
VERTEX
  5
386
  8
PROFILE
 10
23.12598663578585
 20
59.65639525976466
 30
0.0
  0
VERTEX
  5
387
  8
PROFILE
 10
23.12894264934274
 20
59.68766661678215
 30
0.0
  0
VERTEX
  5
388
  8
PROFILE
 10
23.13385637463564
 20
59.71869065729286
 30
0.0
  0
VERTEX
  5
389
  8
PROFILE
 10
23.14070841943566
 20
59.74934494358243
 30
0.0
  0
VERTEX
  5
38A
  8
PROFILE
 10
23.14947174185241
 20
59.77950849718747
 30
0.0
  0
VERTEX
  5
38B
  8
PROFILE
 10
23.16011175705586
 20
59.80906227634234
 30
0.0
  0
VERTEX
  5
38C
  8
PROFILE
 10
23.17258647376697
 20
59.83788964578253
 30
0.0
  0
VERTEX
  5
38D
  8
PROFILE
 10
23.18684665997805
 20
59.86587683705086
 30
0.0
  0
VERTEX
  5
38E
  8
PROFILE
 10
23.20283603724898
 20
59.89291339748949
 30
0.0
  0
VERTEX
  5
38F
  8
PROFILE
 10
23.22049150281251
 20
59.91889262614623
 30
0.0
  0
VERTEX
  5
390
  8
PROFILE
 10
23.23974337861209
 20
59.94371199487434
 30
0.0
  0
VERTEX
  5
391
  8
PROFILE
 10
23.26051568628928
 20
59.96727355296434
 30
0.0
  0
VERTEX
  5
392
  8
PROFILE
 10
23.28272644703564
 20
59.9894843137107
 30
0.0
  0
VERTEX
  5
393
  8
PROFILE
 10
23.30628800512564
 20
60.01025662138789
 30
0.0
  0
VERTEX
  5
394
  8
PROFILE
 10
23.33110737385374
 20
60.02950849718747
 30
0.0
  0
VERTEX
  5
395
  8
PROFILE
 10
23.3353956690053
 20
60.03332332402414
 30
0.0
  0
VERTEX
  5
396
  8
PROFILE
 10
23.33950474962215
 20
60.03733054695093
 30
0.0
  0
VERTEX
  5
397
  8
PROFILE
 10
23.34342599223449
 20
60.0415217562604
 30
0.0
  0
VERTEX
  5
398
  8
PROFILE
 10
23.3471511675764
 20
60.04588815612445
 30
0.0
  0
VERTEX
  5
399
  8
PROFILE
 10
23.35067245785601
 20
60.05042058305352
 30
0.0
  0
VERTEX
  5
39A
  8
PROFILE
 10
23.35398247316227
 20
60.05510952512749
 30
0.0
  0
VERTEX
  5
39B
  8
PROFILE
 10
23.35707426697364
 20
60.05994514195771
 30
0.0
  0
VERTEX
  5
39C
  8
PROFILE
 10
23.35994135073637
 20
60.0649172853384
 30
0.0
  0
VERTEX
  5
39D
  8
PROFILE
 10
23.36257770748158
 20
60.0700155205441
 30
0.0
  0
VERTEX
  5
39E
  8
PROFILE
 10
23.36497780445272
 20
60.07522914822833
 30
0.0
  0
VERTEX
  5
39F
  8
PROFILE
 10
23.36713660471679
 20
60.08054722687767
 30
0.0
  0
VERTEX
  5
3A0
  8
PROFILE
 10
23.36904957773509
 20
60.08595859577397
 30
0.0
  0
VERTEX
  5
3A1
  8
PROFILE
 10
23.37071270887112
 20
60.09145189841674
 30
0.0
  0
VERTEX
  5
3A2
  8
PROFILE
 10
23.37212250781586
 20
60.09701560635625
 30
0.0
  0
VERTEX
  5
3A3
  8
PROFILE
 10
23.3732760159127
 20
60.10263804338757
 30
0.0
  0
VERTEX
  5
3A4
  8
PROFILE
 10
23.37417081236653
 20
60.10830741005475
 30
0.0
  0
VERTEX
  5
3A5
  8
PROFILE
 10
23.37480501932416
 20
60.11401180841352
 30
0.0
  0
VERTEX
  5
3A6
  8
PROFILE
 10
23.37517730581521
 20
60.11973926700082
 30
0.0
  0
VERTEX
  5
3A7
  8
PROFILE
 10
23.37528689054539
 20
60.12547776595853
 30
0.0
  0
VERTEX
  5
3A8
  8
PROFILE
 10
23.37513354353609
 20
60.13121526225878
 30
0.0
  0
VERTEX
  5
3A9
  8
PROFILE
 10
23.37471758660706
 20
60.13693971497794
 30
0.0
  0
VERTEX
  5
3AA
  8
PROFILE
 10
23.37403989270102
 20
60.14263911056611
 30
0.0
  0
VERTEX
  5
3AB
  8
PROFILE
 10
23.37310188405167
 20
60.14830148805921
 30
0.0
  0
VERTEX
  5
3AC
  8
PROFILE
 10
23.37190552919892
 20
60.15391496418074
 30
0.0
  0
VERTEX
  5
3AD
  8
PROFILE
 10
23.37045333885769
 20
60.15946775828043
 30
0.0
  0
VERTEX
  5
3AE
  8
PROFILE
 10
23.36874836064875
 20
60.16494821705755
 30
0.0
  0
VERTEX
  5
3AF
  8
PROFILE
 10
23.36679417270295
 20
60.170344839017
 30
0.0
  0
VERTEX
  5
3B0
  8
PROFILE
 10
23.36459487615196
 20
60.17564629860672
 30
0.0
  0
VERTEX
  5
3B1
  8
PROFILE
 10
23.36215508652151
 20
60.18084146998598
 30
0.0
  0
VERTEX
  5
3B2
  8
PROFILE
 10
23.3594799240451
 20
60.18591945037443
 30
0.0
  0
VERTEX
  5
3B3
  8
PROFILE
 10
23.35657500291843
 20
60.1908695829331
 30
0.0
  0
VERTEX
  5
3B4
  8
PROFILE
 10
23.35344641951727
 20
60.19568147912927
 30
0.0
  0
VERTEX
  5
3B5
  8
PROFILE
 10
23.35010073960339
 20
60.20034504053817
 30
0.0
  0
VERTEX
  5
3B6
  8
PROFILE
 10
23.3465449845454
 20
60.20485048003596
 30
0.0
  0
VERTEX
  5
3B7
  8
PROFILE
 10
23.34278661658342
 20
60.20918834233934
 30
0.0
  0
VERTEX
  5
3B8
  8
PROFILE
 10
23.33883352316859
 20
60.21334952384875
 30
0.0
  0
VERTEX
  5
3B9
  8
PROFILE
 10
23.33469400041011
 20
60.21732529175354
 30
0.0
  0
VERTEX
  5
3BA
  8
PROFILE
 10
23.33037673566479
 20
60.22110730235896
 30
0.0
  0
VERTEX
  5
3BB
  8
PROFILE
 10
23.32589078930538
 20
60.22468761859655
 30
0.0
  0
VERTEX
  5
3BC
  8
PROFILE
 10
23.32124557570615
 20
60.22805872668117
 30
0.0
  0
VERTEX
  5
3BD
  8
PROFILE
 10
23.30628800512563
 20
60.2397433786121
 30
0.0
  0
VERTEX
  5
3BE
  8
PROFILE
 10
23.28272644703564
 20
60.26051568628929
 30
0.0
  0
VERTEX
  5
3BF
  8
PROFILE
 10
23.26051568628927
 20
60.28272644703565
 30
0.0
  0
VERTEX
  5
3C0
  8
PROFILE
 10
23.23974337861209
 20
60.30628800512565
 30
0.0
  0
VERTEX
  5
3C1
  8
PROFILE
 10
23.22049150281251
 20
60.33110737385375
 30
0.0
  0
VERTEX
  5
3C2
  8
PROFILE
 10
23.20283603724897
 20
60.3570866025105
 30
0.0
  0
VERTEX
  5
3C3
  8
PROFILE
 10
23.18684665997805
 20
60.38412316294914
 30
0.0
  0
VERTEX
  5
3C4
  8
PROFILE
 10
23.17258647376697
 20
60.41211035421746
 30
0.0
  0
VERTEX
  5
3C5
  8
PROFILE
 10
23.16011175705586
 20
60.44093772365765
 30
0.0
  0
VERTEX
  5
3C6
  8
PROFILE
 10
23.14947174185241
 20
60.47049150281252
 30
0.0
  0
VERTEX
  5
3C7
  8
PROFILE
 10
23.14070841943566
 20
60.50065505641756
 30
0.0
  0
VERTEX
  5
3C8
  8
PROFILE
 10
23.13385637463564
 20
60.53130934270713
 30
0.0
  0
VERTEX
  5
3C9
  8
PROFILE
 10
23.12894264934274
 20
60.56233338321784
 30
0.0
  0
VERTEX
  5
3CA
  8
PROFILE
 10
23.12598663578585
 20
60.59360474023534
 30
0.0
  0
VERTEX
  5
3CB
  8
PROFILE
 10
23.12499999999998
 20
60.62499999999999
 30
0.0
  0
SEQEND
  5
5FF
  8
PROFILE
  0
POLYLINE
  5
7D
  8
PROFILE
 66
     1
 10
0.0
 20
0.0
 30
0.0
 70
     1
  0
VERTEX
  5
3CC
  8
PROFILE
 10
0.875
 20
70.775
 30
0.0
  0
VERTEX
  5
3CD
  8
PROFILE
 10
0.875
 20
63.27500000000001
 30
0.0
  0
VERTEX
  5
3CE
  8
PROFILE
 10
22.375
 20
63.27500000000001
 30
0.0
  0
VERTEX
  5
3CF
  8
PROFILE
 10
22.375
 20
70.775
 30
0.0
  0
SEQEND
  5
600
  8
PROFILE
  0
POLYLINE
  5
7E
  8
PROFILE
 66
     1
 10
0.0
 20
0.0
 30
0.0
 70
     1
  0
VERTEX
  5
3D0
  8
PROFILE
 10
2.733793380115587
 20
65.00824039009001
 30
0.0
 42
-0.107805010346718
  0
VERTEX
  5
3D1
  8
PROFILE
 10
2.488250656796222
 20
65.32959985542941
 30
0.0
 42
-0.094619388181651
  0
VERTEX
  5
3D2
  8
PROFILE
 10
2.375
 20
65.775
 30
0.0
  0
VERTEX
  5
3D3
  8
PROFILE
 10
2.375
 20
68.275
 30
0.0
 42
-0.1684528206774315
  0
VERTEX
  5
3D4
  8
PROFILE
 10
2.657197774031489
 20
68.96051263860396
 30
0.0
 42
-0.1878884045820265
  0
VERTEX
  5
3D5
  8
PROFILE
 10
3.252220081503253
 20
69.26656182686354
 30
0.0
 42
-0.008749348893698
  0
VERTEX
  5
3D6
  8
PROFILE
 10
3.31292788317372
 20
69.27180272353579
 30
0.0
 42
-0.0085774735560824
  0
VERTEX
  5
3D7
  8
PROFILE
 10
3.375
 20
69.275
 30
0.0
  0
VERTEX
  5
3D8
  8
PROFILE
 10
19.875
 20
69.275
 30
0.0
 42
-0.1684532638119355
  0
VERTEX
  5
3D9
  8
PROFILE
 10
20.56051128233991
 20
68.99280220316658
 30
0.0
 42
-0.1878876535740622
  0
VERTEX
  5
3DA
  8
PROFILE
 10
20.86656177611154
 20
68.39777715871523
 30
0.0
 42
-0.008749190362953
  0
VERTEX
  5
3DB
  8
PROFILE
 10
20.87180277786445
 20
68.33706929599535
 30
0.0
 42
-0.0085777171966803
  0
VERTEX
  5
3DC
  8
PROFILE
 10
20.875
 20
68.275
 30
0.0
  0
VERTEX
  5
3DD
  8
PROFILE
 10
20.875
 20
65.775
 30
0.0
 42
-0.168452858747401
  0
VERTEX
  5
3DE
  8
PROFILE
 10
20.59280190485429
 20
65.08948754638139
 30
0.0
 42
-0.1878882214814304
  0
VERTEX
  5
3DF
  8
PROFILE
 10
19.99777890313461
 20
64.78343816346073
 30
0.0
 42
-0.0087492615381015
  0
VERTEX
  5
3E0
  8
PROFILE
 10
19.93707107946522
 20
64.7781972457738
 30
0.0
 42
-0.0085775344663303
  0
VERTEX
  5
3E1
  8
PROFILE
 10
19.875
 20
64.775
 30
0.0
  0
VERTEX
  5
3E2
  8
PROFILE
 10
3.375
 20
64.775
 30
0.0
 42
-0.0740171175983459
  0
VERTEX
  5
3E3
  8
PROFILE
 10
3.005742407862834
 20
64.85027850439812
 30
0.0
 42
-0.0889066438415379
  0
SEQEND
  5
601
  8
PROFILE
  0
POLYLINE
  5
7F
  8
PROFILE
 66
     1
 10
0.0
 20
0.0
 30
0.0
 70
     1
  0
VERTEX
  5
3E4
  8
PROFILE
 10
22.375
 20
71.675
 30
0.0
  0
VERTEX
  5
3E5
  8
PROFILE
 10
22.375
 20
79.175
 30
0.0
  0
VERTEX
  5
3E6
  8
PROFILE
 10
0.875
 20
79.175
 30
0.0
  0
VERTEX
  5
3E7
  8
PROFILE
 10
0.875
 20
71.675
 30
0.0
  0
SEQEND
  5
602
  8
PROFILE
  0
POLYLINE
  5
80
  8
PROFILE
 66
     1
 10
0.0
 20
0.0
 30
0.0
 70
     1
  0
VERTEX
  5
3E8
  8
PROFILE
 10
2.733793380115587
 20
73.40824039009
 30
0.0
 42
-0.1078050103467365
  0
VERTEX
  5
3E9
  8
PROFILE
 10
2.488250656796223
 20
73.7295998554294
 30
0.0
 42
-0.0946193881816498
  0
VERTEX
  5
3EA
  8
PROFILE
 10
2.375
 20
74.175
 30
0.0
  0
VERTEX
  5
3EB
  8
PROFILE
 10
2.375
 20
76.675
 30
0.0
 42
-0.1684528206774486
  0
VERTEX
  5
3EC
  8
PROFILE
 10
2.657197774031474
 20
77.36051263860394
 30
0.0
 42
-0.1878884045820349
  0
VERTEX
  5
3ED
  8
PROFILE
 10
3.252220081503253
 20
77.66656182686353
 30
0.0
 42
-0.0087493488936942
  0
VERTEX
  5
3EE
  8
PROFILE
 10
3.31292788317372
 20
77.67180272353578
 30
0.0
 42
-0.0085774735560824
  0
VERTEX
  5
3EF
  8
PROFILE
 10
3.375
 20
77.675
 30
0.0
  0
VERTEX
  5
3F0
  8
PROFILE
 10
19.875
 20
77.675
 30
0.0
 42
-0.1684532638119355
  0
VERTEX
  5
3F1
  8
PROFILE
 10
20.56051128233991
 20
77.39280220316657
 30
0.0
 42
-0.1878876535740661
  0
VERTEX
  5
3F2
  8
PROFILE
 10
20.86656177611154
 20
76.79777715871523
 30
0.0
 42
-0.0087491903629349
  0
VERTEX
  5
3F3
  8
PROFILE
 10
20.87180277786445
 20
76.73706929599537
 30
0.0
 42
-0.0085777171966764
  0
VERTEX
  5
3F4
  8
PROFILE
 10
20.875
 20
76.675
 30
0.0
  0
VERTEX
  5
3F5
  8
PROFILE
 10
20.875
 20
74.175
 30
0.0
 42
-0.1684528587474001
  0
VERTEX
  5
3F6
  8
PROFILE
 10
20.59280190485429
 20
73.48948754638138
 30
0.0
 42
-0.187888221481432
  0
VERTEX
  5
3F7
  8
PROFILE
 10
19.99777890313461
 20
73.18343816346072
 30
0.0
 42
-0.0087492615381015
  0
VERTEX
  5
3F8
  8
PROFILE
 10
19.93707107946522
 20
73.17819724577379
 30
0.0
 42
-0.0085775344663303
  0
VERTEX
  5
3F9
  8
PROFILE
 10
19.875
 20
73.175
 30
0.0
  0
VERTEX
  5
3FA
  8
PROFILE
 10
3.375
 20
73.175
 30
0.0
 42
-0.0740171175983459
  0
VERTEX
  5
3FB
  8
PROFILE
 10
3.005742407862834
 20
73.25027850439811
 30
0.0
 42
-0.0889066438415385
  0
SEQEND
  5
603
  8
PROFILE
  0
POLYLINE
  5
81
  8
PROFILE
 66
     1
 10
0.0
 20
0.0
 30
0.0
 70
     1
  0
VERTEX
  5
3FC
  8
PROFILE
 10
44.77500000000002
 20
79.175
 30
0.0
  0
VERTEX
  5
3FD
  8
PROFILE
 10
34.22500000000001
 20
79.17500000000001
 30
0.0
  0
VERTEX
  5
3FE
  8
PROFILE
 10
34.22499999999997
 20
78.92499999999998
 30
0.0
 42
0.00146462077399
  0
VERTEX
  5
3FF
  8
PROFILE
 10
34.45515881133265
 20
78.93429539508058
 30
0.0
 42
-0.4174579102922439
  0
VERTEX
  5
400
  8
PROFILE
 10
34.60000000000001
 20
78.79999999999998
 30
0.0
 42
-0.0750705516533435
  0
VERTEX
  5
401
  8
PROFILE
 10
34.57757315607839
 20
78.61022436447219
 30
0.0
 42
-0.3148380592951466
  0
VERTEX
  5
402
  8
PROFILE
 10
34.47499999999999
 20
78.52499999999998
 30
0.0
 42
-0.0208160880107125
  0
VERTEX
  5
403
  8
PROFILE
 10
34.42752435706121
 20
78.52302262886265
 30
0.0
 42
-0.0048816943389875
  0
VERTEX
  5
404
  8
PROFILE
 10
34.22499999999998
 20
78.52499999999995
 30
0.0
 42
-0.0015086857000675
  0
VERTEX
  5
405
  8
PROFILE
 10
34.23005118776314
 20
77.9629577463096
 30
0.0
 42
-0.3396909933285173
  0
VERTEX
  5
406
  8
PROFILE
 10
34.10378475607391
 20
77.7965010564973
 30
0.0
 42
-0.183526460728579
  0
VERTEX
  5
407
  8
PROFILE
 10
33.89755158757288
 20
77.8163799037606
 30
0.0
 42
-0.2728818496743384
  0
VERTEX
  5
408
  8
PROFILE
 10
33.81830801540926
 20
77.93762261667767
 30
0.0
 42
-0.0205795019554899
  0
VERTEX
  5
409
  8
PROFILE
 10
33.81685311050389
 20
78.2313660049121
 30
0.0
 42
0.004231186958608
  0
VERTEX
  5
40A
  8
PROFILE
 10
33.82499999999995
 20
78.52499999999999
 30
0.0
 42
0.001464620774053
  0
VERTEX
  5
40B
  8
PROFILE
 10
33.59484118866728
 20
78.5157046049194
 30
0.0
 42
-0.417457910292139
  0
VERTEX
  5
40C
  8
PROFILE
 10
33.44999999999995
 20
78.64999999999998
 30
0.0
 42
-0.0750705516533872
  0
VERTEX
  5
40D
  8
PROFILE
 10
33.47242684392155
 20
78.8397756355278
 30
0.0
 42
-0.3148380592952787
  0
VERTEX
  5
40E
  8
PROFILE
 10
33.57499999999996
 20
78.92499999999998
 30
0.0
 42
-0.0208160880108281
  0
VERTEX
  5
40F
  8
PROFILE
 10
33.6224756429385
 20
78.92697737113728
 30
0.0
 42
-0.0048816943388415
  0
VERTEX
  5
410
  8
PROFILE
 10
33.82499999999997
 20
78.92499999999998
 30
0.0
  0
VERTEX
  5
411
  8
PROFILE
 10
33.825
 20
79.175
 30
0.0
  0
VERTEX
  5
412
  8
PROFILE
 10
23.275
 20
79.175
 30
0.0
  0
VERTEX
  5
413
  8
PROFILE
 10
23.275
 20
75.62499999999999
 30
0.0
  0
VERTEX
  5
414
  8
PROFILE
 10
23.525
 20
75.62499999999999
 30
0.0
 42
0.001464620774008
  0
VERTEX
  5
415
  8
PROFILE
 10
23.51570460491946
 20
75.85515881133266
 30
0.0
 42
-0.4174579102920264
  0
VERTEX
  5
416
  8
PROFILE
 10
23.65000000000002
 20
76.0
 30
0.0
 42
-0.0750705516534825
  0
VERTEX
  5
417
  8
PROFILE
 10
23.83977563552775
 20
75.97757315607842
 30
0.0
 42
-0.3148380592951887
  0
VERTEX
  5
418
  8
PROFILE
 10
23.92499999999998
 20
75.875
 30
0.0
 42
-0.020816088010946
  0
VERTEX
  5
419
  8
PROFILE
 10
23.92697737113731
 20
75.827524357061
 30
0.0
 42
-0.004881694338922
  0
VERTEX
  5
41A
  8
PROFILE
 10
23.92499999999999
 20
75.625
 30
0.0
 42
-0.0015086857000677
  0
VERTEX
  5
41B
  8
PROFILE
 10
24.48704225369037
 20
75.63005118776319
 30
0.0
 42
-0.3396909933285422
  0
VERTEX
  5
41C
  8
PROFILE
 10
24.65349894350269
 20
75.50378475607393
 30
0.0
 42
-0.1835264607286131
  0
VERTEX
  5
41D
  8
PROFILE
 10
24.63362009623936
 20
75.29755158757291
 30
0.0
 42
-0.2728818496742797
  0
VERTEX
  5
41E
  8
PROFILE
 10
24.51237738332228
 20
75.21830801540929
 30
0.0
 42
-0.0205795019554666
  0
VERTEX
  5
41F
  8
PROFILE
 10
24.21863399508786
 20
75.21685311050393
 30
0.0
 42
0.0042311869586322
  0
VERTEX
  5
420
  8
PROFILE
 10
23.925
 20
75.22500000000001
 30
0.0
 42
0.0014646207740361
  0
VERTEX
  5
421
  8
PROFILE
 10
23.93429539508056
 20
74.9948411886673
 30
0.0
 42
-0.4174579102920604
  0
VERTEX
  5
422
  8
PROFILE
 10
23.8
 20
74.84999999999995
 30
0.0
 42
-0.0750705516534088
  0
VERTEX
  5
423
  8
PROFILE
 10
23.61022436447226
 20
74.87242684392155
 30
0.0
 42
-0.3148380592950789
  0
VERTEX
  5
424
  8
PROFILE
 10
23.525
 20
74.97499999999997
 30
0.0
 42
-0.0208160880111139
  0
VERTEX
  5
425
  8
PROFILE
 10
23.52302262886266
 20
75.02247564293907
 30
0.0
 42
-0.0048816943389419
  0
VERTEX
  5
426
  8
PROFILE
 10
23.52500000000002
 20
75.225
 30
0.0
  0
VERTEX
  5
427
  8
PROFILE
 10
23.275
 20
75.22500000000005
 30
0.0
  0
VERTEX
  5
428
  8
PROFILE
 10
23.275
 20
71.67500000000001
 30
0.0
  0
VERTEX
  5
429
  8
PROFILE
 10
44.77500000000001
 20
71.675
 30
0.0
  0
VERTEX
  5
42A
  8
PROFILE
 10
44.77500000000002
 20
75.22500000000001
 30
0.0
  0
VERTEX
  5
42B
  8
PROFILE
 10
44.52500000000001
 20
75.22500000000001
 30
0.0
 42
0.001464620773995
  0
VERTEX
  5
42C
  8
PROFILE
 10
44.5342953950806
 20
74.99484118866732
 30
0.0
 42
-0.4174579102922272
  0
VERTEX
  5
42D
  8
PROFILE
 10
44.40000000000003
 20
74.85
 30
0.0
 42
-0.0750705516533049
  0
VERTEX
  5
42E
  8
PROFILE
 10
44.2102243644722
 20
74.87242684392163
 30
0.0
 42
-0.3148380592950744
  0
VERTEX
  5
42F
  8
PROFILE
 10
44.12500000000001
 20
74.97500000000001
 30
0.0
 42
-0.0208160880107343
  0
VERTEX
  5
430
  8
PROFILE
 10
44.12302262886268
 20
75.02247564293916
 30
0.0
 42
-0.0048816943389605
  0
VERTEX
  5
431
  8
PROFILE
 10
44.125
 20
75.22500000000001
 30
0.0
 42
-0.0015086857000423
  0
VERTEX
  5
432
  8
PROFILE
 10
43.56295774630961
 20
75.21994881223681
 30
0.0
 42
-0.3396909933284737
  0
VERTEX
  5
433
  8
PROFILE
 10
43.39650105649731
 20
75.34621524392605
 30
0.0
 42
-0.1835264607285838
  0
VERTEX
  5
434
  8
PROFILE
 10
43.41637990376063
 20
75.55244841242707
 30
0.0
 42
-0.2728818496743099
  0
VERTEX
  5
435
  8
PROFILE
 10
43.53762261667769
 20
75.63169198459069
 30
0.0
 42
-0.0205795019554659
  0
VERTEX
  5
436
  8
PROFILE
 10
43.83136600491213
 20
75.63314688949605
 30
0.0
 42
0.0042311869585827
  0
VERTEX
  5
437
  8
PROFILE
 10
44.125
 20
75.62499999999999
 30
0.0
 42
0.0014646207739309
  0
VERTEX
  5
438
  8
PROFILE
 10
44.1157046049194
 20
75.85515881133266
 30
0.0
 42
-0.4174579102922068
  0
VERTEX
  5
439
  8
PROFILE
 10
44.24999999999999
 20
75.99999999999999
 30
0.0
 42
-0.0750705516532847
  0
VERTEX
  5
43A
  8
PROFILE
 10
44.43977563552784
 20
75.97757315607838
 30
0.0
 42
-0.3148380592951802
  0
VERTEX
  5
43B
  8
PROFILE
 10
44.52500000000002
 20
75.875
 30
0.0
 42
-0.0208160880108092
  0
VERTEX
  5
43C
  8
PROFILE
 10
44.52697737113734
 20
75.82752435706108
 30
0.0
 42
-0.0048816943389563
  0
VERTEX
  5
43D
  8
PROFILE
 10
44.52500000000001
 20
75.625
 30
0.0
  0
VERTEX
  5
43E
  8
PROFILE
 10
44.77500000000001
 20
75.62499999999999
 30
0.0
  0
SEQEND
  5
604
  8
PROFILE
  0
POLYLINE
  5
82
  8
PROFILE
 66
     1
 10
0.0
 20
0.0
 30
0.0
 70
     1
  0
VERTEX
  5
43F
  8
PROFILE
 10
41.71930237619844
 20
75.49949736473214
 30
0.0
 42
-0.0650556995090757
  0
VERTEX
  5
440
  8
PROFILE
 10
41.77095077451123
 20
75.23216374667153
 30
0.0
 42
-0.0234572857489187
  0
VERTEX
  5
441
  8
PROFILE
 10
41.78149297348553
 20
74.47988149869713
 30
0.0
 42
-0.0269920108752894
  0
VERTEX
  5
442
  8
PROFILE
 10
41.74041253589478
 20
74.00814433319705
 30
0.0
 42
-0.1527943783006439
  0
VERTEX
  5
443
  8
PROFILE
 10
41.49923619297495
 20
73.50122917182875
 30
0.0
 42
-0.100397744878587
  0
VERTEX
  5
444
  8
PROFILE
 10
41.17715404180259
 20
73.26965926267182
 30
0.0
 42
-0.0963222429578968
  0
VERTEX
  5
445
  8
PROFILE
 10
40.77500000000001
 20
73.17500000000001
 30
0.0
  0
VERTEX
  5
446
  8
PROFILE
 10
27.275
 20
73.17500000000001
 30
0.0
 42
-0.1808908701969466
  0
VERTEX
  5
447
  8
PROFILE
 10
26.59096377053399
 20
73.48199599390324
 30
0.0
 42
-0.1807332470333246
  0
VERTEX
  5
448
  8
PROFILE
 10
26.27581948106875
 20
74.16299157927138
 30
0.0
 42
-0.0240592148283522
  0
VERTEX
  5
449
  8
PROFILE
 10
26.26002438850284
 20
74.73291728640488
 30
0.0
 42
-0.0237510084319305
  0
VERTEX
  5
44A
  8
PROFILE
 10
26.29920599373549
 20
75.30912120689155
 30
0.0
 42
-0.212898047579241
  0
VERTEX
  5
44B
  8
PROFILE
 10
26.68918502205041
 20
75.96726263935882
 30
0.0
 42
-0.1386611961410427
  0
VERTEX
  5
44C
  8
PROFILE
 10
27.275
 20
76.17500000000001
 30
0.0
  0
VERTEX
  5
44D
  8
PROFILE
 10
40.77500000000001
 20
76.17500000000001
 30
0.0
 42
-0.140850552662622
  0
VERTEX
  5
44E
  8
PROFILE
 10
41.37946026741818
 20
75.96043789621442
 30
0.0
 42
-0.1585770322281178
  0
SEQEND
  5
605
  8
PROFILE
  0
POLYLINE
  5
83
  8
PROFILE
 66
     1
 10
0.0
 20
0.0
 30
0.0
 70
     1
  0
VERTEX
  5
44F
  8
PROFILE
 10
44.77500000000002
 20
70.77500000000002
 30
0.0
  0
VERTEX
  5
450
  8
PROFILE
 10
34.22500000000001
 20
70.77500000000003
 30
0.0
  0
VERTEX
  5
451
  8
PROFILE
 10
34.22499999999997
 20
70.525
 30
0.0
 42
0.00146462077399
  0
VERTEX
  5
452
  8
PROFILE
 10
34.45515881133265
 20
70.5342953950806
 30
0.0
 42
-0.4174579102922439
  0
VERTEX
  5
453
  8
PROFILE
 10
34.60000000000001
 20
70.4
 30
0.0
 42
-0.0750705516533435
  0
VERTEX
  5
454
  8
PROFILE
 10
34.57757315607839
 20
70.21022436447221
 30
0.0
 42
-0.3148380592951466
  0
VERTEX
  5
455
  8
PROFILE
 10
34.47499999999999
 20
70.125
 30
0.0
 42
-0.0208160880107125
  0
VERTEX
  5
456
  8
PROFILE
 10
34.42752435706121
 20
70.12302262886267
 30
0.0
 42
-0.0048816943389875
  0
VERTEX
  5
457
  8
PROFILE
 10
34.22499999999998
 20
70.12499999999997
 30
0.0
 42
-0.0015086857000675
  0
VERTEX
  5
458
  8
PROFILE
 10
34.23005118776314
 20
69.56295774630962
 30
0.0
 42
-0.3396909933285173
  0
VERTEX
  5
459
  8
PROFILE
 10
34.10378475607391
 20
69.39650105649733
 30
0.0
 42
-0.183526460728579
  0
VERTEX
  5
45A
  8
PROFILE
 10
33.89755158757288
 20
69.41637990376063
 30
0.0
 42
-0.2728818496743384
  0
VERTEX
  5
45B
  8
PROFILE
 10
33.81830801540926
 20
69.5376226166777
 30
0.0
 42
-0.0205795019554899
  0
VERTEX
  5
45C
  8
PROFILE
 10
33.81685311050389
 20
69.83136600491213
 30
0.0
 42
0.004231186958608
  0
VERTEX
  5
45D
  8
PROFILE
 10
33.82499999999995
 20
70.12500000000001
 30
0.0
 42
0.001464620774053
  0
VERTEX
  5
45E
  8
PROFILE
 10
33.59484118866728
 20
70.11570460491943
 30
0.0
 42
-0.417457910292139
  0
VERTEX
  5
45F
  8
PROFILE
 10
33.44999999999995
 20
70.25
 30
0.0
 42
-0.0750705516533872
  0
VERTEX
  5
460
  8
PROFILE
 10
33.47242684392155
 20
70.43977563552782
 30
0.0
 42
-0.3148380592952787
  0
VERTEX
  5
461
  8
PROFILE
 10
33.57499999999996
 20
70.525
 30
0.0
 42
-0.0208160880108281
  0
VERTEX
  5
462
  8
PROFILE
 10
33.6224756429385
 20
70.5269773711373
 30
0.0
 42
-0.0048816943388415
  0
VERTEX
  5
463
  8
PROFILE
 10
33.82499999999997
 20
70.525
 30
0.0
  0
VERTEX
  5
464
  8
PROFILE
 10
33.825
 20
70.77500000000002
 30
0.0
  0
VERTEX
  5
465
  8
PROFILE
 10
23.275
 20
70.77500000000002
 30
0.0
  0
VERTEX
  5
466
  8
PROFILE
 10
23.275
 20
67.22500000000001
 30
0.0
  0
VERTEX
  5
467
  8
PROFILE
 10
23.525
 20
67.22500000000001
 30
0.0
 42
0.001464620774008
  0
VERTEX
  5
468
  8
PROFILE
 10
23.51570460491946
 20
67.45515881133268
 30
0.0
 42
-0.4174579102920264
  0
VERTEX
  5
469
  8
PROFILE
 10
23.65000000000002
 20
67.60000000000002
 30
0.0
 42
-0.0750705516534825
  0
VERTEX
  5
46A
  8
PROFILE
 10
23.83977563552775
 20
67.57757315607844
 30
0.0
 42
-0.3148380592951887
  0
VERTEX
  5
46B
  8
PROFILE
 10
23.92499999999998
 20
67.47500000000002
 30
0.0
 42
-0.020816088010946
  0
VERTEX
  5
46C
  8
PROFILE
 10
23.92697737113731
 20
67.42752435706102
 30
0.0
 42
-0.004881694338922
  0
VERTEX
  5
46D
  8
PROFILE
 10
23.92499999999999
 20
67.22500000000002
 30
0.0
 42
-0.0015086857000677
  0
VERTEX
  5
46E
  8
PROFILE
 10
24.48704225369037
 20
67.23005118776321
 30
0.0
 42
-0.3396909933285422
  0
VERTEX
  5
46F
  8
PROFILE
 10
24.65349894350269
 20
67.10378475607395
 30
0.0
 42
-0.1835264607286131
  0
VERTEX
  5
470
  8
PROFILE
 10
24.63362009623936
 20
66.89755158757293
 30
0.0
 42
-0.2728818496742797
  0
VERTEX
  5
471
  8
PROFILE
 10
24.51237738332228
 20
66.81830801540931
 30
0.0
 42
-0.0205795019554666
  0
VERTEX
  5
472
  8
PROFILE
 10
24.21863399508786
 20
66.81685311050396
 30
0.0
 42
0.0042311869586322
  0
VERTEX
  5
473
  8
PROFILE
 10
23.925
 20
66.82500000000003
 30
0.0
 42
0.0014646207740361
  0
VERTEX
  5
474
  8
PROFILE
 10
23.93429539508056
 20
66.59484118866732
 30
0.0
 42
-0.4174579102920604
  0
VERTEX
  5
475
  8
PROFILE
 10
23.8
 20
66.44999999999997
 30
0.0
 42
-0.0750705516534088
  0
VERTEX
  5
476
  8
PROFILE
 10
23.61022436447226
 20
66.47242684392157
 30
0.0
 42
-0.3148380592950789
  0
VERTEX
  5
477
  8
PROFILE
 10
23.525
 20
66.57499999999999
 30
0.0
 42
-0.0208160880111139
  0
VERTEX
  5
478
  8
PROFILE
 10
23.52302262886266
 20
66.6224756429391
 30
0.0
 42
-0.0048816943389419
  0
VERTEX
  5
479
  8
PROFILE
 10
23.52500000000002
 20
66.82500000000002
 30
0.0
  0
VERTEX
  5
47A
  8
PROFILE
 10
23.275
 20
66.82500000000007
 30
0.0
  0
VERTEX
  5
47B
  8
PROFILE
 10
23.275
 20
63.27500000000003
 30
0.0
  0
VERTEX
  5
47C
  8
PROFILE
 10
44.77500000000001
 20
63.27500000000002
 30
0.0
  0
VERTEX
  5
47D
  8
PROFILE
 10
44.77500000000002
 20
66.82500000000003
 30
0.0
  0
VERTEX
  5
47E
  8
PROFILE
 10
44.52500000000001
 20
66.82500000000003
 30
0.0
 42
0.001464620773995
  0
VERTEX
  5
47F
  8
PROFILE
 10
44.5342953950806
 20
66.59484118866735
 30
0.0
 42
-0.4174579102922272
  0
VERTEX
  5
480
  8
PROFILE
 10
44.40000000000003
 20
66.45000000000002
 30
0.0
 42
-0.0750705516533049
  0
VERTEX
  5
481
  8
PROFILE
 10
44.2102243644722
 20
66.47242684392165
 30
0.0
 42
-0.3148380592950744
  0
VERTEX
  5
482
  8
PROFILE
 10
44.12500000000001
 20
66.57500000000003
 30
0.0
 42
-0.0208160880107343
  0
VERTEX
  5
483
  8
PROFILE
 10
44.12302262886268
 20
66.62247564293918
 30
0.0
 42
-0.0048816943389605
  0
VERTEX
  5
484
  8
PROFILE
 10
44.125
 20
66.82500000000003
 30
0.0
 42
-0.0015086857000423
  0
VERTEX
  5
485
  8
PROFILE
 10
43.56295774630961
 20
66.81994881223683
 30
0.0
 42
-0.3396909933284737
  0
VERTEX
  5
486
  8
PROFILE
 10
43.39650105649731
 20
66.94621524392608
 30
0.0
 42
-0.1835264607285838
  0
VERTEX
  5
487
  8
PROFILE
 10
43.41637990376063
 20
67.15244841242709
 30
0.0
 42
-0.2728818496743099
  0
VERTEX
  5
488
  8
PROFILE
 10
43.53762261667769
 20
67.23169198459071
 30
0.0
 42
-0.0205795019554659
  0
VERTEX
  5
489
  8
PROFILE
 10
43.83136600491213
 20
67.23314688949607
 30
0.0
 42
0.0042311869585827
  0
VERTEX
  5
48A
  8
PROFILE
 10
44.125
 20
67.22500000000001
 30
0.0
 42
0.0014646207739309
  0
VERTEX
  5
48B
  8
PROFILE
 10
44.1157046049194
 20
67.45515881133268
 30
0.0
 42
-0.4174579102922068
  0
VERTEX
  5
48C
  8
PROFILE
 10
44.24999999999999
 20
67.60000000000001
 30
0.0
 42
-0.0750705516532847
  0
VERTEX
  5
48D
  8
PROFILE
 10
44.43977563552784
 20
67.5775731560784
 30
0.0
 42
-0.3148380592951802
  0
VERTEX
  5
48E
  8
PROFILE
 10
44.52500000000002
 20
67.47500000000002
 30
0.0
 42
-0.0208160880108092
  0
VERTEX
  5
48F
  8
PROFILE
 10
44.52697737113734
 20
67.4275243570611
 30
0.0
 42
-0.0048816943389563
  0
VERTEX
  5
490
  8
PROFILE
 10
44.52500000000001
 20
67.22500000000002
 30
0.0
  0
VERTEX
  5
491
  8
PROFILE
 10
44.77500000000001
 20
67.22500000000001
 30
0.0
  0
SEQEND
  5
606
  8
PROFILE
  0
POLYLINE
  5
84
  8
PROFILE
 66
     1
 10
0.0
 20
0.0
 30
0.0
 70
     1
  0
VERTEX
  5
492
  8
PROFILE
 10
41.71930237619844
 20
67.09949736473216
 30
0.0
 42
-0.0650556995090757
  0
VERTEX
  5
493
  8
PROFILE
 10
41.77095077451123
 20
66.83216374667155
 30
0.0
 42
-0.0234572857489187
  0
VERTEX
  5
494
  8
PROFILE
 10
41.78149297348553
 20
66.07988149869715
 30
0.0
 42
-0.0269920108752894
  0
VERTEX
  5
495
  8
PROFILE
 10
41.74041253589478
 20
65.60814433319707
 30
0.0
 42
-0.1527943783006439
  0
VERTEX
  5
496
  8
PROFILE
 10
41.49923619297495
 20
65.10122917182878
 30
0.0
 42
-0.100397744878587
  0
VERTEX
  5
497
  8
PROFILE
 10
41.17715404180259
 20
64.86965926267185
 30
0.0
 42
-0.0963222429578968
  0
VERTEX
  5
498
  8
PROFILE
 10
40.77500000000001
 20
64.77500000000003
 30
0.0
  0
VERTEX
  5
499
  8
PROFILE
 10
27.275
 20
64.77500000000003
 30
0.0
 42
-0.1808908701969466
  0
VERTEX
  5
49A
  8
PROFILE
 10
26.59096377053399
 20
65.08199599390326
 30
0.0
 42
-0.1807332470333246
  0
VERTEX
  5
49B
  8
PROFILE
 10
26.27581948106875
 20
65.7629915792714
 30
0.0
 42
-0.0240592148283522
  0
VERTEX
  5
49C
  8
PROFILE
 10
26.26002438850284
 20
66.3329172864049
 30
0.0
 42
-0.0237510084319305
  0
VERTEX
  5
49D
  8
PROFILE
 10
26.29920599373549
 20
66.90912120689157
 30
0.0
 42
-0.212898047579241
  0
VERTEX
  5
49E
  8
PROFILE
 10
26.68918502205041
 20
67.56726263935884
 30
0.0
 42
-0.1386611961410427
  0
VERTEX
  5
49F
  8
PROFILE
 10
27.275
 20
67.77500000000003
 30
0.0
  0
VERTEX
  5
4A0
  8
PROFILE
 10
40.77500000000001
 20
67.77500000000003
 30
0.0
 42
-0.140850552662622
  0
VERTEX
  5
4A1
  8
PROFILE
 10
41.37946026741818
 20
67.56043789621444
 30
0.0
 42
-0.1585770322281178
  0
SEQEND
  5
607
  8
PROFILE
  0
POLYLINE
  5
85
  8
PROFILE
 66
     1
 10
0.0
 20
0.0
 30
0.0
 70
     1
  0
VERTEX
  5
4A2
  8
PROFILE
 10
2.875
 20
26.3
 30
0.0
 42
0.4142135623730951
  0
VERTEX
  5
4A3
  8
PROFILE
 10
2.25
 20
25.675
 30
0.0
 42
0.4142135623730951
  0
VERTEX
  5
4A4
  8
PROFILE
 10
2.875
 20
25.05
 30
0.0
 42
0.4142135623730951
  0
VERTEX
  5
4A5
  8
PROFILE
 10
3.5
 20
25.675
 30
0.0
 42
0.4142135623730951
  0
SEQEND
  5
608
  8
PROFILE
  0
POLYLINE
  5
86
  8
PROFILE
 66
     1
 10
0.0
 20
0.0
 30
0.0
 70
     1
  0
VERTEX
  5
4A6
  8
PROFILE
 10
8.125
 20
26.3
 30
0.0
 42
0.4142135623730951
  0
VERTEX
  5
4A7
  8
PROFILE
 10
7.5
 20
25.675
 30
0.0
 42
0.4142135623730951
  0
VERTEX
  5
4A8
  8
PROFILE
 10
8.125
 20
25.05
 30
0.0
 42
0.4142135623730951
  0
VERTEX
  5
4A9
  8
PROFILE
 10
8.75
 20
25.675
 30
0.0
 42
0.4142135623730951
  0
SEQEND
  5
609
  8
PROFILE
  0
POLYLINE
  5
87
  8
PROFILE
 66
     1
 10
0.0
 20
0.0
 30
0.0
 70
     1
  0
VERTEX
  5
4AA
  8
PROFILE
 10
13.375
 20
26.3
 30
0.0
 42
0.4142135623730951
  0
VERTEX
  5
4AB
  8
PROFILE
 10
12.75
 20
25.675
 30
0.0
 42
0.4142135623730951
  0
VERTEX
  5
4AC
  8
PROFILE
 10
13.375
 20
25.05
 30
0.0
 42
0.4142135623730951
  0
VERTEX
  5
4AD
  8
PROFILE
 10
14.0
 20
25.675
 30
0.0
 42
0.4142135623730951
  0
SEQEND
  5
60A
  8
PROFILE
  0
POLYLINE
  5
88
  8
PROFILE
 66
     1
 10
0.0
 20
0.0
 30
0.0
 70
     1
  0
VERTEX
  5
4AE
  8
PROFILE
 10
13.375
 20
32.3
 30
0.0
 42
0.4142135623730951
  0
VERTEX
  5
4AF
  8
PROFILE
 10
12.75
 20
31.675
 30
0.0
 42
0.4142135623730951
  0
VERTEX
  5
4B0
  8
PROFILE
 10
13.375
 20
31.05
 30
0.0
 42
0.4142135623730951
  0
VERTEX
  5
4B1
  8
PROFILE
 10
14.0
 20
31.675
 30
0.0
 42
0.4142135623730951
  0
SEQEND
  5
60B
  8
PROFILE
  0
POLYLINE
  5
89
  8
PROFILE
 66
     1
 10
0.0
 20
0.0
 30
0.0
 70
     1
  0
VERTEX
  5
4B2
  8
PROFILE
 10
8.125
 20
32.3
 30
0.0
 42
0.4142135623730951
  0
VERTEX
  5
4B3
  8
PROFILE
 10
7.5
 20
31.675
 30
0.0
 42
0.4142135623730951
  0
VERTEX
  5
4B4
  8
PROFILE
 10
8.125
 20
31.05
 30
0.0
 42
0.4142135623730951
  0
VERTEX
  5
4B5
  8
PROFILE
 10
8.75
 20
31.675
 30
0.0
 42
0.4142135623730951
  0
SEQEND
  5
60C
  8
PROFILE
  0
POLYLINE
  5
8A
  8
PROFILE
 66
     1
 10
0.0
 20
0.0
 30
0.0
 70
     1
  0
VERTEX
  5
4B6
  8
PROFILE
 10
2.875
 20
32.3
 30
0.0
 42
0.4142135623730951
  0
VERTEX
  5
4B7
  8
PROFILE
 10
2.25
 20
31.675
 30
0.0
 42
0.4142135623730951
  0
VERTEX
  5
4B8
  8
PROFILE
 10
2.875
 20
31.05
 30
0.0
 42
0.4142135623730951
  0
VERTEX
  5
4B9
  8
PROFILE
 10
3.5
 20
31.675
 30
0.0
 42
0.4142135623730951
  0
SEQEND
  5
60D
  8
PROFILE
  0
POLYLINE
  5
8B
  8
PROFILE
 66
     1
 10
0.0
 20
0.0
 30
0.0
 70
     1
  0
VERTEX
  5
4BA
  8
PROFILE
 10
2.875
 20
38.3
 30
0.0
 42
0.4142135623730951
  0
VERTEX
  5
4BB
  8
PROFILE
 10
2.25
 20
37.675
 30
0.0
 42
0.4142135623730951
  0
VERTEX
  5
4BC
  8
PROFILE
 10
2.875
 20
37.05
 30
0.0
 42
0.4142135623730951
  0
VERTEX
  5
4BD
  8
PROFILE
 10
3.5
 20
37.675
 30
0.0
 42
0.4142135623730951
  0
SEQEND
  5
60E
  8
PROFILE
  0
POLYLINE
  5
8C
  8
PROFILE
 66
     1
 10
0.0
 20
0.0
 30
0.0
 70
     1
  0
VERTEX
  5
4BE
  8
PROFILE
 10
8.125
 20
38.3
 30
0.0
 42
0.4142135623730951
  0
VERTEX
  5
4BF
  8
PROFILE
 10
7.5
 20
37.675
 30
0.0
 42
0.4142135623730951
  0
VERTEX
  5
4C0
  8
PROFILE
 10
8.125
 20
37.05
 30
0.0
 42
0.4142135623730951
  0
VERTEX
  5
4C1
  8
PROFILE
 10
8.75
 20
37.675
 30
0.0
 42
0.4142135623730951
  0
SEQEND
  5
60F
  8
PROFILE
  0
POLYLINE
  5
8D
  8
PROFILE
 66
     1
 10
0.0
 20
0.0
 30
0.0
 70
     1
  0
VERTEX
  5
4C2
  8
PROFILE
 10
13.375
 20
38.3
 30
0.0
 42
0.4142135623730951
  0
VERTEX
  5
4C3
  8
PROFILE
 10
12.75
 20
37.675
 30
0.0
 42
0.4142135623730951
  0
VERTEX
  5
4C4
  8
PROFILE
 10
13.375
 20
37.05
 30
0.0
 42
0.4142135623730951
  0
VERTEX
  5
4C5
  8
PROFILE
 10
14.0
 20
37.675
 30
0.0
 42
0.4142135623730951
  0
SEQEND
  5
610
  8
PROFILE
  0
POLYLINE
  5
8E
  8
PROFILE
 66
     1
 10
0.0
 20
0.0
 30
0.0
 70
     1
  0
VERTEX
  5
4C6
  8
PROFILE
 10
13.375
 20
44.3
 30
0.0
 42
0.4142135623730951
  0
VERTEX
  5
4C7
  8
PROFILE
 10
12.75
 20
43.675
 30
0.0
 42
0.4142135623730951
  0
VERTEX
  5
4C8
  8
PROFILE
 10
13.375
 20
43.05
 30
0.0
 42
0.4142135623730951
  0
VERTEX
  5
4C9
  8
PROFILE
 10
14.0
 20
43.675
 30
0.0
 42
0.4142135623730951
  0
SEQEND
  5
611
  8
PROFILE
  0
POLYLINE
  5
8F
  8
PROFILE
 66
     1
 10
0.0
 20
0.0
 30
0.0
 70
     1
  0
VERTEX
  5
4CA
  8
PROFILE
 10
8.125
 20
44.3
 30
0.0
 42
0.4142135623730951
  0
VERTEX
  5
4CB
  8
PROFILE
 10
7.5
 20
43.675
 30
0.0
 42
0.4142135623730951
  0
VERTEX
  5
4CC
  8
PROFILE
 10
8.125
 20
43.05
 30
0.0
 42
0.4142135623730951
  0
VERTEX
  5
4CD
  8
PROFILE
 10
8.75
 20
43.675
 30
0.0
 42
0.4142135623730951
  0
SEQEND
  5
612
  8
PROFILE
  0
POLYLINE
  5
90
  8
PROFILE
 66
     1
 10
0.0
 20
0.0
 30
0.0
 70
     1
  0
VERTEX
  5
4CE
  8
PROFILE
 10
2.875
 20
44.3
 30
0.0
 42
0.4142135623730951
  0
VERTEX
  5
4CF
  8
PROFILE
 10
2.25
 20
43.675
 30
0.0
 42
0.4142135623730951
  0
VERTEX
  5
4D0
  8
PROFILE
 10
2.875
 20
43.05
 30
0.0
 42
0.4142135623730951
  0
VERTEX
  5
4D1
  8
PROFILE
 10
3.5
 20
43.675
 30
0.0
 42
0.4142135623730951
  0
SEQEND
  5
613
  8
PROFILE
  0
POLYLINE
  5
91
  8
PROFILE
 66
     1
 10
0.0
 20
0.0
 30
0.0
 70
     1
  0
VERTEX
  5
4D2
  8
PROFILE
 10
18.625
 20
26.3
 30
0.0
 42
0.4142135623730951
  0
VERTEX
  5
4D3
  8
PROFILE
 10
18.0
 20
25.675
 30
0.0
 42
0.4142135623730951
  0
VERTEX
  5
4D4
  8
PROFILE
 10
18.625
 20
25.05
 30
0.0
 42
0.4142135623730951
  0
VERTEX
  5
4D5
  8
PROFILE
 10
19.25
 20
25.675
 30
0.0
 42
0.4142135623730951
  0
SEQEND
  5
614
  8
PROFILE
  0
POLYLINE
  5
92
  8
PROFILE
 66
     1
 10
0.0
 20
0.0
 30
0.0
 70
     1
  0
VERTEX
  5
4D6
  8
PROFILE
 10
23.875
 20
26.3
 30
0.0
 42
0.4142135623730951
  0
VERTEX
  5
4D7
  8
PROFILE
 10
23.25
 20
25.675
 30
0.0
 42
0.4142135623730951
  0
VERTEX
  5
4D8
  8
PROFILE
 10
23.875
 20
25.05
 30
0.0
 42
0.4142135623730951
  0
VERTEX
  5
4D9
  8
PROFILE
 10
24.5
 20
25.675
 30
0.0
 42
0.4142135623730951
  0
SEQEND
  5
615
  8
PROFILE
  0
POLYLINE
  5
93
  8
PROFILE
 66
     1
 10
0.0
 20
0.0
 30
0.0
 70
     1
  0
VERTEX
  5
4DA
  8
PROFILE
 10
29.125
 20
26.3
 30
0.0
 42
0.4142135623730951
  0
VERTEX
  5
4DB
  8
PROFILE
 10
28.5
 20
25.675
 30
0.0
 42
0.4142135623730951
  0
VERTEX
  5
4DC
  8
PROFILE
 10
29.125
 20
25.05
 30
0.0
 42
0.4142135623730951
  0
VERTEX
  5
4DD
  8
PROFILE
 10
29.75
 20
25.675
 30
0.0
 42
0.4142135623730951
  0
SEQEND
  5
616
  8
PROFILE
  0
POLYLINE
  5
94
  8
PROFILE
 66
     1
 10
0.0
 20
0.0
 30
0.0
 70
     1
  0
VERTEX
  5
4DE
  8
PROFILE
 10
29.125
 20
32.3
 30
0.0
 42
0.4142135623730951
  0
VERTEX
  5
4DF
  8
PROFILE
 10
28.5
 20
31.675
 30
0.0
 42
0.4142135623730951
  0
VERTEX
  5
4E0
  8
PROFILE
 10
29.125
 20
31.05
 30
0.0
 42
0.4142135623730951
  0
VERTEX
  5
4E1
  8
PROFILE
 10
29.75
 20
31.675
 30
0.0
 42
0.4142135623730951
  0
SEQEND
  5
617
  8
PROFILE
  0
POLYLINE
  5
95
  8
PROFILE
 66
     1
 10
0.0
 20
0.0
 30
0.0
 70
     1
  0
VERTEX
  5
4E2
  8
PROFILE
 10
23.875
 20
32.3
 30
0.0
 42
0.4142135623730951
  0
VERTEX
  5
4E3
  8
PROFILE
 10
23.25
 20
31.675
 30
0.0
 42
0.4142135623730951
  0
VERTEX
  5
4E4
  8
PROFILE
 10
23.875
 20
31.05
 30
0.0
 42
0.4142135623730951
  0
VERTEX
  5
4E5
  8
PROFILE
 10
24.5
 20
31.675
 30
0.0
 42
0.4142135623730951
  0
SEQEND
  5
618
  8
PROFILE
  0
POLYLINE
  5
96
  8
PROFILE
 66
     1
 10
0.0
 20
0.0
 30
0.0
 70
     1
  0
VERTEX
  5
4E6
  8
PROFILE
 10
18.625
 20
32.3
 30
0.0
 42
0.4142135623730951
  0
VERTEX
  5
4E7
  8
PROFILE
 10
18.0
 20
31.675
 30
0.0
 42
0.4142135623730951
  0
VERTEX
  5
4E8
  8
PROFILE
 10
18.625
 20
31.05
 30
0.0
 42
0.4142135623730951
  0
VERTEX
  5
4E9
  8
PROFILE
 10
19.25
 20
31.675
 30
0.0
 42
0.4142135623730951
  0
SEQEND
  5
619
  8
PROFILE
  0
POLYLINE
  5
97
  8
PROFILE
 66
     1
 10
0.0
 20
0.0
 30
0.0
 70
     1
  0
VERTEX
  5
4EA
  8
PROFILE
 10
18.625
 20
38.3
 30
0.0
 42
0.4142135623730951
  0
VERTEX
  5
4EB
  8
PROFILE
 10
18.0
 20
37.675
 30
0.0
 42
0.4142135623730951
  0
VERTEX
  5
4EC
  8
PROFILE
 10
18.625
 20
37.05
 30
0.0
 42
0.4142135623730951
  0
VERTEX
  5
4ED
  8
PROFILE
 10
19.25
 20
37.675
 30
0.0
 42
0.4142135623730951
  0
SEQEND
  5
61A
  8
PROFILE
  0
POLYLINE
  5
98
  8
PROFILE
 66
     1
 10
0.0
 20
0.0
 30
0.0
 70
     1
  0
VERTEX
  5
4EE
  8
PROFILE
 10
23.875
 20
38.3
 30
0.0
 42
0.4142135623730951
  0
VERTEX
  5
4EF
  8
PROFILE
 10
23.25
 20
37.675
 30
0.0
 42
0.4142135623730951
  0
VERTEX
  5
4F0
  8
PROFILE
 10
23.875
 20
37.05
 30
0.0
 42
0.4142135623730951
  0
VERTEX
  5
4F1
  8
PROFILE
 10
24.5
 20
37.675
 30
0.0
 42
0.4142135623730951
  0
SEQEND
  5
61B
  8
PROFILE
  0
POLYLINE
  5
99
  8
PROFILE
 66
     1
 10
0.0
 20
0.0
 30
0.0
 70
     1
  0
VERTEX
  5
4F2
  8
PROFILE
 10
29.125
 20
38.3
 30
0.0
 42
0.4142135623730951
  0
VERTEX
  5
4F3
  8
PROFILE
 10
28.5
 20
37.675
 30
0.0
 42
0.4142135623730951
  0
VERTEX
  5
4F4
  8
PROFILE
 10
29.125
 20
37.05
 30
0.0
 42
0.4142135623730951
  0
VERTEX
  5
4F5
  8
PROFILE
 10
29.75
 20
37.675
 30
0.0
 42
0.4142135623730951
  0
SEQEND
  5
61C
  8
PROFILE
  0
POLYLINE
  5
9A
  8
PROFILE
 66
     1
 10
0.0
 20
0.0
 30
0.0
 70
     1
  0
VERTEX
  5
4F6
  8
PROFILE
 10
29.125
 20
44.3
 30
0.0
 42
0.4142135623730951
  0
VERTEX
  5
4F7
  8
PROFILE
 10
28.5
 20
43.675
 30
0.0
 42
0.4142135623730951
  0
VERTEX
  5
4F8
  8
PROFILE
 10
29.125
 20
43.05
 30
0.0
 42
0.4142135623730951
  0
VERTEX
  5
4F9
  8
PROFILE
 10
29.75
 20
43.675
 30
0.0
 42
0.4142135623730951
  0
SEQEND
  5
61D
  8
PROFILE
  0
POLYLINE
  5
9B
  8
PROFILE
 66
     1
 10
0.0
 20
0.0
 30
0.0
 70
     1
  0
VERTEX
  5
4FA
  8
PROFILE
 10
23.875
 20
44.3
 30
0.0
 42
0.4142135623730951
  0
VERTEX
  5
4FB
  8
PROFILE
 10
23.25
 20
43.675
 30
0.0
 42
0.4142135623730951
  0
VERTEX
  5
4FC
  8
PROFILE
 10
23.875
 20
43.05
 30
0.0
 42
0.4142135623730951
  0
VERTEX
  5
4FD
  8
PROFILE
 10
24.5
 20
43.675
 30
0.0
 42
0.4142135623730951
  0
SEQEND
  5
61E
  8
PROFILE
  0
POLYLINE
  5
9C
  8
PROFILE
 66
     1
 10
0.0
 20
0.0
 30
0.0
 70
     1
  0
VERTEX
  5
4FE
  8
PROFILE
 10
18.625
 20
44.3
 30
0.0
 42
0.4142135623730951
  0
VERTEX
  5
4FF
  8
PROFILE
 10
18.0
 20
43.675
 30
0.0
 42
0.4142135623730951
  0
VERTEX
  5
500
  8
PROFILE
 10
18.625
 20
43.05
 30
0.0
 42
0.4142135623730951
  0
VERTEX
  5
501
  8
PROFILE
 10
19.25
 20
43.675
 30
0.0
 42
0.4142135623730951
  0
SEQEND
  5
61F
  8
PROFILE
  0
POLYLINE
  5
9D
  8
PROFILE
 66
     1
 10
0.0
 20
0.0
 30
0.0
 70
     1
  0
VERTEX
  5
502
  8
PROFILE
 10
34.375
 20
26.3
 30
0.0
 42
0.4142135623730951
  0
VERTEX
  5
503
  8
PROFILE
 10
33.75
 20
25.675
 30
0.0
 42
0.4142135623730951
  0
VERTEX
  5
504
  8
PROFILE
 10
34.375
 20
25.05
 30
0.0
 42
0.4142135623730951
  0
VERTEX
  5
505
  8
PROFILE
 10
35.0
 20
25.675
 30
0.0
 42
0.4142135623730951
  0
SEQEND
  5
620
  8
PROFILE
  0
POLYLINE
  5
9E
  8
PROFILE
 66
     1
 10
0.0
 20
0.0
 30
0.0
 70
     1
  0
VERTEX
  5
506
  8
PROFILE
 10
39.625
 20
26.3
 30
0.0
 42
0.4142135623730951
  0
VERTEX
  5
507
  8
PROFILE
 10
39.0
 20
25.675
 30
0.0
 42
0.4142135623730951
  0
VERTEX
  5
508
  8
PROFILE
 10
39.625
 20
25.05
 30
0.0
 42
0.4142135623730951
  0
VERTEX
  5
509
  8
PROFILE
 10
40.25
 20
25.675
 30
0.0
 42
0.4142135623730951
  0
SEQEND
  5
621
  8
PROFILE
  0
POLYLINE
  5
9F
  8
PROFILE
 66
     1
 10
0.0
 20
0.0
 30
0.0
 70
     1
  0
VERTEX
  5
50A
  8
PROFILE
 10
44.875
 20
26.3
 30
0.0
 42
0.4142135623730951
  0
VERTEX
  5
50B
  8
PROFILE
 10
44.25
 20
25.675
 30
0.0
 42
0.4142135623730951
  0
VERTEX
  5
50C
  8
PROFILE
 10
44.875
 20
25.05
 30
0.0
 42
0.4142135623730951
  0
VERTEX
  5
50D
  8
PROFILE
 10
45.5
 20
25.675
 30
0.0
 42
0.4142135623730951
  0
SEQEND
  5
622
  8
PROFILE
  0
POLYLINE
  5
A0
  8
PROFILE
 66
     1
 10
0.0
 20
0.0
 30
0.0
 70
     1
  0
VERTEX
  5
50E
  8
PROFILE
 10
44.875
 20
32.3
 30
0.0
 42
0.4142135623730951
  0
VERTEX
  5
50F
  8
PROFILE
 10
44.25
 20
31.675
 30
0.0
 42
0.4142135623730951
  0
VERTEX
  5
510
  8
PROFILE
 10
44.875
 20
31.05
 30
0.0
 42
0.4142135623730951
  0
VERTEX
  5
511
  8
PROFILE
 10
45.5
 20
31.675
 30
0.0
 42
0.4142135623730951
  0
SEQEND
  5
623
  8
PROFILE
  0
POLYLINE
  5
A1
  8
PROFILE
 66
     1
 10
0.0
 20
0.0
 30
0.0
 70
     1
  0
VERTEX
  5
512
  8
PROFILE
 10
39.625
 20
32.3
 30
0.0
 42
0.4142135623730951
  0
VERTEX
  5
513
  8
PROFILE
 10
39.0
 20
31.675
 30
0.0
 42
0.4142135623730951
  0
VERTEX
  5
514
  8
PROFILE
 10
39.625
 20
31.05
 30
0.0
 42
0.4142135623730951
  0
VERTEX
  5
515
  8
PROFILE
 10
40.25
 20
31.675
 30
0.0
 42
0.4142135623730951
  0
SEQEND
  5
624
  8
PROFILE
  0
POLYLINE
  5
A2
  8
PROFILE
 66
     1
 10
0.0
 20
0.0
 30
0.0
 70
     1
  0
VERTEX
  5
516
  8
PROFILE
 10
34.375
 20
32.3
 30
0.0
 42
0.4142135623730951
  0
VERTEX
  5
517
  8
PROFILE
 10
33.75
 20
31.675
 30
0.0
 42
0.4142135623730951
  0
VERTEX
  5
518
  8
PROFILE
 10
34.375
 20
31.05
 30
0.0
 42
0.4142135623730951
  0
VERTEX
  5
519
  8
PROFILE
 10
35.0
 20
31.675
 30
0.0
 42
0.4142135623730951
  0
SEQEND
  5
625
  8
PROFILE
  0
POLYLINE
  5
A3
  8
PROFILE
 66
     1
 10
0.0
 20
0.0
 30
0.0
 70
     1
  0
VERTEX
  5
51A
  8
PROFILE
 10
34.375
 20
38.3
 30
0.0
 42
0.4142135623730951
  0
VERTEX
  5
51B
  8
PROFILE
 10
33.75
 20
37.675
 30
0.0
 42
0.4142135623730951
  0
VERTEX
  5
51C
  8
PROFILE
 10
34.375
 20
37.05
 30
0.0
 42
0.4142135623730951
  0
VERTEX
  5
51D
  8
PROFILE
 10
35.0
 20
37.675
 30
0.0
 42
0.4142135623730951
  0
SEQEND
  5
626
  8
PROFILE
  0
POLYLINE
  5
A4
  8
PROFILE
 66
     1
 10
0.0
 20
0.0
 30
0.0
 70
     1
  0
VERTEX
  5
51E
  8
PROFILE
 10
39.625
 20
38.3
 30
0.0
 42
0.4142135623730951
  0
VERTEX
  5
51F
  8
PROFILE
 10
39.0
 20
37.675
 30
0.0
 42
0.4142135623730951
  0
VERTEX
  5
520
  8
PROFILE
 10
39.625
 20
37.05
 30
0.0
 42
0.4142135623730951
  0
VERTEX
  5
521
  8
PROFILE
 10
40.25
 20
37.675
 30
0.0
 42
0.4142135623730951
  0
SEQEND
  5
627
  8
PROFILE
  0
POLYLINE
  5
A5
  8
PROFILE
 66
     1
 10
0.0
 20
0.0
 30
0.0
 70
     1
  0
VERTEX
  5
522
  8
PROFILE
 10
44.875
 20
38.3
 30
0.0
 42
0.4142135623730951
  0
VERTEX
  5
523
  8
PROFILE
 10
44.25
 20
37.675
 30
0.0
 42
0.4142135623730951
  0
VERTEX
  5
524
  8
PROFILE
 10
44.875
 20
37.05
 30
0.0
 42
0.4142135623730951
  0
VERTEX
  5
525
  8
PROFILE
 10
45.5
 20
37.675
 30
0.0
 42
0.4142135623730951
  0
SEQEND
  5
628
  8
PROFILE
  0
POLYLINE
  5
A6
  8
PROFILE
 66
     1
 10
0.0
 20
0.0
 30
0.0
 70
     1
  0
VERTEX
  5
526
  8
PROFILE
 10
44.875
 20
44.3
 30
0.0
 42
0.4142135623730951
  0
VERTEX
  5
527
  8
PROFILE
 10
44.25
 20
43.675
 30
0.0
 42
0.4142135623730951
  0
VERTEX
  5
528
  8
PROFILE
 10
44.875
 20
43.05
 30
0.0
 42
0.4142135623730951
  0
VERTEX
  5
529
  8
PROFILE
 10
45.5
 20
43.675
 30
0.0
 42
0.4142135623730951
  0
SEQEND
  5
629
  8
PROFILE
  0
POLYLINE
  5
A7
  8
PROFILE
 66
     1
 10
0.0
 20
0.0
 30
0.0
 70
     1
  0
VERTEX
  5
52A
  8
PROFILE
 10
39.625
 20
44.3
 30
0.0
 42
0.4142135623730951
  0
VERTEX
  5
52B
  8
PROFILE
 10
39.0
 20
43.675
 30
0.0
 42
0.4142135623730951
  0
VERTEX
  5
52C
  8
PROFILE
 10
39.625
 20
43.05
 30
0.0
 42
0.4142135623730951
  0
VERTEX
  5
52D
  8
PROFILE
 10
40.25
 20
43.675
 30
0.0
 42
0.4142135623730951
  0
SEQEND
  5
62A
  8
PROFILE
  0
POLYLINE
  5
A8
  8
PROFILE
 66
     1
 10
0.0
 20
0.0
 30
0.0
 70
     1
  0
VERTEX
  5
52E
  8
PROFILE
 10
34.375
 20
44.3
 30
0.0
 42
0.4142135623730951
  0
VERTEX
  5
52F
  8
PROFILE
 10
33.75
 20
43.675
 30
0.0
 42
0.4142135623730951
  0
VERTEX
  5
530
  8
PROFILE
 10
34.375
 20
43.05
 30
0.0
 42
0.4142135623730951
  0
VERTEX
  5
531
  8
PROFILE
 10
35.0
 20
43.675
 30
0.0
 42
0.4142135623730951
  0
SEQEND
  5
62B
  8
PROFILE
  0
POLYLINE
  5
A9
  8
PROFILE
 66
     1
 10
0.0
 20
0.0
 30
0.0
 70
     1
  0
VERTEX
  5
532
  8
PROFILE
 10
3.068930198063669
 20
86.38433526011559
 30
0.0
  0
VERTEX
  5
533
  8
PROFILE
 10
2.163450655778341
 20
86.38433526011559
 30
0.0
 42
0.4142135623738661
  0
VERTEX
  5
534
  8
PROFILE
 10
1.163450655778341
 20
85.38433526011559
 30
0.0
  0
VERTEX
  5
535
  8
PROFILE
 10
1.163450655778341
 20
84.47885714298249
 30
0.0
  0
VERTEX
  5
536
  8
PROFILE
 10
1.163450655778348
 20
81.78981343738712
 30
0.0
  0
VERTEX
  5
537
  8
PROFILE
 10
1.163450655778347
 20
80.8843352601156
 30
0.0
 42
0.4142135623736174
  0
VERTEX
  5
538
  8
PROFILE
 10
2.163450655778355
 20
79.8843352601156
 30
0.0
  0
VERTEX
  5
539
  8
PROFILE
 10
3.068929882783671
 20
79.8843352601156
 30
0.0
  0
VERTEX
  5
53A
  8
PROFILE
 10
12.92463840480237
 20
79.8843352601156
 30
0.0
  0
VERTEX
  5
53B
  8
PROFILE
 10
13.83011859401077
 20
79.8843352601156
 30
0.0
 42
0.4142135623732266
  0
VERTEX
  5
53C
  8
PROFILE
 10
14.83011859401077
 20
80.88433526011559
 30
0.0
  0
VERTEX
  5
53D
  8
PROFILE
 10
14.83011859401078
 20
81.78981343738712
 30
0.0
  0
VERTEX
  5
53E
  8
PROFILE
 10
14.83011859401078
 20
84.47885714298252
 30
0.0
  0
VERTEX
  5
53F
  8
PROFILE
 10
14.83011859401078
 20
85.3843352601156
 30
0.0
 42
0.4142135623738007
  0
VERTEX
  5
540
  8
PROFILE
 10
13.83011859401078
 20
86.3843352601156
 30
0.0
  0
VERTEX
  5
541
  8
PROFILE
 10
12.92463808952547
 20
86.3843352601156
 30
0.0
  0
SEQEND
  5
62C
  8
PROFILE
  0
POLYLINE
  5
AA
  8
PROFILE
 66
     1
 10
0.0
 20
0.0
 30
0.0
 70
     1
  0
VERTEX
  5
542
  8
PROFILE
 10
33.06893019806367
 20
86.38433526011559
 30
0.0
  0
VERTEX
  5
543
  8
PROFILE
 10
32.16345065577834
 20
86.38433526011559
 30
0.0
 42
0.4142135623738661
  0
VERTEX
  5
544
  8
PROFILE
 10
31.16345065577834
 20
85.38433526011559
 30
0.0
  0
VERTEX
  5
545
  8
PROFILE
 10
31.16345065577834
 20
84.47885714298249
 30
0.0
  0
VERTEX
  5
546
  8
PROFILE
 10
31.16345065577835
 20
81.78981343738712
 30
0.0
  0
VERTEX
  5
547
  8
PROFILE
 10
31.16345065577835
 20
80.8843352601156
 30
0.0
 42
0.4142135623736174
  0
VERTEX
  5
548
  8
PROFILE
 10
32.16345065577836
 20
79.8843352601156
 30
0.0
  0
VERTEX
  5
549
  8
PROFILE
 10
33.06892988278367
 20
79.8843352601156
 30
0.0
  0
VERTEX
  5
54A
  8
PROFILE
 10
42.92463840480237
 20
79.8843352601156
 30
0.0
  0
VERTEX
  5
54B
  8
PROFILE
 10
43.83011859401077
 20
79.8843352601156
 30
0.0
 42
0.4142135623732266
  0
VERTEX
  5
54C
  8
PROFILE
 10
44.83011859401077
 20
80.88433526011559
 30
0.0
  0
VERTEX
  5
54D
  8
PROFILE
 10
44.83011859401078
 20
81.78981343738712
 30
0.0
  0
VERTEX
  5
54E
  8
PROFILE
 10
44.83011859401078
 20
84.47885714298252
 30
0.0
  0
VERTEX
  5
54F
  8
PROFILE
 10
44.83011859401078
 20
85.3843352601156
 30
0.0
 42
0.4142135623738007
  0
VERTEX
  5
550
  8
PROFILE
 10
43.83011859401078
 20
86.3843352601156
 30
0.0
  0
VERTEX
  5
551
  8
PROFILE
 10
42.92463808952547
 20
86.3843352601156
 30
0.0
  0
SEQEND
  5
62D
  8
PROFILE
  0
POLYLINE
  5
AB
  8
PROFILE
 66
     1
 10
0.0
 20
0.0
 30
0.0
 70
     1
  0
VERTEX
  5
552
  8
PROFILE
 10
18.06893019806367
 20
86.38433526011559
 30
0.0
  0
VERTEX
  5
553
  8
PROFILE
 10
17.16345065577834
 20
86.38433526011559
 30
0.0
 42
0.4142135623738661
  0
VERTEX
  5
554
  8
PROFILE
 10
16.16345065577834
 20
85.38433526011559
 30
0.0
  0
VERTEX
  5
555
  8
PROFILE
 10
16.16345065577834
 20
84.47885714298249
 30
0.0
  0
VERTEX
  5
556
  8
PROFILE
 10
16.16345065577835
 20
81.78981343738712
 30
0.0
  0
VERTEX
  5
557
  8
PROFILE
 10
16.16345065577835
 20
80.8843352601156
 30
0.0
 42
0.4142135623736174
  0
VERTEX
  5
558
  8
PROFILE
 10
17.16345065577836
 20
79.8843352601156
 30
0.0
  0
VERTEX
  5
559
  8
PROFILE
 10
18.06892988278367
 20
79.8843352601156
 30
0.0
  0
VERTEX
  5
55A
  8
PROFILE
 10
27.92463840480237
 20
79.8843352601156
 30
0.0
  0
VERTEX
  5
55B
  8
PROFILE
 10
28.83011859401077
 20
79.8843352601156
 30
0.0
 42
0.4142135623732266
  0
VERTEX
  5
55C
  8
PROFILE
 10
29.83011859401077
 20
80.88433526011559
 30
0.0
  0
VERTEX
  5
55D
  8
PROFILE
 10
29.83011859401078
 20
81.78981343738712
 30
0.0
  0
VERTEX
  5
55E
  8
PROFILE
 10
29.83011859401078
 20
84.47885714298252
 30
0.0
  0
VERTEX
  5
55F
  8
PROFILE
 10
29.83011859401078
 20
85.3843352601156
 30
0.0
 42
0.4142135623738007
  0
VERTEX
  5
560
  8
PROFILE
 10
28.83011859401078
 20
86.3843352601156
 30
0.0
  0
VERTEX
  5
561
  8
PROFILE
 10
27.92463808952547
 20
86.3843352601156
 30
0.0
  0
SEQEND
  5
62E
  8
PROFILE
  0
POLYLINE
  5
AD
  8
POCKET
 66
     1
 10
0.0
 20
0.0
 30
0.0
 70
     1
  0
VERTEX
  5
562
  8
POCKET
 10
1.375
 20
1.374999999999989
 30
0.0
  0
VERTEX
  5
563
  8
POCKET
 10
16.04166698455811
 20
1.374999999999989
 30
0.0
  0
VERTEX
  5
564
  8
POCKET
 10
16.04166698455811
 20
22.375
 30
0.0
  0
VERTEX
  5
565
  8
POCKET
 10
1.375
 20
22.375
 30
0.0
  0
SEQEND
  5
62F
  8
POCKET
  0
POLYLINE
  5
AE
  8
POCKET
 66
     1
 10
0.0
 20
0.0
 30
0.0
 70
     1
  0
VERTEX
  5
566
  8
POCKET
 10
16.54166698455811
 20
1.374999999999989
 30
0.0
  0
VERTEX
  5
567
  8
POCKET
 10
31.20833396911621
 20
1.374999999999989
 30
0.0
  0
VERTEX
  5
568
  8
POCKET
 10
31.20833396911621
 20
22.375
 30
0.0
  0
VERTEX
  5
569
  8
POCKET
 10
16.54166698455811
 20
22.375
 30
0.0
  0
SEQEND
  5
630
  8
POCKET
  0
POLYLINE
  5
AF
  8
POCKET
 66
     1
 10
0.0
 20
0.0
 30
0.0
 70
     1
  0
VERTEX
  5
56A
  8
POCKET
 10
31.70833396911623
 20
1.374999999999989
 30
0.0
  0
VERTEX
  5
56B
  8
POCKET
 10
46.37499999999998
 20
1.374999999999989
 30
0.0
  0
VERTEX
  5
56C
  8
POCKET
 10
46.37499999999998
 20
22.375
 30
0.0
  0
VERTEX
  5
56D
  8
POCKET
 10
31.70833396911623
 20
22.375
 30
0.0
  0
SEQEND
  5
631
  8
POCKET
  0
POLYLINE
  5
B0
  8
POCKET
 66
     1
 10
0.0
 20
0.0
 30
0.0
 70
     1
  0
VERTEX
  5
56E
  8
POCKET
 10
1.374999999999997
 20
24.17499999999999
 30
0.0
  0
VERTEX
  5
56F
  8
POCKET
 10
16.04166698455808
 20
24.17499999999999
 30
0.0
  0
VERTEX
  5
570
  8
POCKET
 10
16.04166698455808
 20
45.175
 30
0.0
  0
VERTEX
  5
571
  8
POCKET
 10
1.374999999999997
 20
45.175
 30
0.0
  0
SEQEND
  5
632
  8
POCKET
  0
POLYLINE
  5
B1
  8
POCKET
 66
     1
 10
0.0
 20
0.0
 30
0.0
 70
     1
  0
VERTEX
  5
572
  8
POCKET
 10
31.70833396911621
 20
24.17499999999998
 30
0.0
  0
VERTEX
  5
573
  8
POCKET
 10
46.37499999999999
 20
24.17499999999998
 30
0.0
  0
VERTEX
  5
574
  8
POCKET
 10
46.37499999999999
 20
45.175
 30
0.0
  0
VERTEX
  5
575
  8
POCKET
 10
31.70833396911621
 20
45.175
 30
0.0
  0
SEQEND
  5
633
  8
POCKET
  0
POLYLINE
  5
B2
  8
POCKET
 66
     1
 10
0.0
 20
0.0
 30
0.0
 70
     1
  0
VERTEX
  5
576
  8
POCKET
 10
16.54166698455809
 20
24.17499999999999
 30
0.0
  0
VERTEX
  5
577
  8
POCKET
 10
31.20833396911618
 20
24.17499999999999
 30
0.0
  0
VERTEX
  5
578
  8
POCKET
 10
31.20833396911618
 20
45.175
 30
0.0
  0
VERTEX
  5
579
  8
POCKET
 10
16.54166698455809
 20
45.175
 30
0.0
  0
SEQEND
  5
634
  8
POCKET
  0
POLYLINE
  5
B3
  8
POCKET
 66
     1
 10
0.0
 20
0.0
 30
0.0
 70
     1
  0
VERTEX
  5
57A
  8
POCKET
 10
0.681090192383067
 20
0.6045584840916252
 30
0.0
  0
VERTEX
  5
57B
  8
POCKET
 10
47.24607366234746
 20
0.605454250914535
 30
0.0
  0
VERTEX
  5
57C
  8
POCKET
 10
47.24607366235152
 20
0.605454250914535
 30
0.0
  0
VERTEX
  5
57D
  8
POCKET
 10
47.24607366235153
 20
62.65204554267012
 30
0.0
  0
VERTEX
  5
57E
  8
POCKET
 10
46.37500000000001
 20
62.65204554267012
 30
0.0
  0
VERTEX
  5
57F
  8
POCKET
 10
46.37500000000001
 20
45.93789070057802
 30
0.0
  0
VERTEX
  5
580
  8
POCKET
 10
31.70833396911619
 20
45.93789070057803
 30
0.0
  0
VERTEX
  5
581
  8
POCKET
 10
31.7083339691162
 20
62.64486259265721
 30
0.0
  0
VERTEX
  5
582
  8
POCKET
 10
31.2083339691162
 20
62.64486259265721
 30
0.0
  0
VERTEX
  5
583
  8
POCKET
 10
31.20833396911619
 20
45.93789070057803
 30
0.0
  0
VERTEX
  5
584
  8
POCKET
 10
16.54166698455809
 20
45.93789070057803
 30
0.0
  0
VERTEX
  5
585
  8
POCKET
 10
16.54166698455809
 20
62.6533202749939
 30
0.0
  0
VERTEX
  5
586
  8
POCKET
 10
16.04166698455809
 20
62.6533202749939
 30
0.0
  0
VERTEX
  5
587
  8
POCKET
 10
16.04166698455809
 20
45.93789070057803
 30
0.0
  0
VERTEX
  5
588
  8
POCKET
 10
1.374999999999995
 20
45.93789070057803
 30
0.0
  0
VERTEX
  5
589
  8
POCKET
 10
1.375
 20
62.64613732498103
 30
0.0
  0
VERTEX
  5
58A
  8
POCKET
 10
0.6810901923830868
 20
62.64613732498103
 30
0.0
  0
VERTEX
  5
58B
  8
POCKET
 10
0.681090192383067
 20
0.6045584840916252
 30
0.0
  0
VERTEX
  5
58C
  8
POCKET
 10
1.37499999999998
 20
0.6045584840916252
 30
0.0
  0
SEQEND
  5
635
  8
POCKET
  0
POLYLINE
  5
B5
  8
POCKET125
 66
     1
 10
0.0
 20
0.0
 30
0.0
 70
     1
  0
VERTEX
  5
58D
  8
POCKET125
 10
2.75
 20
52.775
 30
0.0
 42
0.4142135623730951
  0
VERTEX
  5
58E
  8
POCKET125
 10
2.575
 20
52.6
 30
0.0
 42
0.4142135623730951
  0
VERTEX
  5
58F
  8
POCKET125
 10
2.75
 20
52.425
 30
0.0
 42
0.4142135623730951
  0
VERTEX
  5
590
  8
POCKET125
 10
2.925
 20
52.6
 30
0.0
 42
0.4142135623730951
  0
SEQEND
  5
636
  8
POCKET125
  0
POLYLINE
  5
B6
  8
POCKET125
 66
     1
 10
0.0
 20
0.0
 30
0.0
 70
     1
  0
VERTEX
  5
591
  8
POCKET125
 10
2.75
 20
48.025
 30
0.0
 42
0.4142135623730951
  0
VERTEX
  5
592
  8
POCKET125
 10
2.575
 20
47.85
 30
0.0
 42
0.4142135623730951
  0
VERTEX
  5
593
  8
POCKET125
 10
2.75
 20
47.675
 30
0.0
 42
0.4142135623730951
  0
VERTEX
  5
594
  8
POCKET125
 10
2.925
 20
47.85
 30
0.0
 42
0.4142135623730951
  0
SEQEND
  5
637
  8
POCKET125
  0
POLYLINE
  5
B7
  8
POCKET125
 66
     1
 10
0.0
 20
0.0
 30
0.0
 70
     1
  0
VERTEX
  5
595
  8
POCKET125
 10
14.6667
 20
48.025
 30
0.0
 42
0.4142135623730951
  0
VERTEX
  5
596
  8
POCKET125
 10
14.4917
 20
47.85
 30
0.0
 42
0.4142135623730951
  0
VERTEX
  5
597
  8
POCKET125
 10
14.6667
 20
47.675
 30
0.0
 42
0.4142135623730951
  0
VERTEX
  5
598
  8
POCKET125
 10
14.8417
 20
47.85
 30
0.0
 42
0.4142135623730951
  0
SEQEND
  5
638
  8
POCKET125
  0
POLYLINE
  5
B8
  8
POCKET125
 66
     1
 10
0.0
 20
0.0
 30
0.0
 70
     1
  0
VERTEX
  5
599
  8
POCKET125
 10
14.6667
 20
52.775
 30
0.0
 42
0.4142135623730951
  0
VERTEX
  5
59A
  8
POCKET125
 10
14.4917
 20
52.6
 30
0.0
 42
0.4142135623730951
  0
VERTEX
  5
59B
  8
POCKET125
 10
14.6667
 20
52.425
 30
0.0
 42
0.4142135623730951
  0
VERTEX
  5
59C
  8
POCKET125
 10
14.8417
 20
52.6
 30
0.0
 42
0.4142135623730951
  0
SEQEND
  5
639
  8
POCKET125
  0
POLYLINE
  5
B9
  8
POCKET125
 66
     1
 10
0.0
 20
0.0
 30
0.0
 70
     1
  0
VERTEX
  5
59D
  8
POCKET125
 10
17.9167
 20
52.775
 30
0.0
 42
0.4142135623730951
  0
VERTEX
  5
59E
  8
POCKET125
 10
17.7417
 20
52.6
 30
0.0
 42
0.4142135623730951
  0
VERTEX
  5
59F
  8
POCKET125
 10
17.9167
 20
52.425
 30
0.0
 42
0.4142135623730951
  0
VERTEX
  5
5A0
  8
POCKET125
 10
18.0917
 20
52.6
 30
0.0
 42
0.4142135623730951
  0
SEQEND
  5
63A
  8
POCKET125
  0
POLYLINE
  5
BA
  8
POCKET125
 66
     1
 10
0.0
 20
0.0
 30
0.0
 70
     1
  0
VERTEX
  5
5A1
  8
POCKET125
 10
17.9167
 20
48.025
 30
0.0
 42
0.4142135623730951
  0
VERTEX
  5
5A2
  8
POCKET125
 10
17.7417
 20
47.85
 30
0.0
 42
0.4142135623730951
  0
VERTEX
  5
5A3
  8
POCKET125
 10
17.9167
 20
47.675
 30
0.0
 42
0.4142135623730951
  0
VERTEX
  5
5A4
  8
POCKET125
 10
18.0917
 20
47.85
 30
0.0
 42
0.4142135623730951
  0
SEQEND
  5
63B
  8
POCKET125
  0
POLYLINE
  5
BB
  8
POCKET125
 66
     1
 10
0.0
 20
0.0
 30
0.0
 70
     1
  0
VERTEX
  5
5A5
  8
POCKET125
 10
29.7948
 20
52.775
 30
0.0
 42
0.4142135623730951
  0
VERTEX
  5
5A6
  8
POCKET125
 10
29.6198
 20
52.6
 30
0.0
 42
0.4142135623730951
  0
VERTEX
  5
5A7
  8
POCKET125
 10
29.7948
 20
52.425
 30
0.0
 42
0.4142135623730951
  0
VERTEX
  5
5A8
  8
POCKET125
 10
29.9698
 20
52.6
 30
0.0
 42
0.4142135623730951
  0
SEQEND
  5
63C
  8
POCKET125
  0
POLYLINE
  5
BC
  8
POCKET125
 66
     1
 10
0.0
 20
0.0
 30
0.0
 70
     1
  0
VERTEX
  5
5A9
  8
POCKET125
 10
29.7948
 20
48.025
 30
0.0
 42
0.4142135623730951
  0
VERTEX
  5
5AA
  8
POCKET125
 10
29.6198
 20
47.85
 30
0.0
 42
0.4142135623730951
  0
VERTEX
  5
5AB
  8
POCKET125
 10
29.7948
 20
47.675
 30
0.0
 42
0.4142135623730951
  0
VERTEX
  5
5AC
  8
POCKET125
 10
29.9698
 20
47.85
 30
0.0
 42
0.4142135623730951
  0
SEQEND
  5
63D
  8
POCKET125
  0
POLYLINE
  5
BD
  8
POCKET125
 66
     1
 10
0.0
 20
0.0
 30
0.0
 70
     1
  0
VERTEX
  5
5AD
  8
POCKET125
 10
33.0833
 20
52.775
 30
0.0
 42
0.4142135623730951
  0
VERTEX
  5
5AE
  8
POCKET125
 10
32.9083
 20
52.6
 30
0.0
 42
0.4142135623730951
  0
VERTEX
  5
5AF
  8
POCKET125
 10
33.0833
 20
52.425
 30
0.0
 42
0.4142135623730951
  0
VERTEX
  5
5B0
  8
POCKET125
 10
33.2583
 20
52.6
 30
0.0
 42
0.4142135623730951
  0
SEQEND
  5
63E
  8
POCKET125
  0
POLYLINE
  5
BE
  8
POCKET125
 66
     1
 10
0.0
 20
0.0
 30
0.0
 70
     1
  0
VERTEX
  5
5B1
  8
POCKET125
 10
33.0583
 20
48.025
 30
0.0
 42
0.4142135623730951
  0
VERTEX
  5
5B2
  8
POCKET125
 10
32.88330000000001
 20
47.85
 30
0.0
 42
0.4142135623730951
  0
VERTEX
  5
5B3
  8
POCKET125
 10
33.0583
 20
47.675
 30
0.0
 42
0.4142135623730951
  0
VERTEX
  5
5B4
  8
POCKET125
 10
33.2333
 20
47.85
 30
0.0
 42
0.4142135623730951
  0
SEQEND
  5
63F
  8
POCKET125
  0
POLYLINE
  5
BF
  8
POCKET125
 66
     1
 10
0.0
 20
0.0
 30
0.0
 70
     1
  0
VERTEX
  5
5B5
  8
POCKET125
 10
44.9649
 20
52.775
 30
0.0
 42
0.4142135623730951
  0
VERTEX
  5
5B6
  8
POCKET125
 10
44.7899
 20
52.6
 30
0.0
 42
0.4142135623730951
  0
VERTEX
  5
5B7
  8
POCKET125
 10
44.9649
 20
52.425
 30
0.0
 42
0.4142135623730951
  0
VERTEX
  5
5B8
  8
POCKET125
 10
45.1399
 20
52.6
 30
0.0
 42
0.4142135623730951
  0
SEQEND
  5
640
  8
POCKET125
  0
POLYLINE
  5
C0
  8
POCKET125
 66
     1
 10
0.0
 20
0.0
 30
0.0
 70
     1
  0
VERTEX
  5
5B9
  8
POCKET125
 10
44.9649
 20
48.025
 30
0.0
 42
0.4142135623730951
  0
VERTEX
  5
5BA
  8
POCKET125
 10
44.7899
 20
47.85
 30
0.0
 42
0.4142135623730951
  0
VERTEX
  5
5BB
  8
POCKET125
 10
44.9649
 20
47.675
 30
0.0
 42
0.4142135623730951
  0
VERTEX
  5
5BC
  8
POCKET125
 10
45.1399
 20
47.85
 30
0.0
 42
0.4142135623730951
  0
SEQEND
  5
641
  8
POCKET125
  0
POLYLINE
  5
C1
  8
POCKET125
 66
     1
 10
0.0
 20
0.0
 30
0.0
 70
     1
  0
VERTEX
  5
5BD
  8
POCKET125
 10
2.038418594010771
 20
85.68433526011557
 30
0.0
 42
0.4142135623730951
  0
VERTEX
  5
5BE
  8
POCKET125
 10
1.863418594010774
 20
85.50933526011558
 30
0.0
 42
0.4142135623730951
  0
VERTEX
  5
5BF
  8
POCKET125
 10
2.038418594010771
 20
85.33433526011558
 30
0.0
 42
0.4142135623730951
  0
VERTEX
  5
5C0
  8
POCKET125
 10
2.213418594010768
 20
85.50933526011558
 30
0.0
 42
0.4142135623730951
  0
SEQEND
  5
642
  8
POCKET125
  0
POLYLINE
  5
C2
  8
POCKET125
 66
     1
 10
0.0
 20
0.0
 30
0.0
 70
     1
  0
VERTEX
  5
5C1
  8
POCKET125
 10
2.013418594010773
 20
80.93433526011557
 30
0.0
 42
0.4142135623730951
  0
VERTEX
  5
5C2
  8
POCKET125
 10
1.838418594010776
 20
80.75933526011558
 30
0.0
 42
0.4142135623730951
  0
VERTEX
  5
5C3
  8
POCKET125
 10
2.013418594010773
 20
80.58433526011558
 30
0.0
 42
0.4142135623730951
  0
VERTEX
  5
5C4
  8
POCKET125
 10
2.18841859401077
 20
80.75933526011558
 30
0.0
 42
0.4142135623730951
  0
SEQEND
  5
643
  8
POCKET125
  0
POLYLINE
  5
C3
  8
POCKET125
 66
     1
 10
0.0
 20
0.0
 30
0.0
 70
     1
  0
VERTEX
  5
5C5
  8
POCKET125
 10
13.92001859401077
 20
85.68433526011557
 30
0.0
 42
0.4142135623730951
  0
VERTEX
  5
5C6
  8
POCKET125
 10
13.74501859401077
 20
85.50933526011558
 30
0.0
 42
0.4142135623730951
  0
VERTEX
  5
5C7
  8
POCKET125
 10
13.92001859401077
 20
85.33433526011558
 30
0.0
 42
0.4142135623730951
  0
VERTEX
  5
5C8
  8
POCKET125
 10
14.09501859401077
 20
85.50933526011558
 30
0.0
 42
0.4142135623730951
  0
SEQEND
  5
644
  8
POCKET125
  0
POLYLINE
  5
C4
  8
POCKET125
 66
     1
 10
0.0
 20
0.0
 30
0.0
 70
     1
  0
VERTEX
  5
5C9
  8
POCKET125
 10
13.92001859401077
 20
80.93433526011557
 30
0.0
 42
0.4142135623730951
  0
VERTEX
  5
5CA
  8
POCKET125
 10
13.74501859401077
 20
80.75933526011558
 30
0.0
 42
0.4142135623730951
  0
VERTEX
  5
5CB
  8
POCKET125
 10
13.92001859401077
 20
80.58433526011558
 30
0.0
 42
0.4142135623730951
  0
VERTEX
  5
5CC
  8
POCKET125
 10
14.09501859401077
 20
80.75933526011558
 30
0.0
 42
0.4142135623730951
  0
SEQEND
  5
645
  8
POCKET125
  0
POLYLINE
  5
C5
  8
POCKET125
 66
     1
 10
0.0
 20
0.0
 30
0.0
 70
     1
  0
VERTEX
  5
5CD
  8
POCKET125
 10
17.03841859401077
 20
85.68433526011557
 30
0.0
 42
0.4142135623730951
  0
VERTEX
  5
5CE
  8
POCKET125
 10
16.86341859401077
 20
85.50933526011558
 30
0.0
 42
0.4142135623730951
  0
VERTEX
  5
5CF
  8
POCKET125
 10
17.03841859401077
 20
85.33433526011558
 30
0.0
 42
0.4142135623730951
  0
VERTEX
  5
5D0
  8
POCKET125
 10
17.21341859401077
 20
85.50933526011558
 30
0.0
 42
0.4142135623730951
  0
SEQEND
  5
646
  8
POCKET125
  0
POLYLINE
  5
C6
  8
POCKET125
 66
     1
 10
0.0
 20
0.0
 30
0.0
 70
     1
  0
VERTEX
  5
5D1
  8
POCKET125
 10
17.01341859401077
 20
80.93433526011557
 30
0.0
 42
0.4142135623730951
  0
VERTEX
  5
5D2
  8
POCKET125
 10
16.83841859401078
 20
80.75933526011558
 30
0.0
 42
0.4142135623730951
  0
VERTEX
  5
5D3
  8
POCKET125
 10
17.01341859401077
 20
80.58433526011558
 30
0.0
 42
0.4142135623730951
  0
VERTEX
  5
5D4
  8
POCKET125
 10
17.18841859401077
 20
80.75933526011558
 30
0.0
 42
0.4142135623730951
  0
SEQEND
  5
647
  8
POCKET125
  0
POLYLINE
  5
C7
  8
POCKET125
 66
     1
 10
0.0
 20
0.0
 30
0.0
 70
     1
  0
VERTEX
  5
5D5
  8
POCKET125
 10
28.92001859401077
 20
85.68433526011557
 30
0.0
 42
0.4142135623730951
  0
VERTEX
  5
5D6
  8
POCKET125
 10
28.74501859401077
 20
85.50933526011558
 30
0.0
 42
0.4142135623730951
  0
VERTEX
  5
5D7
  8
POCKET125
 10
28.92001859401077
 20
85.33433526011558
 30
0.0
 42
0.4142135623730951
  0
VERTEX
  5
5D8
  8
POCKET125
 10
29.09501859401077
 20
85.50933526011558
 30
0.0
 42
0.4142135623730951
  0
SEQEND
  5
648
  8
POCKET125
  0
POLYLINE
  5
C8
  8
POCKET125
 66
     1
 10
0.0
 20
0.0
 30
0.0
 70
     1
  0
VERTEX
  5
5D9
  8
POCKET125
 10
28.92001859401077
 20
80.93433526011557
 30
0.0
 42
0.4142135623730951
  0
VERTEX
  5
5DA
  8
POCKET125
 10
28.74501859401077
 20
80.75933526011558
 30
0.0
 42
0.4142135623730951
  0
VERTEX
  5
5DB
  8
POCKET125
 10
28.92001859401077
 20
80.58433526011558
 30
0.0
 42
0.4142135623730951
  0
VERTEX
  5
5DC
  8
POCKET125
 10
29.09501859401077
 20
80.75933526011558
 30
0.0
 42
0.4142135623730951
  0
SEQEND
  5
649
  8
POCKET125
  0
POLYLINE
  5
C9
  8
POCKET125
 66
     1
 10
0.0
 20
0.0
 30
0.0
 70
     1
  0
VERTEX
  5
5DD
  8
POCKET125
 10
32.03841859401077
 20
85.68433526011557
 30
0.0
 42
0.4142135623730951
  0
VERTEX
  5
5DE
  8
POCKET125
 10
31.86341859401077
 20
85.50933526011558
 30
0.0
 42
0.4142135623730951
  0
VERTEX
  5
5DF
  8
POCKET125
 10
32.03841859401077
 20
85.33433526011558
 30
0.0
 42
0.4142135623730951
  0
VERTEX
  5
5E0
  8
POCKET125
 10
32.21341859401077
 20
85.50933526011558
 30
0.0
 42
0.4142135623730951
  0
SEQEND
  5
64A
  8
POCKET125
  0
POLYLINE
  5
CA
  8
POCKET125
 66
     1
 10
0.0
 20
0.0
 30
0.0
 70
     1
  0
VERTEX
  5
5E1
  8
POCKET125
 10
32.01341859401077
 20
80.93433526011557
 30
0.0
 42
0.4142135623730951
  0
VERTEX
  5
5E2
  8
POCKET125
 10
31.83841859401078
 20
80.75933526011558
 30
0.0
 42
0.4142135623730951
  0
VERTEX
  5
5E3
  8
POCKET125
 10
32.01341859401077
 20
80.58433526011558
 30
0.0
 42
0.4142135623730951
  0
VERTEX
  5
5E4
  8
POCKET125
 10
32.18841859401077
 20
80.75933526011558
 30
0.0
 42
0.4142135623730951
  0
SEQEND
  5
64B
  8
POCKET125
  0
POLYLINE
  5
CB
  8
POCKET125
 66
     1
 10
0.0
 20
0.0
 30
0.0
 70
     1
  0
VERTEX
  5
5E5
  8
POCKET125
 10
43.92001859401077
 20
85.68433526011557
 30
0.0
 42
0.4142135623730951
  0
VERTEX
  5
5E6
  8
POCKET125
 10
43.74501859401077
 20
85.50933526011558
 30
0.0
 42
0.4142135623730951
  0
VERTEX
  5
5E7
  8
POCKET125
 10
43.92001859401077
 20
85.33433526011558
 30
0.0
 42
0.4142135623730951
  0
VERTEX
  5
5E8
  8
POCKET125
 10
44.09501859401077
 20
85.50933526011558
 30
0.0
 42
0.4142135623730951
  0
SEQEND
  5
64C
  8
POCKET125
  0
POLYLINE
  5
CC
  8
POCKET125
 66
     1
 10
0.0
 20
0.0
 30
0.0
 70
     1
  0
VERTEX
  5
5E9
  8
POCKET125
 10
43.92001859401077
 20
80.93433526011557
 30
0.0
 42
0.4142135623730951
  0
VERTEX
  5
5EA
  8
POCKET125
 10
43.74501859401077
 20
80.75933526011558
 30
0.0
 42
0.4142135623730951
  0
VERTEX
  5
5EB
  8
POCKET125
 10
43.92001859401077
 20
80.58433526011558
 30
0.0
 42
0.4142135623730951
  0
VERTEX
  5
5EC
  8
POCKET125
 10
44.09501859401077
 20
80.75933526011558
 30
0.0
 42
0.4142135623730951
  0
SEQEND
  5
64D
  8
POCKET125
  0
ENDSEC
  0
EOF
