  0
SECTION
  2
HEADER
  9
$ACADVER
  1
AC1009
  9
$INSBASE
 10
0.0
 20
0.0
 30
0.0
  9
$EXTMIN
 10
0.0
 20
0.0
 30
0.0
  9
$EXTMAX
 10
0.0
 20
0.0
 30
0.0
  0
ENDSEC
  0
SECTION
  2
TABLES
  0
TABLE
  2
VPORT
 70
0
  0
ENDTAB
  0
TABLE
  2
LTYPE
 70
1
  0
LTYPE
  2
CONTINUOUS
 70
0
  3
Solid line
 72
65
 73
0
 40
0.0
  0
ENDTAB
  0
TABLE
  2
LAYER
 70
1
  0
LAYER
  2
0
 70
64
 62
7
  6
continuous
  0
ENDTAB
  0
TABLE
  2
STYLE
 70
1
  0
STYLE
  2
STANDARD
 70
0
 40
0
 41
1.0
 50
0.0
 71
0
 42
1
 3
ARIAL.TTF
 4

  0
ENDTAB
  0
TABLE
  2
VIEW
 70
0
  0
ENDTAB
  0
ENDSEC
  0
SECTION
  2
BLOCKS
  0
BLOCK
  8
planche2
  2
SKETCH012
 70
0
 10
0.0
 20
0.0
 30
0.0
  3
SKETCH012
  0
POLYLINE
  8
planche2
 62
7
 70
1
 66
1
 10
0.0
 20
0.0
 30
0.0
  0
VERTEX
  8
planche2
 10
811.950000706
 20
74.35
 30
0.0
  0
VERTEX
  8
planche2
 10
811.950000706
 20
50.0
 30
0.0
  0
VERTEX
  8
planche2
 10
1437.94996701
 20
50.0
 30
0.0
  0
VERTEX
  8
planche2
 10
1437.94996701
 20
74.35
 30
0.0
 42
-1.0
  0
VERTEX
  8
planche2
 10
1437.95
 20
80.45
 30
0.0
  0
VERTEX
  8
planche2
 10
1449.9
 20
80.45
 30
0.0
  0
VERTEX
  8
planche2
 10
1449.9
 20
122.45
 30
0.0
  0
VERTEX
  8
planche2
 10
1437.95
 20
122.45
 30
0.0
 42
-0.999999249403
  0
VERTEX
  8
planche2
 10
1437.94999732
 20
128.55
 30
0.0
  0
VERTEX
  8
planche2
 10
1437.94999732
 20
159.35
 30
0.0
 42
-1.0
  0
VERTEX
  8
planche2
 10
1437.95
 20
165.45
 30
0.0
  0
VERTEX
  8
planche2
 10
1449.9
 20
165.45
 30
0.0
  0
VERTEX
  8
planche2
 10
1449.9
 20
207.45
 30
0.0
  0
VERTEX
  8
planche2
 10
1437.95
 20
207.45
 30
0.0
 42
-1.0
  0
VERTEX
  8
planche2
 10
1437.95000593
 20
213.55
 30
0.0
  0
VERTEX
  8
planche2
 10
1437.95000593
 20
237.9
 30
0.0
  0
VERTEX
  8
planche2
 10
811.950000241
 20
237.9
 30
0.0
  0
VERTEX
  8
planche2
 10
811.950000241
 20
213.55
 30
0.0
 42
-1.0
  0
VERTEX
  8
planche2
 10
811.95
 20
207.45
 30
0.0
  0
VERTEX
  8
planche2
 10
800.0
 20
207.45
 30
0.0
  0
VERTEX
  8
planche2
 10
800.0
 20
165.45
 30
0.0
  0
VERTEX
  8
planche2
 10
811.95
 20
165.45
 30
0.0
 42
-1.0
  0
VERTEX
  8
planche2
 10
811.950000224
 20
159.35
 30
0.0
  0
VERTEX
  8
planche2
 10
811.950000224
 20
128.55
 30
0.0
 42
-0.999999986799
  0
VERTEX
  8
planche2
 10
811.95
 20
122.45
 30
0.0
  0
VERTEX
  8
planche2
 10
800.0
 20
122.45
 30
0.0
  0
VERTEX
  8
planche2
 10
800.0
 20
80.45
 30
0.0
  0
VERTEX
  8
planche2
 10
811.95
 20
80.45
 30
0.0
 42
-1.0
  0
SEQEND
  8
planche2
  0
POLYLINE
  8
planche2
 62
7
 70
1
 66
1
 10
0.0
 20
0.0
 30
0.0
  0
VERTEX
  8
planche2
 10
862.4
 20
207.45
 30
0.0
  0
VERTEX
  8
planche2
 10
1074.50000296
 20
207.45
 30
0.0
 42
-0.414213562373
  0
VERTEX
  8
planche2
 10
1094.50000296
 20
187.45
 30
0.0
  0
VERTEX
  8
planche2
 10
1094.50000296
 20
100.45
 30
0.0
 42
-0.414213562373
  0
VERTEX
  8
planche2
 10
1074.50000296
 20
80.45
 30
0.0
  0
VERTEX
  8
planche2
 10
862.4
 20
80.45
 30
0.0
 42
-0.414213562373
  0
VERTEX
  8
planche2
 10
842.4
 20
100.45
 30
0.0
  0
VERTEX
  8
planche2
 10
842.4
 20
187.45
 30
0.0
 42
-0.414213562373
  0
SEQEND
  8
planche2
  0
POLYLINE
  8
planche2
 62
7
 70
1
 66
1
 10
0.0
 20
0.0
 30
0.0
  0
VERTEX
  8
planche2
 10
1155.40000296
 20
100.45
 30
0.0
  0
VERTEX
  8
planche2
 10
1155.40000296
 20
187.45
 30
0.0
 42
-0.414213562373
  0
VERTEX
  8
planche2
 10
1175.40000296
 20
207.45
 30
0.0
  0
VERTEX
  8
planche2
 10
1387.50000593
 20
207.45
 30
0.0
 42
-0.414213562373
  0
VERTEX
  8
planche2
 10
1407.50000593
 20
187.45
 30
0.0
  0
VERTEX
  8
planche2
 10
1407.50000593
 20
100.45
 30
0.0
 42
-0.414213562373
  0
VERTEX
  8
planche2
 10
1387.50000593
 20
80.45
 30
0.0
  0
VERTEX
  8
planche2
 10
1175.40000296
 20
80.45
 30
0.0
 42
-0.414213562373
  0
SEQEND
  8
planche2
  0
POLYLINE
  8
planche2
 62
7
 70
1
 66
1
 10
0.0
 20
0.0
 30
0.0
  0
VERTEX
  8
planche2
 10
1118.89999533
 20
171.5
 30
0.0
 42
1.0
  0
VERTEX
  8
planche2
 10
1118.8999993
 20
165.4
 30
0.0
  0
VERTEX
  8
planche2
 10
1130.9999993
 20
165.4
 30
0.0
 42
1.0
  0
VERTEX
  8
planche2
 10
1131.00000296
 20
171.5
 30
0.0
  0
VERTEX
  8
planche2
 10
1131.00000296
 20
201.4
 30
0.0
 42
1.0
  0
VERTEX
  8
planche2
 10
1130.99999922
 20
207.5
 30
0.0
  0
VERTEX
  8
planche2
 10
1118.89999922
 20
207.5
 30
0.0
 42
1.0
  0
VERTEX
  8
planche2
 10
1118.89999533
 20
201.4
 30
0.0
  0
SEQEND
  8
planche2
  0
POLYLINE
  8
planche2
 62
7
 70
1
 66
1
 10
0.0
 20
0.0
 30
0.0
  0
VERTEX
  8
planche2
 10
1118.90004429
 20
86.3
 30
0.0
 42
1.0
  0
VERTEX
  8
planche2
 10
1118.90004654
 20
80.2
 30
0.0
  0
VERTEX
  8
planche2
 10
1131.00004654
 20
80.2
 30
0.0
 42
1.0
  0
VERTEX
  8
planche2
 10
1131.00000296
 20
86.2999999999
 30
0.0
  0
VERTEX
  8
planche2
 10
1131.00000296
 20
116.2
 30
0.0
 42
1.0
  0
VERTEX
  8
planche2
 10
1131.0000458
 20
122.3
 30
0.0
  0
VERTEX
  8
planche2
 10
1118.9000458
 20
122.3
 30
0.0
 42
1.0
  0
VERTEX
  8
planche2
 10
1118.90004429
 20
116.2
 30
0.0
  0
SEQEND
  8
planche2
  0
ENDBLK
  0
BLOCK
  8
planche2
  2
SKETCH013
 70
0
 10
0.0
 20
0.0
 30
0.0
  3
SKETCH013
  0
POLYLINE
  8
planche2
 62
7
 70
1
 66
1
 10
0.0
 20
0.0
 30
0.0
  0
VERTEX
  8
planche2
 10
791.950007964
 20
369.35
 30
0.0
 42
1.0
  0
VERTEX
  8
planche2
 10
791.950010876
 20
375.45
 30
0.0
  0
VERTEX
  8
planche2
 10
780.000010876
 20
375.45
 30
0.0
  0
VERTEX
  8
planche2
 10
780.000010876
 20
417.45
 30
0.0
  0
VERTEX
  8
planche2
 10
791.950010876
 20
417.45
 30
0.0
 42
1.0
  0
VERTEX
  8
planche2
 10
791.950011515
 20
423.55
 30
0.0
  0
VERTEX
  8
planche2
 10
791.950011515
 20
447.9
 30
0.0
  0
VERTEX
  8
planche2
 10
1224.00000425
 20
447.9
 30
0.0
  0
VERTEX
  8
planche2
 10
1224.00000425
 20
423.55
 30
0.0
 42
1.0
  0
VERTEX
  8
planche2
 10
1224.00001088
 20
417.45
 30
0.0
  0
VERTEX
  8
planche2
 10
1235.95001088
 20
417.45
 30
0.0
  0
VERTEX
  8
planche2
 10
1235.95001088
 20
375.45
 30
0.0
  0
VERTEX
  8
planche2
 10
1224.00001088
 20
375.45
 30
0.0
 42
1.0
  0
VERTEX
  8
planche2
 10
1224.00000373
 20
369.35
 30
0.0
  0
VERTEX
  8
planche2
 10
1224.00000373
 20
338.55
 30
0.0
 42
1.0
  0
VERTEX
  8
planche2
 10
1224.00002038
 20
332.45
 30
0.0
  0
VERTEX
  8
planche2
 10
1235.95002038
 20
332.45
 30
0.0
  0
VERTEX
  8
planche2
 10
1235.95002038
 20
290.45
 30
0.0
  0
VERTEX
  8
planche2
 10
1224.00002038
 20
290.45
 30
0.0
 42
1.0
  0
VERTEX
  8
planche2
 10
1224.00001879
 20
284.35
 30
0.0
  0
VERTEX
  8
planche2
 10
1224.00001879
 20
260.0
 30
0.0
  0
VERTEX
  8
planche2
 10
791.95000723
 20
260.0
 30
0.0
  0
VERTEX
  8
planche2
 10
791.95000723
 20
284.35
 30
0.0
 42
1.0
  0
VERTEX
  8
planche2
 10
791.95
 20
290.45
 30
0.0
  0
VERTEX
  8
planche2
 10
780.0
 20
290.45
 30
0.0
  0
VERTEX
  8
planche2
 10
780.0
 20
332.45
 30
0.0
  0
VERTEX
  8
planche2
 10
791.95
 20
332.45
 30
0.0
 42
1.0
  0
VERTEX
  8
planche2
 10
791.950007964
 20
338.55
 30
0.0
  0
SEQEND
  8
planche2
  0
POLYLINE
  8
planche2
 62
7
 70
1
 66
1
 10
0.0
 20
0.0
 30
0.0
  0
VERTEX
  8
planche2
 10
822.40000723
 20
310.45
 30
0.0
  0
VERTEX
  8
planche2
 10
822.40000723
 20
397.45
 30
0.0
 42
-0.414213562373
  0
VERTEX
  8
planche2
 10
842.40000723
 20
417.45
 30
0.0
  0
VERTEX
  8
planche2
 10
1173.55000425
 20
417.45
 30
0.0
 42
-0.414213562373
  0
VERTEX
  8
planche2
 10
1193.55000425
 20
397.45
 30
0.0
  0
VERTEX
  8
planche2
 10
1193.55000425
 20
310.45
 30
0.0
 42
-0.414213562373
  0
VERTEX
  8
planche2
 10
1173.55000425
 20
290.45
 30
0.0
  0
VERTEX
  8
planche2
 10
842.40000723
 20
290.45
 30
0.0
 42
-0.414213562373
  0
SEQEND
  8
planche2
  0
ENDBLK
  0
BLOCK
  8
planche2
  2
SKETCH014
 70
0
 10
0.0
 20
0.0
 30
0.0
  3
SKETCH014
  0
POLYLINE
  8
planche2
 62
7
 70
1
 66
1
 10
0.0
 20
0.0
 30
0.0
  0
VERTEX
  8
planche2
 10
1340.65
 20
271.950007964
 30
0.0
 42
1.0
  0
VERTEX
  8
planche2
 10
1334.55
 20
271.950010876
 30
0.0
  0
VERTEX
  8
planche2
 10
1334.55
 20
260.000010876
 30
0.0
  0
VERTEX
  8
planche2
 10
1292.55
 20
260.000010876
 30
0.0
  0
VERTEX
  8
planche2
 10
1292.55
 20
271.950010876
 30
0.0
 42
1.0
  0
VERTEX
  8
planche2
 10
1286.45
 20
271.950011515
 30
0.0
  0
VERTEX
  8
planche2
 10
1262.1
 20
271.950011515
 30
0.0
  0
VERTEX
  8
planche2
 10
1262.1
 20
704.000004248
 30
0.0
  0
VERTEX
  8
planche2
 10
1286.45
 20
704.000004248
 30
0.0
 42
1.0
  0
VERTEX
  8
planche2
 10
1292.55
 20
704.000010876
 30
0.0
  0
VERTEX
  8
planche2
 10
1292.55
 20
715.950010876
 30
0.0
  0
VERTEX
  8
planche2
 10
1334.55
 20
715.950010876
 30
0.0
  0
VERTEX
  8
planche2
 10
1334.55
 20
704.000010876
 30
0.0
 42
1.0
  0
VERTEX
  8
planche2
 10
1340.65
 20
704.000003732
 30
0.0
  0
VERTEX
  8
planche2
 10
1371.45
 20
704.000003732
 30
0.0
 42
1.0
  0
VERTEX
  8
planche2
 10
1377.55
 20
704.00002038
 30
0.0
  0
VERTEX
  8
planche2
 10
1377.55
 20
715.95002038
 30
0.0
  0
VERTEX
  8
planche2
 10
1419.55
 20
715.95002038
 30
0.0
  0
VERTEX
  8
planche2
 10
1419.55
 20
704.00002038
 30
0.0
 42
1.0
  0
VERTEX
  8
planche2
 10
1425.65
 20
704.000018794
 30
0.0
  0
VERTEX
  8
planche2
 10
1450.0
 20
704.000018794
 30
0.0
  0
VERTEX
  8
planche2
 10
1450.0
 20
271.95000723
 30
0.0
  0
VERTEX
  8
planche2
 10
1425.65
 20
271.95000723
 30
0.0
 42
1.0
  0
VERTEX
  8
planche2
 10
1419.55
 20
271.95
 30
0.0
  0
VERTEX
  8
planche2
 10
1419.55
 20
260.0
 30
0.0
  0
VERTEX
  8
planche2
 10
1377.55
 20
260.0
 30
0.0
  0
VERTEX
  8
planche2
 10
1377.55
 20
271.95
 30
0.0
 42
1.0
  0
VERTEX
  8
planche2
 10
1371.45
 20
271.950007964
 30
0.0
  0
SEQEND
  8
planche2
  0
POLYLINE
  8
planche2
 62
7
 70
1
 66
1
 10
0.0
 20
0.0
 30
0.0
  0
VERTEX
  8
planche2
 10
1399.55
 20
302.40000723
 30
0.0
  0
VERTEX
  8
planche2
 10
1312.55
 20
302.40000723
 30
0.0
 42
-0.414213562373
  0
VERTEX
  8
planche2
 10
1292.55
 20
322.40000723
 30
0.0
  0
VERTEX
  8
planche2
 10
1292.55
 20
653.550004248
 30
0.0
 42
-0.414213562373
  0
VERTEX
  8
planche2
 10
1312.55
 20
673.550004248
 30
0.0
  0
VERTEX
  8
planche2
 10
1399.55
 20
673.550004248
 30
0.0
 42
-0.414213562373
  0
VERTEX
  8
planche2
 10
1419.55
 20
653.550004248
 30
0.0
  0
VERTEX
  8
planche2
 10
1419.55
 20
322.40000723
 30
0.0
 42
-0.414213562373
  0
SEQEND
  8
planche2
  0
ENDBLK
  0
ENDSEC
  0
SECTION
  2
ENTITIES
  0
INSERT
  2
SKETCH012
  8
planche2
 62
7
 10
0.0
 20
0.0
 30
0.0
  0
INSERT
  2
SKETCH013
  8
planche2
 62
7
 10
0.0
 20
0.0
 30
0.0
  0
INSERT
  2
SKETCH014
  8
planche2
 62
7
 10
0.0
 20
0.0
 30
0.0
  0
ENDSEC
  0
EOF
