  0
SECTION
  2
HEADER
  9
$ACADVER
  1
AC1009
  9
$INSBASE
 10
0.0
 20
0.0
 30
0.0
  9
$EXTMIN
 10
0.0
 20
0.0
 30
0.0
  9
$EXTMAX
 10
0.0
 20
0.0
 30
0.0
  0
ENDSEC
  0
SECTION
  2
TABLES
  0
TABLE
  2
VPORT
 70
0
  0
ENDTAB
  0
TABLE
  2
LTYPE
 70
1
  0
LTYPE
  2
CONTINUOUS
 70
0
  3
Solid line
 72
65
 73
0
 40
0.0
  0
ENDTAB
  0
TABLE
  2
LAYER
 70
1
  0
LAYER
  2
0
 70
64
 62
7
  6
continuous
  0
ENDTAB
  0
TABLE
  2
STYLE
 70
1
  0
STYLE
  2
STANDARD
 70
0
 40
0
 41
1.0
 50
0.0
 71
0
 42
1
 3
ARIAL.TTF
 4

  0
ENDTAB
  0
TABLE
  2
VIEW
 70
0
  0
ENDTAB
  0
ENDSEC
  0
SECTION
  2
BLOCKS
  0
BLOCK
  8
planche2
  2
SKETCH012
 70
0
 10
0.0
 20
0.0
 30
0.0
  3
SKETCH012
  0
POLYLINE
  8
planche2
 62
7
 70
1
 66
1
 10
0.0
 20
0.0
 30
0.0
  0
VERTEX
  8
planche2
 10
812.249999567
 20
74.2
 30
0.0
  0
VERTEX
  8
planche2
 10
812.249999567
 20
50.0
 30
0.0
  0
VERTEX
  8
planche2
 10
1437.65000035
 20
50.0
 30
0.0
  0
VERTEX
  8
planche2
 10
1437.65000035
 20
74.2
 30
0.0
 42
-1.0
  0
VERTEX
  8
planche2
 10
1437.65
 20
80.3
 30
0.0
  0
VERTEX
  8
planche2
 10
1449.9
 20
80.3
 30
0.0
  0
VERTEX
  8
planche2
 10
1449.9
 20
122.3
 30
0.0
  0
VERTEX
  8
planche2
 10
1437.65
 20
122.3
 30
0.0
 42
-0.999999557498
  0
VERTEX
  8
planche2
 10
1437.64999902
 20
128.4
 30
0.0
  0
VERTEX
  8
planche2
 10
1437.64999902
 20
159.2
 30
0.0
 42
-1.0
  0
VERTEX
  8
planche2
 10
1437.65
 20
165.3
 30
0.0
  0
VERTEX
  8
planche2
 10
1449.9
 20
165.3
 30
0.0
  0
VERTEX
  8
planche2
 10
1449.9
 20
207.3
 30
0.0
  0
VERTEX
  8
planche2
 10
1437.65
 20
207.3
 30
0.0
 42
-1.0
  0
VERTEX
  8
planche2
 10
1437.65001724
 20
213.4
 30
0.0
  0
VERTEX
  8
planche2
 10
1437.65001724
 20
237.6
 30
0.0
  0
VERTEX
  8
planche2
 10
812.249987743
 20
237.6
 30
0.0
  0
VERTEX
  8
planche2
 10
812.249987743
 20
213.4
 30
0.0
 42
-1.0
  0
VERTEX
  8
planche2
 10
812.25
 20
207.3
 30
0.0
  0
VERTEX
  8
planche2
 10
800.0
 20
207.3
 30
0.0
  0
VERTEX
  8
planche2
 10
800.0
 20
165.3
 30
0.0
  0
VERTEX
  8
planche2
 10
812.25
 20
165.3
 30
0.0
 42
-1.0
  0
VERTEX
  8
planche2
 10
812.249999243
 20
159.2
 30
0.0
  0
VERTEX
  8
planche2
 10
812.249999243
 20
128.4
 30
0.0
 42
-1.00000019757
  0
VERTEX
  8
planche2
 10
812.25
 20
122.3
 30
0.0
  0
VERTEX
  8
planche2
 10
800.0
 20
122.3
 30
0.0
  0
VERTEX
  8
planche2
 10
800.0
 20
80.3
 30
0.0
  0
VERTEX
  8
planche2
 10
812.25
 20
80.3
 30
0.0
 42
-1.0
  0
SEQEND
  8
planche2
  0
POLYLINE
  8
planche2
 62
7
 70
1
 66
1
 10
0.0
 20
0.0
 30
0.0
  0
VERTEX
  8
planche2
 10
862.55
 20
207.3
 30
0.0
  0
VERTEX
  8
planche2
 10
1074.65000862
 20
207.3
 30
0.0
 42
-0.414213562373
  0
VERTEX
  8
planche2
 10
1094.65000862
 20
187.3
 30
0.0
  0
VERTEX
  8
planche2
 10
1094.65000862
 20
100.3
 30
0.0
 42
-0.414213562373
  0
VERTEX
  8
planche2
 10
1074.65000862
 20
80.3
 30
0.0
  0
VERTEX
  8
planche2
 10
862.55
 20
80.3
 30
0.0
 42
-0.414213562373
  0
VERTEX
  8
planche2
 10
842.55
 20
100.3
 30
0.0
  0
VERTEX
  8
planche2
 10
842.55
 20
187.3
 30
0.0
 42
-0.414213562373
  0
SEQEND
  8
planche2
  0
POLYLINE
  8
planche2
 62
7
 70
1
 66
1
 10
0.0
 20
0.0
 30
0.0
  0
VERTEX
  8
planche2
 10
1155.25000862
 20
100.3
 30
0.0
  0
VERTEX
  8
planche2
 10
1155.25000862
 20
187.3
 30
0.0
 42
-0.414213562373
  0
VERTEX
  8
planche2
 10
1175.25000862
 20
207.3
 30
0.0
  0
VERTEX
  8
planche2
 10
1387.35001724
 20
207.3
 30
0.0
 42
-0.414213562373
  0
VERTEX
  8
planche2
 10
1407.35001724
 20
187.3
 30
0.0
  0
VERTEX
  8
planche2
 10
1407.35001724
 20
100.3
 30
0.0
 42
-0.414213562373
  0
VERTEX
  8
planche2
 10
1387.35001724
 20
80.3
 30
0.0
  0
VERTEX
  8
planche2
 10
1175.25000862
 20
80.3
 30
0.0
 42
-0.414213562373
  0
SEQEND
  8
planche2
  0
POLYLINE
  8
planche2
 62
7
 70
1
 66
1
 10
0.0
 20
0.0
 30
0.0
  0
VERTEX
  8
planche2
 10
1118.75005213
 20
171.35
 30
0.0
 42
1.0
  0
VERTEX
  8
planche2
 10
1118.75005268
 20
165.25
 30
0.0
  0
VERTEX
  8
planche2
 10
1131.15005268
 20
165.25
 30
0.0
 42
1.0
  0
VERTEX
  8
planche2
 10
1131.15000862
 20
171.35
 30
0.0
  0
VERTEX
  8
planche2
 10
1131.15000862
 20
201.25
 30
0.0
 42
1.0
  0
VERTEX
  8
planche2
 10
1131.1500296
 20
207.35
 30
0.0
  0
VERTEX
  8
planche2
 10
1118.7500296
 20
207.35
 30
0.0
 42
1.0
  0
VERTEX
  8
planche2
 10
1118.75005213
 20
201.25
 30
0.0
  0
SEQEND
  8
planche2
  0
POLYLINE
  8
planche2
 62
7
 70
1
 66
1
 10
0.0
 20
0.0
 30
0.0
  0
VERTEX
  8
planche2
 10
1118.75000809
 20
86.15
 30
0.0
 42
1.0
  0
VERTEX
  8
planche2
 10
1118.75000701
 20
80.05
 30
0.0
  0
VERTEX
  8
planche2
 10
1131.15000701
 20
80.05
 30
0.0
 42
1.0
  0
VERTEX
  8
planche2
 10
1131.15000862
 20
86.15
 30
0.0
  0
VERTEX
  8
planche2
 10
1131.15000862
 20
116.05
 30
0.0
 42
1.0
  0
VERTEX
  8
planche2
 10
1131.15000712
 20
122.15
 30
0.0
  0
VERTEX
  8
planche2
 10
1118.75000712
 20
122.15
 30
0.0
 42
1.0
  0
VERTEX
  8
planche2
 10
1118.75000809
 20
116.05
 30
0.0
  0
SEQEND
  8
planche2
  0
ENDBLK
  0
BLOCK
  8
planche2
  2
SKETCH013
 70
0
 10
0.0
 20
0.0
 30
0.0
  3
SKETCH013
  0
POLYLINE
  8
planche2
 62
7
 70
1
 66
1
 10
0.0
 20
0.0
 30
0.0
  0
VERTEX
  8
planche2
 10
792.250003782
 20
390.55
 30
0.0
 42
1.0
  0
VERTEX
  8
planche2
 10
792.25000138
 20
396.65
 30
0.0
  0
VERTEX
  8
planche2
 10
780.00000138
 20
396.65
 30
0.0
  0
VERTEX
  8
planche2
 10
780.00000138
 20
417.6
 30
0.0
  0
VERTEX
  8
planche2
 10
792.25000138
 20
417.6
 30
0.0
 42
1.0
  0
VERTEX
  8
planche2
 10
792.250001712
 20
423.7
 30
0.0
  0
VERTEX
  8
planche2
 10
792.250001712
 20
447.9
 30
0.0
  0
VERTEX
  8
planche2
 10
1223.85000597
 20
447.9
 30
0.0
  0
VERTEX
  8
planche2
 10
1223.85000597
 20
423.7
 30
0.0
 42
1.0
  0
VERTEX
  8
planche2
 10
1223.85000138
 20
417.6
 30
0.0
  0
VERTEX
  8
planche2
 10
1236.10000138
 20
417.6
 30
0.0
  0
VERTEX
  8
planche2
 10
1236.10000138
 20
396.65
 30
0.0
  0
VERTEX
  8
planche2
 10
1223.85000138
 20
396.65
 30
0.0
 42
1.0
  0
VERTEX
  8
planche2
 10
1223.84999878
 20
390.55
 30
0.0
  0
VERTEX
  8
planche2
 10
1223.84999878
 20
338.7
 30
0.0
 42
1.0
  0
VERTEX
  8
planche2
 10
1223.85000316
 20
332.6
 30
0.0
  0
VERTEX
  8
planche2
 10
1236.10000316
 20
332.6
 30
0.0
  0
VERTEX
  8
planche2
 10
1236.10000316
 20
311.65
 30
0.0
  0
VERTEX
  8
planche2
 10
1223.85000316
 20
311.65
 30
0.0
 42
1.0
  0
VERTEX
  8
planche2
 10
1223.8500019
 20
305.55
 30
0.0
  0
VERTEX
  8
planche2
 10
1223.8500019
 20
260.0
 30
0.0
  0
VERTEX
  8
planche2
 10
792.249999632
 20
260.0
 30
0.0
  0
VERTEX
  8
planche2
 10
792.249999632
 20
305.55
 30
0.0
 42
1.0
  0
VERTEX
  8
planche2
 10
792.25
 20
311.65
 30
0.0
  0
VERTEX
  8
planche2
 10
780.0
 20
311.65
 30
0.0
  0
VERTEX
  8
planche2
 10
780.0
 20
332.6
 30
0.0
  0
VERTEX
  8
planche2
 10
792.25
 20
332.6
 30
0.0
 42
1.0
  0
VERTEX
  8
planche2
 10
792.250003782
 20
338.7
 30
0.0
  0
SEQEND
  8
planche2
  0
POLYLINE
  8
planche2
 62
7
 70
1
 66
1
 10
0.0
 20
0.0
 30
0.0
  0
VERTEX
  8
planche2
 10
822.549999632
 20
310.3
 30
0.0
  0
VERTEX
  8
planche2
 10
822.549999632
 20
397.3
 30
0.0
 42
-0.414213562373
  0
VERTEX
  8
planche2
 10
842.549999632
 20
417.3
 30
0.0
  0
VERTEX
  8
planche2
 10
1173.55000597
 20
417.3
 30
0.0
 42
-0.414213562373
  0
VERTEX
  8
planche2
 10
1193.55000597
 20
397.3
 30
0.0
  0
VERTEX
  8
planche2
 10
1193.55000597
 20
310.3
 30
0.0
 42
-0.414213562373
  0
VERTEX
  8
planche2
 10
1173.55000597
 20
290.3
 30
0.0
  0
VERTEX
  8
planche2
 10
842.549999632
 20
290.3
 30
0.0
 42
-0.414213562373
  0
SEQEND
  8
planche2
  0
ENDBLK
  0
BLOCK
  8
planche2
  2
SKETCH014
 70
0
 10
0.0
 20
0.0
 30
0.0
  3
SKETCH014
  0
POLYLINE
  8
planche2
 62
7
 70
1
 66
1
 10
0.0
 20
0.0
 30
0.0
  0
VERTEX
  8
planche2
 10
1319.45
 20
272.250003782
 30
0.0
 42
1.0
  0
VERTEX
  8
planche2
 10
1313.35
 20
272.25000138
 30
0.0
  0
VERTEX
  8
planche2
 10
1313.35
 20
260.00000138
 30
0.0
  0
VERTEX
  8
planche2
 10
1292.4
 20
260.00000138
 30
0.0
  0
VERTEX
  8
planche2
 10
1292.4
 20
272.25000138
 30
0.0
 42
1.0
  0
VERTEX
  8
planche2
 10
1286.3
 20
272.250001712
 30
0.0
  0
VERTEX
  8
planche2
 10
1262.1
 20
272.250001712
 30
0.0
  0
VERTEX
  8
planche2
 10
1262.1
 20
703.850005974
 30
0.0
  0
VERTEX
  8
planche2
 10
1286.3
 20
703.850005974
 30
0.0
 42
1.0
  0
VERTEX
  8
planche2
 10
1292.4
 20
703.85000138
 30
0.0
  0
VERTEX
  8
planche2
 10
1292.4
 20
716.10000138
 30
0.0
  0
VERTEX
  8
planche2
 10
1313.35
 20
716.10000138
 30
0.0
  0
VERTEX
  8
planche2
 10
1313.35
 20
703.85000138
 30
0.0
 42
1.0
  0
VERTEX
  8
planche2
 10
1319.45
 20
703.849998776
 30
0.0
  0
VERTEX
  8
planche2
 10
1371.3
 20
703.849998776
 30
0.0
 42
1.0
  0
VERTEX
  8
planche2
 10
1377.4
 20
703.850003159
 30
0.0
  0
VERTEX
  8
planche2
 10
1377.4
 20
716.100003159
 30
0.0
  0
VERTEX
  8
planche2
 10
1398.35
 20
716.100003159
 30
0.0
  0
VERTEX
  8
planche2
 10
1398.35
 20
703.850003159
 30
0.0
 42
1.0
  0
VERTEX
  8
planche2
 10
1404.45
 20
703.850001896
 30
0.0
  0
VERTEX
  8
planche2
 10
1450.0
 20
703.850001896
 30
0.0
  0
VERTEX
  8
planche2
 10
1450.0
 20
272.249999632
 30
0.0
  0
VERTEX
  8
planche2
 10
1404.45
 20
272.249999632
 30
0.0
 42
1.0
  0
VERTEX
  8
planche2
 10
1398.35
 20
272.25
 30
0.0
  0
VERTEX
  8
planche2
 10
1398.35
 20
260.0
 30
0.0
  0
VERTEX
  8
planche2
 10
1377.4
 20
260.0
 30
0.0
  0
VERTEX
  8
planche2
 10
1377.4
 20
272.25
 30
0.0
 42
1.0
  0
VERTEX
  8
planche2
 10
1371.3
 20
272.250003782
 30
0.0
  0
SEQEND
  8
planche2
  0
POLYLINE
  8
planche2
 62
7
 70
1
 66
1
 10
0.0
 20
0.0
 30
0.0
  0
VERTEX
  8
planche2
 10
1399.7
 20
302.549999632
 30
0.0
  0
VERTEX
  8
planche2
 10
1312.7
 20
302.549999632
 30
0.0
 42
-0.414213562373
  0
VERTEX
  8
planche2
 10
1292.7
 20
322.549999632
 30
0.0
  0
VERTEX
  8
planche2
 10
1292.7
 20
653.550005974
 30
0.0
 42
-0.414213562373
  0
VERTEX
  8
planche2
 10
1312.7
 20
673.550005974
 30
0.0
  0
VERTEX
  8
planche2
 10
1399.7
 20
673.550005974
 30
0.0
 42
-0.414213562373
  0
VERTEX
  8
planche2
 10
1419.7
 20
653.550005974
 30
0.0
  0
VERTEX
  8
planche2
 10
1419.7
 20
322.549999632
 30
0.0
 42
-0.414213562373
  0
SEQEND
  8
planche2
  0
ENDBLK
  0
ENDSEC
  0
SECTION
  2
ENTITIES
  0
INSERT
  2
SKETCH012
  8
planche2
 62
7
 10
0.0
 20
0.0
 30
0.0
  0
INSERT
  2
SKETCH013
  8
planche2
 62
7
 10
0.0
 20
0.0
 30
0.0
  0
INSERT
  2
SKETCH014
  8
planche2
 62
7
 10
0.0
 20
0.0
 30
0.0
  0
ENDSEC
  0
EOF
