  0
SECTION
  2
HEADER
  9
$ACADVER
  1
AC1009
  9
$INSBASE
 10
0.0
 20
0.0
 30
0.0
  9
$EXTMIN
 10
0.0
 20
0.0
 30
0.0
  9
$EXTMAX
 10
0.0
 20
0.0
 30
0.0
  0
ENDSEC
  0
SECTION
  2
TABLES
  0
TABLE
  2
VPORT
 70
0
  0
ENDTAB
  0
TABLE
  2
LTYPE
 70
1
  0
LTYPE
  2
CONTINUOUS
 70
0
  3
Solid line
 72
65
 73
0
 40
0.0
  0
ENDTAB
  0
TABLE
  2
LAYER
 70
1
  0
LAYER
  2
0
 70
64
 62
7
  6
continuous
  0
ENDTAB
  0
TABLE
  2
STYLE
 70
1
  0
STYLE
  2
STANDARD
 70
0
 40
0
 41
1.0
 50
0.0
 71
0
 42
1
 3
ARIAL.TTF
 4

  0
ENDTAB
  0
TABLE
  2
VIEW
 70
0
  0
ENDTAB
  0
ENDSEC
  0
SECTION
  2
BLOCKS
  0
BLOCK
  8
planche3
  2
SKETCH008
 70
0
 10
0.0
 20
0.0
 30
0.0
  3
SKETCH008
  0
POLYLINE
  8
planche3
 62
7
 70
1
 66
1
 10
0.0
 20
0.0
 30
0.0
  0
VERTEX
  8
planche3
 10
1550.0
 20
50.0
 30
0.0
  0
VERTEX
  8
planche3
 10
1737.9
 20
50.0
 30
0.0
  0
VERTEX
  8
planche3
 10
1737.9
 20
925.9
 30
0.0
  0
VERTEX
  8
planche3
 10
1550.0
 20
925.9
 30
0.0
  0
SEQEND
  8
planche3
  0
POLYLINE
  8
planche3
 62
7
 70
1
 66
1
 10
0.0
 20
0.0
 30
0.0
  0
VERTEX
  8
planche3
 10
1580.45
 20
538.4
 30
0.0
  0
VERTEX
  8
planche3
 10
1580.45
 20
875.45
 30
0.0
 42
-0.414213562373
  0
VERTEX
  8
planche3
 10
1600.45
 20
895.45
 30
0.0
  0
VERTEX
  8
planche3
 10
1687.45
 20
895.45
 30
0.0
 42
-0.414213562373
  0
VERTEX
  8
planche3
 10
1707.45
 20
875.45
 30
0.0
  0
VERTEX
  8
planche3
 10
1707.45
 20
538.4
 30
0.0
 42
-0.414213562373
  0
VERTEX
  8
planche3
 10
1687.45
 20
518.4
 30
0.0
  0
VERTEX
  8
planche3
 10
1600.45
 20
518.4
 30
0.0
 42
-0.414213562373
  0
SEQEND
  8
planche3
  0
POLYLINE
  8
planche3
 62
7
 70
1
 66
1
 10
0.0
 20
0.0
 30
0.0
  0
VERTEX
  8
planche3
 10
1580.45
 20
100.45
 30
0.0
  0
VERTEX
  8
planche3
 10
1580.45
 20
437.5
 30
0.0
 42
-0.414213562373
  0
VERTEX
  8
planche3
 10
1600.45
 20
457.5
 30
0.0
  0
VERTEX
  8
planche3
 10
1687.45
 20
457.5
 30
0.0
 42
-0.414213562373
  0
VERTEX
  8
planche3
 10
1707.45
 20
437.5
 30
0.0
  0
VERTEX
  8
planche3
 10
1707.45
 20
100.45
 30
0.0
 42
-0.414213562373
  0
VERTEX
  8
planche3
 10
1687.45
 20
80.45
 30
0.0
  0
VERTEX
  8
planche3
 10
1600.45
 20
80.45
 30
0.0
 42
-0.414213562373
  0
SEQEND
  8
planche3
  0
POLYLINE
  8
planche3
 62
7
 70
1
 66
1
 10
0.0
 20
0.0
 30
0.0
  0
VERTEX
  8
planche3
 10
1586.5
 20
494.000016768
 30
0.0
  0
VERTEX
  8
planche3
 10
1616.4
 20
494.000016768
 30
0.0
 42
-1.0
  0
VERTEX
  8
planche3
 10
1622.5
 20
494.0
 30
0.0
  0
VERTEX
  8
planche3
 10
1622.5
 20
481.9
 30
0.0
 42
-1.00000280496
  0
VERTEX
  8
planche3
 10
1616.4
 20
481.900013756
 30
0.0
  0
VERTEX
  8
planche3
 10
1586.5
 20
481.900013756
 30
0.0
 42
-1.0
  0
VERTEX
  8
planche3
 10
1580.4
 20
481.900016468
 30
0.0
  0
VERTEX
  8
planche3
 10
1580.4
 20
494.000016468
 30
0.0
 42
-1.0
  0
SEQEND
  8
planche3
  0
POLYLINE
  8
planche3
 62
7
 70
1
 66
1
 10
0.0
 20
0.0
 30
0.0
  0
VERTEX
  8
planche3
 10
1671.5
 20
493.999963832
 30
0.0
 42
1.0
  0
VERTEX
  8
planche3
 10
1665.4
 20
493.999968065
 30
0.0
  0
VERTEX
  8
planche3
 10
1665.4
 20
481.899968065
 30
0.0
 42
1.0
  0
VERTEX
  8
planche3
 10
1671.5
 20
481.899966532
 30
0.0
  0
VERTEX
  8
planche3
 10
1701.4
 20
481.899966532
 30
0.0
 42
1.0
  0
VERTEX
  8
planche3
 10
1707.5
 20
481.9
 30
0.0
  0
VERTEX
  8
planche3
 10
1707.5
 20
494.0
 30
0.0
 42
1.0
  0
VERTEX
  8
planche3
 10
1701.4
 20
493.999963832
 30
0.0
  0
SEQEND
  8
planche3
  0
ENDBLK
  0
BLOCK
  8
planche3
  2
SKETCH009
 70
0
 10
0.0
 20
0.0
 30
0.0
  3
SKETCH009
  0
POLYLINE
  8
planche3
 62
7
 70
1
 66
1
 10
0.0
 20
0.0
 30
0.0
  0
VERTEX
  8
planche3
 10
1770.0
 20
50.0
 30
0.0
  0
VERTEX
  8
planche3
 10
1957.9
 20
50.0
 30
0.0
  0
VERTEX
  8
planche3
 10
1957.9
 20
925.9
 30
0.0
  0
VERTEX
  8
planche3
 10
1770.0
 20
925.9
 30
0.0
  0
SEQEND
  8
planche3
  0
POLYLINE
  8
planche3
 62
7
 70
1
 66
1
 10
0.0
 20
0.0
 30
0.0
  0
VERTEX
  8
planche3
 10
1800.45
 20
538.4
 30
0.0
  0
VERTEX
  8
planche3
 10
1800.45
 20
875.45
 30
0.0
 42
-0.414213562373
  0
VERTEX
  8
planche3
 10
1820.45
 20
895.45
 30
0.0
  0
VERTEX
  8
planche3
 10
1907.45
 20
895.45
 30
0.0
 42
-0.414213562373
  0
VERTEX
  8
planche3
 10
1927.45
 20
875.45
 30
0.0
  0
VERTEX
  8
planche3
 10
1927.45
 20
538.4
 30
0.0
 42
-0.414213562373
  0
VERTEX
  8
planche3
 10
1907.45
 20
518.4
 30
0.0
  0
VERTEX
  8
planche3
 10
1820.45
 20
518.4
 30
0.0
 42
-0.414213562373
  0
SEQEND
  8
planche3
  0
POLYLINE
  8
planche3
 62
7
 70
1
 66
1
 10
0.0
 20
0.0
 30
0.0
  0
VERTEX
  8
planche3
 10
1800.45
 20
100.45
 30
0.0
  0
VERTEX
  8
planche3
 10
1800.45
 20
437.5
 30
0.0
 42
-0.414213562373
  0
VERTEX
  8
planche3
 10
1820.45
 20
457.5
 30
0.0
  0
VERTEX
  8
planche3
 10
1907.45
 20
457.5
 30
0.0
 42
-0.414213562373
  0
VERTEX
  8
planche3
 10
1927.45
 20
437.5
 30
0.0
  0
VERTEX
  8
planche3
 10
1927.45
 20
100.45
 30
0.0
 42
-0.414213562373
  0
VERTEX
  8
planche3
 10
1907.45
 20
80.45
 30
0.0
  0
VERTEX
  8
planche3
 10
1820.45
 20
80.45
 30
0.0
 42
-0.414213562373
  0
SEQEND
  8
planche3
  0
POLYLINE
  8
planche3
 62
7
 70
1
 66
1
 10
0.0
 20
0.0
 30
0.0
  0
VERTEX
  8
planche3
 10
1806.5
 20
494.000016768
 30
0.0
  0
VERTEX
  8
planche3
 10
1836.4
 20
494.000016768
 30
0.0
 42
-1.0
  0
VERTEX
  8
planche3
 10
1842.5
 20
494.0
 30
0.0
  0
VERTEX
  8
planche3
 10
1842.5
 20
481.9
 30
0.0
 42
-1.00000280496
  0
VERTEX
  8
planche3
 10
1836.4
 20
481.900013756
 30
0.0
  0
VERTEX
  8
planche3
 10
1806.5
 20
481.900013756
 30
0.0
 42
-1.0
  0
VERTEX
  8
planche3
 10
1800.4
 20
481.900016468
 30
0.0
  0
VERTEX
  8
planche3
 10
1800.4
 20
494.000016468
 30
0.0
 42
-1.0
  0
SEQEND
  8
planche3
  0
POLYLINE
  8
planche3
 62
7
 70
1
 66
1
 10
0.0
 20
0.0
 30
0.0
  0
VERTEX
  8
planche3
 10
1891.5
 20
493.999963832
 30
0.0
 42
1.0
  0
VERTEX
  8
planche3
 10
1885.4
 20
493.999968065
 30
0.0
  0
VERTEX
  8
planche3
 10
1885.4
 20
481.899968065
 30
0.0
 42
1.0
  0
VERTEX
  8
planche3
 10
1891.5
 20
481.899966532
 30
0.0
  0
VERTEX
  8
planche3
 10
1921.4
 20
481.899966532
 30
0.0
 42
1.0
  0
VERTEX
  8
planche3
 10
1927.5
 20
481.9
 30
0.0
  0
VERTEX
  8
planche3
 10
1927.5
 20
494.0
 30
0.0
 42
1.0
  0
VERTEX
  8
planche3
 10
1921.4
 20
493.999963832
 30
0.0
  0
SEQEND
  8
planche3
  0
ENDBLK
  0
BLOCK
  8
planche3
  2
SKETCH010
 70
0
 10
0.0
 20
0.0
 30
0.0
  3
SKETCH010
  0
POLYLINE
  8
planche3
 62
7
 70
1
 66
1
 10
0.0
 20
0.0
 30
0.0
  0
VERTEX
  8
planche3
 10
1990.0
 20
50.0
 30
0.0
  0
VERTEX
  8
planche3
 10
2177.9
 20
50.0
 30
0.0
  0
VERTEX
  8
planche3
 10
2177.9
 20
700.0
 30
0.0
  0
VERTEX
  8
planche3
 10
1990.0
 20
700.0
 30
0.0
  0
SEQEND
  8
planche3
  0
POLYLINE
  8
planche3
 62
7
 70
1
 66
1
 10
0.0
 20
0.0
 30
0.0
  0
VERTEX
  8
planche3
 10
2020.45
 20
425.45
 30
0.0
  0
VERTEX
  8
planche3
 10
2020.45
 20
649.55
 30
0.0
 42
-0.414213562373
  0
VERTEX
  8
planche3
 10
2040.45
 20
669.55
 30
0.0
  0
VERTEX
  8
planche3
 10
2127.45
 20
669.55
 30
0.0
 42
-0.414213562373
  0
VERTEX
  8
planche3
 10
2147.45
 20
649.55
 30
0.0
  0
VERTEX
  8
planche3
 10
2147.45
 20
425.45
 30
0.0
 42
-0.414213562373
  0
VERTEX
  8
planche3
 10
2127.45
 20
405.45
 30
0.0
  0
VERTEX
  8
planche3
 10
2040.45
 20
405.45
 30
0.0
 42
-0.414213562373
  0
SEQEND
  8
planche3
  0
POLYLINE
  8
planche3
 62
7
 70
1
 66
1
 10
0.0
 20
0.0
 30
0.0
  0
VERTEX
  8
planche3
 10
2040.45
 20
344.55
 30
0.0
  0
VERTEX
  8
planche3
 10
2127.45
 20
344.55
 30
0.0
 42
-0.414213562373
  0
VERTEX
  8
planche3
 10
2147.45
 20
324.55
 30
0.0
  0
VERTEX
  8
planche3
 10
2147.45
 20
100.45
 30
0.0
 42
-0.414213562373
  0
VERTEX
  8
planche3
 10
2127.45
 20
80.45
 30
0.0
  0
VERTEX
  8
planche3
 10
2040.45
 20
80.45
 30
0.0
 42
-0.414213562373
  0
VERTEX
  8
planche3
 10
2020.45
 20
100.45
 30
0.0
  0
VERTEX
  8
planche3
 10
2020.45
 20
324.55
 30
0.0
 42
-0.414213562373
  0
SEQEND
  8
planche3
  0
POLYLINE
  8
planche3
 62
7
 70
1
 66
1
 10
0.0
 20
0.0
 30
0.0
  0
VERTEX
  8
planche3
 10
2062.5
 20
382.048199237
 30
0.0
 42
1.0
  0
VERTEX
  8
planche3
 10
2056.4
 20
382.04820105
 30
0.0
  0
VERTEX
  8
planche3
 10
2026.5
 20
382.04820105
 30
0.0
 42
1.0
  0
VERTEX
  8
planche3
 10
2020.4
 20
382.048204748
 30
0.0
  0
VERTEX
  8
planche3
 10
2020.4
 20
369.948204748
 30
0.0
 42
1.0
  0
VERTEX
  8
planche3
 10
2026.5
 20
369.948203024
 30
0.0
  0
VERTEX
  8
planche3
 10
2056.4
 20
369.948203024
 30
0.0
 42
1.0
  0
VERTEX
  8
planche3
 10
2062.5
 20
369.948199237
 30
0.0
  0
SEQEND
  8
planche3
  0
POLYLINE
  8
planche3
 62
7
 70
1
 66
1
 10
0.0
 20
0.0
 30
0.0
  0
VERTEX
  8
planche3
 10
2111.5
 20
381.05
 30
0.0
 42
1.0
  0
VERTEX
  8
planche3
 10
2105.4
 20
381.050004459
 30
0.0
  0
VERTEX
  8
planche3
 10
2105.4
 20
368.950004459
 30
0.0
 42
1.0
  0
VERTEX
  8
planche3
 10
2111.5
 20
368.949999502
 30
0.0
  0
VERTEX
  8
planche3
 10
2141.4
 20
368.949999502
 30
0.0
 42
1.0
  0
VERTEX
  8
planche3
 10
2147.5
 20
368.949998948
 30
0.0
  0
VERTEX
  8
planche3
 10
2147.5
 20
381.049998948
 30
0.0
 42
1.0
  0
VERTEX
  8
planche3
 10
2141.4
 20
381.05
 30
0.0
  0
SEQEND
  8
planche3
  0
ENDBLK
  0
BLOCK
  8
planche3
  2
SKETCH011
 70
0
 10
0.0
 20
0.0
 30
0.0
  3
SKETCH011
  0
POLYLINE
  8
planche3
 62
7
 70
1
 66
1
 10
0.0
 20
0.0
 30
0.0
  0
VERTEX
  8
planche3
 10
1540.0
 20
1150.0
 30
0.0
  0
VERTEX
  8
planche3
 10
1540.0
 20
962.1
 30
0.0
  0
VERTEX
  8
planche3
 10
2190.0
 20
962.1
 30
0.0
  0
VERTEX
  8
planche3
 10
2190.0
 20
1150.0
 30
0.0
  0
SEQEND
  8
planche3
  0
POLYLINE
  8
planche3
 62
7
 70
1
 66
1
 10
0.0
 20
0.0
 30
0.0
  0
VERTEX
  8
planche3
 10
1915.45
 20
1119.55
 30
0.0
  0
VERTEX
  8
planche3
 10
2139.55
 20
1119.55
 30
0.0
 42
-0.414213562373
  0
VERTEX
  8
planche3
 10
2159.55
 20
1099.55
 30
0.0
  0
VERTEX
  8
planche3
 10
2159.55
 20
1012.55
 30
0.0
 42
-0.414213562373
  0
VERTEX
  8
planche3
 10
2139.55
 20
992.55
 30
0.0
  0
VERTEX
  8
planche3
 10
1915.45
 20
992.55
 30
0.0
 42
-0.414213562373
  0
VERTEX
  8
planche3
 10
1895.45
 20
1012.55
 30
0.0
  0
VERTEX
  8
planche3
 10
1895.45
 20
1099.55
 30
0.0
 42
-0.414213562373
  0
SEQEND
  8
planche3
  0
POLYLINE
  8
planche3
 62
7
 70
1
 66
1
 10
0.0
 20
0.0
 30
0.0
  0
VERTEX
  8
planche3
 10
1834.55
 20
1099.55
 30
0.0
  0
VERTEX
  8
planche3
 10
1834.55
 20
1012.55
 30
0.0
 42
-0.414213562373
  0
VERTEX
  8
planche3
 10
1814.55
 20
992.55
 30
0.0
  0
VERTEX
  8
planche3
 10
1590.45
 20
992.55
 30
0.0
 42
-0.414213562373
  0
VERTEX
  8
planche3
 10
1570.45
 20
1012.55
 30
0.0
  0
VERTEX
  8
planche3
 10
1570.45
 20
1099.55
 30
0.0
 42
-0.414213562373
  0
VERTEX
  8
planche3
 10
1590.45
 20
1119.55
 30
0.0
  0
VERTEX
  8
planche3
 10
1814.55
 20
1119.55
 30
0.0
 42
-0.414213562373
  0
SEQEND
  8
planche3
  0
POLYLINE
  8
planche3
 62
7
 70
1
 66
1
 10
0.0
 20
0.0
 30
0.0
  0
VERTEX
  8
planche3
 10
1872.04819924
 20
1077.5
 30
0.0
 42
1.0
  0
VERTEX
  8
planche3
 10
1872.04820105
 20
1083.6
 30
0.0
  0
VERTEX
  8
planche3
 10
1872.04820105
 20
1113.5
 30
0.0
 42
1.0
  0
VERTEX
  8
planche3
 10
1872.04820475
 20
1119.6
 30
0.0
  0
VERTEX
  8
planche3
 10
1859.94820475
 20
1119.6
 30
0.0
 42
1.0
  0
VERTEX
  8
planche3
 10
1859.94820302
 20
1113.5
 30
0.0
  0
VERTEX
  8
planche3
 10
1859.94820302
 20
1083.6
 30
0.0
 42
1.0
  0
VERTEX
  8
planche3
 10
1859.94819924
 20
1077.5
 30
0.0
  0
SEQEND
  8
planche3
  0
POLYLINE
  8
planche3
 62
7
 70
1
 66
1
 10
0.0
 20
0.0
 30
0.0
  0
VERTEX
  8
planche3
 10
1871.05
 20
1028.5
 30
0.0
 42
1.0
  0
VERTEX
  8
planche3
 10
1871.05000446
 20
1034.6
 30
0.0
  0
VERTEX
  8
planche3
 10
1858.95000446
 20
1034.6
 30
0.0
 42
1.0
  0
VERTEX
  8
planche3
 10
1858.9499995
 20
1028.5
 30
0.0
  0
VERTEX
  8
planche3
 10
1858.9499995
 20
998.6
 30
0.0
 42
1.0
  0
VERTEX
  8
planche3
 10
1858.94999895
 20
992.5
 30
0.0
  0
VERTEX
  8
planche3
 10
1871.04999895
 20
992.5
 30
0.0
 42
1.0
  0
VERTEX
  8
planche3
 10
1871.05
 20
998.6
 30
0.0
  0
SEQEND
  8
planche3
  0
ENDBLK
  0
ENDSEC
  0
SECTION
  2
ENTITIES
  0
INSERT
  2
SKETCH008
  8
planche3
 62
7
 10
0.0
 20
0.0
 30
0.0
  0
INSERT
  2
SKETCH009
  8
planche3
 62
7
 10
0.0
 20
0.0
 30
0.0
  0
INSERT
  2
SKETCH010
  8
planche3
 62
7
 10
0.0
 20
0.0
 30
0.0
  0
INSERT
  2
SKETCH011
  8
planche3
 62
7
 10
0.0
 20
0.0
 30
0.0
  0
ENDSEC
  0
EOF
