  0
SECTION
  2
HEADER
  9
$ACADVER
  1
AC1009
  9
$INSBASE
 10
0.0
 20
0.0
 30
0.0
  9
$EXTMIN
 10
0.0
 20
0.0
 30
0.0
  9
$EXTMAX
 10
0.0
 20
0.0
 30
0.0
  0
ENDSEC
  0
SECTION
  2
TABLES
  0
TABLE
  2
VPORT
 70
0
  0
ENDTAB
  0
TABLE
  2
LTYPE
 70
1
  0
LTYPE
  2
CONTINUOUS
 70
0
  3
Solid line
 72
65
 73
0
 40
0.0
  0
ENDTAB
  0
TABLE
  2
LAYER
 70
1
  0
LAYER
  2
0
 70
64
 62
7
  6
continuous
  0
ENDTAB
  0
TABLE
  2
STYLE
 70
1
  0
STYLE
  2
STANDARD
 70
0
 40
0
 41
1.0
 50
0.0
 71
0
 42
1
 3
ARIAL.TTF
 4

  0
ENDTAB
  0
TABLE
  2
VIEW
 70
0
  0
ENDTAB
  0
ENDSEC
  0
SECTION
  2
BLOCKS
  0
BLOCK
  8
planche3
  2
SKETCH008
 70
0
 10
0.0
 20
0.0
 30
0.0
  3
SKETCH008
  0
POLYLINE
  8
planche3
 62
7
 70
1
 66
1
 10
0.0
 20
0.0
 30
0.0
  0
VERTEX
  8
planche3
 10
1550.0
 20
50.0
 30
0.0
  0
VERTEX
  8
planche3
 10
1737.6
 20
50.0
 30
0.0
  0
VERTEX
  8
planche3
 10
1737.6
 20
925.3
 30
0.0
  0
VERTEX
  8
planche3
 10
1550.0
 20
925.3
 30
0.0
  0
SEQEND
  8
planche3
  0
POLYLINE
  8
planche3
 62
7
 70
1
 66
1
 10
0.0
 20
0.0
 30
0.0
  0
VERTEX
  8
planche3
 10
1580.3
 20
537.95
 30
0.0
  0
VERTEX
  8
planche3
 10
1580.3
 20
875.0
 30
0.0
 42
-0.414213562373
  0
VERTEX
  8
planche3
 10
1600.3
 20
895.0
 30
0.0
  0
VERTEX
  8
planche3
 10
1687.3
 20
895.0
 30
0.0
 42
-0.414213562373
  0
VERTEX
  8
planche3
 10
1707.3
 20
875.0
 30
0.0
  0
VERTEX
  8
planche3
 10
1707.3
 20
537.95
 30
0.0
 42
-0.414213562373
  0
VERTEX
  8
planche3
 10
1687.3
 20
517.95
 30
0.0
  0
VERTEX
  8
planche3
 10
1600.3
 20
517.95
 30
0.0
 42
-0.414213562373
  0
SEQEND
  8
planche3
  0
POLYLINE
  8
planche3
 62
7
 70
1
 66
1
 10
0.0
 20
0.0
 30
0.0
  0
VERTEX
  8
planche3
 10
1580.3
 20
100.3
 30
0.0
  0
VERTEX
  8
planche3
 10
1580.3
 20
437.35
 30
0.0
 42
-0.414213562373
  0
VERTEX
  8
planche3
 10
1600.3
 20
457.35
 30
0.0
  0
VERTEX
  8
planche3
 10
1687.3
 20
457.35
 30
0.0
 42
-0.414213562373
  0
VERTEX
  8
planche3
 10
1707.3
 20
437.35
 30
0.0
  0
VERTEX
  8
planche3
 10
1707.3
 20
100.3
 30
0.0
 42
-0.414213562373
  0
VERTEX
  8
planche3
 10
1687.3
 20
80.3
 30
0.0
  0
VERTEX
  8
planche3
 10
1600.3
 20
80.3
 30
0.0
 42
-0.414213562373
  0
SEQEND
  8
planche3
  0
POLYLINE
  8
planche3
 62
7
 70
1
 66
1
 10
0.0
 20
0.0
 30
0.0
  0
VERTEX
  8
planche3
 10
1586.35
 20
493.849980876
 30
0.0
  0
VERTEX
  8
planche3
 10
1616.25
 20
493.849980876
 30
0.0
 42
-1.0
  0
VERTEX
  8
planche3
 10
1622.35
 20
493.85
 30
0.0
  0
VERTEX
  8
planche3
 10
1622.35
 20
481.45
 30
0.0
 42
-0.999998648916
  0
VERTEX
  8
planche3
 10
1616.25
 20
481.449983531
 30
0.0
  0
VERTEX
  8
planche3
 10
1586.35
 20
481.449983531
 30
0.0
 42
-1.0
  0
VERTEX
  8
planche3
 10
1580.25
 20
481.449978934
 30
0.0
  0
VERTEX
  8
planche3
 10
1580.25
 20
493.849978934
 30
0.0
 42
-1.0
  0
SEQEND
  8
planche3
  0
POLYLINE
  8
planche3
 62
7
 70
1
 66
1
 10
0.0
 20
0.0
 30
0.0
  0
VERTEX
  8
planche3
 10
1671.35
 20
493.850022828
 30
0.0
 42
1.0
  0
VERTEX
  8
planche3
 10
1665.25
 20
493.850021609
 30
0.0
  0
VERTEX
  8
planche3
 10
1665.25
 20
481.450021609
 30
0.0
 42
1.0
  0
VERTEX
  8
planche3
 10
1671.35
 20
481.450017534
 30
0.0
  0
VERTEX
  8
planche3
 10
1701.25
 20
481.450017534
 30
0.0
 42
1.0
  0
VERTEX
  8
planche3
 10
1707.35
 20
481.45
 30
0.0
  0
VERTEX
  8
planche3
 10
1707.35
 20
493.85
 30
0.0
 42
1.0
  0
VERTEX
  8
planche3
 10
1701.25
 20
493.850022828
 30
0.0
  0
SEQEND
  8
planche3
  0
ENDBLK
  0
BLOCK
  8
planche3
  2
SKETCH009
 70
0
 10
0.0
 20
0.0
 30
0.0
  3
SKETCH009
  0
POLYLINE
  8
planche3
 62
7
 70
1
 66
1
 10
0.0
 20
0.0
 30
0.0
  0
VERTEX
  8
planche3
 10
1770.0
 20
50.0
 30
0.0
  0
VERTEX
  8
planche3
 10
1957.6
 20
50.0
 30
0.0
  0
VERTEX
  8
planche3
 10
1957.6
 20
925.3
 30
0.0
  0
VERTEX
  8
planche3
 10
1770.0
 20
925.3
 30
0.0
  0
SEQEND
  8
planche3
  0
POLYLINE
  8
planche3
 62
7
 70
1
 66
1
 10
0.0
 20
0.0
 30
0.0
  0
VERTEX
  8
planche3
 10
1800.3
 20
537.95
 30
0.0
  0
VERTEX
  8
planche3
 10
1800.3
 20
875.0
 30
0.0
 42
-0.414213562373
  0
VERTEX
  8
planche3
 10
1820.3
 20
895.0
 30
0.0
  0
VERTEX
  8
planche3
 10
1907.3
 20
895.0
 30
0.0
 42
-0.414213562373
  0
VERTEX
  8
planche3
 10
1927.3
 20
875.0
 30
0.0
  0
VERTEX
  8
planche3
 10
1927.3
 20
537.95
 30
0.0
 42
-0.414213562373
  0
VERTEX
  8
planche3
 10
1907.3
 20
517.95
 30
0.0
  0
VERTEX
  8
planche3
 10
1820.3
 20
517.95
 30
0.0
 42
-0.414213562373
  0
SEQEND
  8
planche3
  0
POLYLINE
  8
planche3
 62
7
 70
1
 66
1
 10
0.0
 20
0.0
 30
0.0
  0
VERTEX
  8
planche3
 10
1800.3
 20
100.3
 30
0.0
  0
VERTEX
  8
planche3
 10
1800.3
 20
437.35
 30
0.0
 42
-0.414213562373
  0
VERTEX
  8
planche3
 10
1820.3
 20
457.35
 30
0.0
  0
VERTEX
  8
planche3
 10
1907.3
 20
457.35
 30
0.0
 42
-0.414213562373
  0
VERTEX
  8
planche3
 10
1927.3
 20
437.35
 30
0.0
  0
VERTEX
  8
planche3
 10
1927.3
 20
100.3
 30
0.0
 42
-0.414213562373
  0
VERTEX
  8
planche3
 10
1907.3
 20
80.3
 30
0.0
  0
VERTEX
  8
planche3
 10
1820.3
 20
80.3
 30
0.0
 42
-0.414213562373
  0
SEQEND
  8
planche3
  0
POLYLINE
  8
planche3
 62
7
 70
1
 66
1
 10
0.0
 20
0.0
 30
0.0
  0
VERTEX
  8
planche3
 10
1806.35
 20
493.849980825
 30
0.0
  0
VERTEX
  8
planche3
 10
1836.25
 20
493.849980825
 30
0.0
 42
-1.0
  0
VERTEX
  8
planche3
 10
1842.35
 20
493.85
 30
0.0
  0
VERTEX
  8
planche3
 10
1842.35
 20
481.45
 30
0.0
 42
-0.999997648276
  0
VERTEX
  8
planche3
 10
1836.25
 20
481.449977413
 30
0.0
  0
VERTEX
  8
planche3
 10
1806.35
 20
481.449977413
 30
0.0
 42
-1.0
  0
VERTEX
  8
planche3
 10
1800.25
 20
481.44998023
 30
0.0
  0
VERTEX
  8
planche3
 10
1800.25
 20
493.84998023
 30
0.0
 42
-1.0
  0
SEQEND
  8
planche3
  0
POLYLINE
  8
planche3
 62
7
 70
1
 66
1
 10
0.0
 20
0.0
 30
0.0
  0
VERTEX
  8
planche3
 10
1891.35
 20
493.850018963
 30
0.0
 42
1.0
  0
VERTEX
  8
planche3
 10
1885.25
 20
493.850017283
 30
0.0
  0
VERTEX
  8
planche3
 10
1885.25
 20
481.450017283
 30
0.0
 42
1.0
  0
VERTEX
  8
planche3
 10
1891.35
 20
481.450017443
 30
0.0
  0
VERTEX
  8
planche3
 10
1921.25
 20
481.450017443
 30
0.0
 42
1.0
  0
VERTEX
  8
planche3
 10
1927.35
 20
481.45
 30
0.0
  0
VERTEX
  8
planche3
 10
1927.35
 20
493.85
 30
0.0
 42
1.0
  0
VERTEX
  8
planche3
 10
1921.25
 20
493.850018963
 30
0.0
  0
SEQEND
  8
planche3
  0
ENDBLK
  0
BLOCK
  8
planche3
  2
SKETCH010
 70
0
 10
0.0
 20
0.0
 30
0.0
  3
SKETCH010
  0
POLYLINE
  8
planche3
 62
7
 70
1
 66
1
 10
0.0
 20
0.0
 30
0.0
  0
VERTEX
  8
planche3
 10
1990.0
 20
50.0
 30
0.0
  0
VERTEX
  8
planche3
 10
2177.9
 20
50.0
 30
0.0
  0
VERTEX
  8
planche3
 10
2177.9
 20
700.0
 30
0.0
  0
VERTEX
  8
planche3
 10
1990.0
 20
700.0
 30
0.0
  0
SEQEND
  8
planche3
  0
POLYLINE
  8
planche3
 62
7
 70
1
 66
1
 10
0.0
 20
0.0
 30
0.0
  0
VERTEX
  8
planche3
 10
2020.45
 20
425.45
 30
0.0
  0
VERTEX
  8
planche3
 10
2020.45
 20
649.55
 30
0.0
 42
-0.414213562373
  0
VERTEX
  8
planche3
 10
2040.45
 20
669.55
 30
0.0
  0
VERTEX
  8
planche3
 10
2127.45
 20
669.55
 30
0.0
 42
-0.414213562373
  0
VERTEX
  8
planche3
 10
2147.45
 20
649.55
 30
0.0
  0
VERTEX
  8
planche3
 10
2147.45
 20
425.45
 30
0.0
 42
-0.414213562373
  0
VERTEX
  8
planche3
 10
2127.45
 20
405.45
 30
0.0
  0
VERTEX
  8
planche3
 10
2040.45
 20
405.45
 30
0.0
 42
-0.414213562373
  0
SEQEND
  8
planche3
  0
POLYLINE
  8
planche3
 62
7
 70
1
 66
1
 10
0.0
 20
0.0
 30
0.0
  0
VERTEX
  8
planche3
 10
2040.45
 20
344.55
 30
0.0
  0
VERTEX
  8
planche3
 10
2127.45
 20
344.55
 30
0.0
 42
-0.414213562373
  0
VERTEX
  8
planche3
 10
2147.45
 20
324.55
 30
0.0
  0
VERTEX
  8
planche3
 10
2147.45
 20
100.45
 30
0.0
 42
-0.414213562373
  0
VERTEX
  8
planche3
 10
2127.45
 20
80.45
 30
0.0
  0
VERTEX
  8
planche3
 10
2040.45
 20
80.45
 30
0.0
 42
-0.414213562373
  0
VERTEX
  8
planche3
 10
2020.45
 20
100.45
 30
0.0
  0
VERTEX
  8
planche3
 10
2020.45
 20
324.55
 30
0.0
 42
-0.414213562373
  0
SEQEND
  8
planche3
  0
POLYLINE
  8
planche3
 62
7
 70
1
 66
1
 10
0.0
 20
0.0
 30
0.0
  0
VERTEX
  8
planche3
 10
2062.5
 20
382.048199237
 30
0.0
 42
1.0
  0
VERTEX
  8
planche3
 10
2056.4
 20
382.04820105
 30
0.0
  0
VERTEX
  8
planche3
 10
2026.5
 20
382.04820105
 30
0.0
 42
1.0
  0
VERTEX
  8
planche3
 10
2020.4
 20
382.048204748
 30
0.0
  0
VERTEX
  8
planche3
 10
2020.4
 20
369.948204748
 30
0.0
 42
1.0
  0
VERTEX
  8
planche3
 10
2026.5
 20
369.948203024
 30
0.0
  0
VERTEX
  8
planche3
 10
2056.4
 20
369.948203024
 30
0.0
 42
1.0
  0
VERTEX
  8
planche3
 10
2062.5
 20
369.948199237
 30
0.0
  0
SEQEND
  8
planche3
  0
POLYLINE
  8
planche3
 62
7
 70
1
 66
1
 10
0.0
 20
0.0
 30
0.0
  0
VERTEX
  8
planche3
 10
2111.5
 20
381.05
 30
0.0
 42
1.0
  0
VERTEX
  8
planche3
 10
2105.4
 20
381.050004459
 30
0.0
  0
VERTEX
  8
planche3
 10
2105.4
 20
368.950004459
 30
0.0
 42
1.0
  0
VERTEX
  8
planche3
 10
2111.5
 20
368.949999502
 30
0.0
  0
VERTEX
  8
planche3
 10
2141.4
 20
368.949999502
 30
0.0
 42
1.0
  0
VERTEX
  8
planche3
 10
2147.5
 20
368.949998948
 30
0.0
  0
VERTEX
  8
planche3
 10
2147.5
 20
381.049998948
 30
0.0
 42
1.0
  0
VERTEX
  8
planche3
 10
2141.4
 20
381.05
 30
0.0
  0
SEQEND
  8
planche3
  0
ENDBLK
  0
BLOCK
  8
planche3
  2
SKETCH011
 70
0
 10
0.0
 20
0.0
 30
0.0
  3
SKETCH011
  0
POLYLINE
  8
planche3
 62
7
 70
1
 66
1
 10
0.0
 20
0.0
 30
0.0
  0
VERTEX
  8
planche3
 10
1540.0
 20
1150.0
 30
0.0
  0
VERTEX
  8
planche3
 10
1540.0
 20
962.1
 30
0.0
  0
VERTEX
  8
planche3
 10
2190.0
 20
962.1
 30
0.0
  0
VERTEX
  8
planche3
 10
2190.0
 20
1150.0
 30
0.0
  0
SEQEND
  8
planche3
  0
POLYLINE
  8
planche3
 62
7
 70
1
 66
1
 10
0.0
 20
0.0
 30
0.0
  0
VERTEX
  8
planche3
 10
1915.45
 20
1119.55
 30
0.0
  0
VERTEX
  8
planche3
 10
2139.55
 20
1119.55
 30
0.0
 42
-0.414213562373
  0
VERTEX
  8
planche3
 10
2159.55
 20
1099.55
 30
0.0
  0
VERTEX
  8
planche3
 10
2159.55
 20
1012.55
 30
0.0
 42
-0.414213562373
  0
VERTEX
  8
planche3
 10
2139.55
 20
992.55
 30
0.0
  0
VERTEX
  8
planche3
 10
1915.45
 20
992.55
 30
0.0
 42
-0.414213562373
  0
VERTEX
  8
planche3
 10
1895.45
 20
1012.55
 30
0.0
  0
VERTEX
  8
planche3
 10
1895.45
 20
1099.55
 30
0.0
 42
-0.414213562373
  0
SEQEND
  8
planche3
  0
POLYLINE
  8
planche3
 62
7
 70
1
 66
1
 10
0.0
 20
0.0
 30
0.0
  0
VERTEX
  8
planche3
 10
1834.55
 20
1099.55
 30
0.0
  0
VERTEX
  8
planche3
 10
1834.55
 20
1012.55
 30
0.0
 42
-0.414213562373
  0
VERTEX
  8
planche3
 10
1814.55
 20
992.55
 30
0.0
  0
VERTEX
  8
planche3
 10
1590.45
 20
992.55
 30
0.0
 42
-0.414213562373
  0
VERTEX
  8
planche3
 10
1570.45
 20
1012.55
 30
0.0
  0
VERTEX
  8
planche3
 10
1570.45
 20
1099.55
 30
0.0
 42
-0.414213562373
  0
VERTEX
  8
planche3
 10
1590.45
 20
1119.55
 30
0.0
  0
VERTEX
  8
planche3
 10
1814.55
 20
1119.55
 30
0.0
 42
-0.414213562373
  0
SEQEND
  8
planche3
  0
POLYLINE
  8
planche3
 62
7
 70
1
 66
1
 10
0.0
 20
0.0
 30
0.0
  0
VERTEX
  8
planche3
 10
1872.04819924
 20
1077.5
 30
0.0
 42
1.0
  0
VERTEX
  8
planche3
 10
1872.04820105
 20
1083.6
 30
0.0
  0
VERTEX
  8
planche3
 10
1872.04820105
 20
1113.5
 30
0.0
 42
1.0
  0
VERTEX
  8
planche3
 10
1872.04820475
 20
1119.6
 30
0.0
  0
VERTEX
  8
planche3
 10
1859.94820475
 20
1119.6
 30
0.0
 42
1.0
  0
VERTEX
  8
planche3
 10
1859.94820302
 20
1113.5
 30
0.0
  0
VERTEX
  8
planche3
 10
1859.94820302
 20
1083.6
 30
0.0
 42
1.0
  0
VERTEX
  8
planche3
 10
1859.94819924
 20
1077.5
 30
0.0
  0
SEQEND
  8
planche3
  0
POLYLINE
  8
planche3
 62
7
 70
1
 66
1
 10
0.0
 20
0.0
 30
0.0
  0
VERTEX
  8
planche3
 10
1871.05
 20
1028.5
 30
0.0
 42
1.0
  0
VERTEX
  8
planche3
 10
1871.05000446
 20
1034.6
 30
0.0
  0
VERTEX
  8
planche3
 10
1858.95000446
 20
1034.6
 30
0.0
 42
1.0
  0
VERTEX
  8
planche3
 10
1858.9499995
 20
1028.5
 30
0.0
  0
VERTEX
  8
planche3
 10
1858.9499995
 20
998.6
 30
0.0
 42
1.0
  0
VERTEX
  8
planche3
 10
1858.94999895
 20
992.5
 30
0.0
  0
VERTEX
  8
planche3
 10
1871.04999895
 20
992.5
 30
0.0
 42
1.0
  0
VERTEX
  8
planche3
 10
1871.05
 20
998.6
 30
0.0
  0
SEQEND
  8
planche3
  0
ENDBLK
  0
ENDSEC
  0
SECTION
  2
ENTITIES
  0
INSERT
  2
SKETCH008
  8
planche3
 62
7
 10
0.0
 20
0.0
 30
0.0
  0
INSERT
  2
SKETCH009
  8
planche3
 62
7
 10
0.0
 20
0.0
 30
0.0
  0
INSERT
  2
SKETCH010
  8
planche3
 62
7
 10
0.0
 20
0.0
 30
0.0
  0
INSERT
  2
SKETCH011
  8
planche3
 62
7
 10
0.0
 20
0.0
 30
0.0
  0
ENDSEC
  0
EOF
