  0
SECTION
  2
HEADER
  9
$ACADVER
  1
AC1009
  9
$INSBASE
 10
0.0
 20
0.0
 30
0.0
  9
$EXTMIN
 10
0.0
 20
0.0
 30
0.0
  9
$EXTMAX
 10
0.0
 20
0.0
 30
0.0
  0
ENDSEC
  0
SECTION
  2
TABLES
  0
TABLE
  2
VPORT
 70
0
  0
ENDTAB
  0
TABLE
  2
LTYPE
 70
1
  0
LTYPE
  2
CONTINUOUS
 70
0
  3
Solid line
 72
65
 73
0
 40
0.0
  0
ENDTAB
  0
TABLE
  2
LAYER
 70
1
  0
LAYER
  2
0
 70
64
 62
7
  6
continuous
  0
ENDTAB
  0
TABLE
  2
STYLE
 70
1
  0
STYLE
  2
STANDARD
 70
0
 40
0
 41
1.0
 50
0.0
 71
0
 42
1
 3
ARIAL.TTF
 4

  0
ENDTAB
  0
TABLE
  2
VIEW
 70
0
  0
ENDTAB
  0
ENDSEC
  0
SECTION
  2
BLOCKS
  0
BLOCK
  8
0
  2
SKETCH015
 70
0
 10
0.0
 20
0.0
 30
0.0
  3
SKETCH015
  0
POLYLINE
  8
0
 62
7
 70
1
 66
1
 10
0.0
 20
0.0
 30
0.0
  0
VERTEX
  8
0
 10
62.250003782
 20
180.55
 30
0.0
 42
1.0
  0
VERTEX
  8
0
 10
62.2500013804
 20
186.65
 30
0.0
  0
VERTEX
  8
0
 10
50.0000013804
 20
186.65
 30
0.0
  0
VERTEX
  8
0
 10
50.0000013804
 20
207.6
 30
0.0
  0
VERTEX
  8
0
 10
62.2500013804
 20
207.6
 30
0.0
 42
1.0
  0
VERTEX
  8
0
 10
62.2500017124
 20
213.7
 30
0.0
  0
VERTEX
  8
0
 10
62.2500017124
 20
237.9
 30
0.0
  0
VERTEX
  8
0
 10
493.850005974
 20
237.9
 30
0.0
  0
VERTEX
  8
0
 10
493.850005974
 20
213.7
 30
0.0
 42
1.0
  0
VERTEX
  8
0
 10
493.85000138
 20
207.6
 30
0.0
  0
VERTEX
  8
0
 10
506.10000138
 20
207.6
 30
0.0
  0
VERTEX
  8
0
 10
506.10000138
 20
186.65
 30
0.0
  0
VERTEX
  8
0
 10
493.85000138
 20
186.65
 30
0.0
 42
1.0
  0
VERTEX
  8
0
 10
493.849998776
 20
180.55
 30
0.0
  0
VERTEX
  8
0
 10
493.849998776
 20
128.7
 30
0.0
 42
1.0
  0
VERTEX
  8
0
 10
493.850003159
 20
122.6
 30
0.0
  0
VERTEX
  8
0
 10
506.100003159
 20
122.6
 30
0.0
  0
VERTEX
  8
0
 10
506.100003159
 20
101.65
 30
0.0
  0
VERTEX
  8
0
 10
493.850003159
 20
101.65
 30
0.0
 42
1.0
  0
VERTEX
  8
0
 10
493.850001896
 20
95.55
 30
0.0
  0
VERTEX
  8
0
 10
493.850001896
 20
50.0
 30
0.0
  0
VERTEX
  8
0
 10
62.2499996324
 20
50.0
 30
0.0
  0
VERTEX
  8
0
 10
62.2499996324
 20
95.55
 30
0.0
 42
1.0
  0
VERTEX
  8
0
 10
62.25
 20
101.65
 30
0.0
  0
VERTEX
  8
0
 10
50.0
 20
101.65
 30
0.0
  0
VERTEX
  8
0
 10
50.0
 20
122.6
 30
0.0
  0
VERTEX
  8
0
 10
62.25
 20
122.6
 30
0.0
 42
1.0
  0
VERTEX
  8
0
 10
62.250003782
 20
128.7
 30
0.0
  0
SEQEND
  8
0
  0
POLYLINE
  8
0
 62
7
 70
1
 66
1
 10
0.0
 20
0.0
 30
0.0
  0
VERTEX
  8
0
 10
92.5499996324
 20
100.3
 30
0.0
  0
VERTEX
  8
0
 10
92.5499996324
 20
187.3
 30
0.0
 42
-0.414213562373
  0
VERTEX
  8
0
 10
112.549999632
 20
207.3
 30
0.0
  0
VERTEX
  8
0
 10
443.550005974
 20
207.3
 30
0.0
 42
-0.414213562373
  0
VERTEX
  8
0
 10
463.550005974
 20
187.3
 30
0.0
  0
VERTEX
  8
0
 10
463.550005974
 20
100.3
 30
0.0
 42
-0.414213562373
  0
VERTEX
  8
0
 10
443.550005974
 20
80.3
 30
0.0
  0
VERTEX
  8
0
 10
112.549999632
 20
80.3
 30
0.0
 42
-0.414213562373
  0
SEQEND
  8
0
  0
ENDBLK
  0
ENDSEC
  0
SECTION
  2
ENTITIES
  0
INSERT
  2
SKETCH015
  8
0
 62
7
 10
0.0
 20
0.0
 30
0.0
  0
ENDSEC
  0
EOF
