  0
SECTION
  2
HEADER
  9
$ACADVER
  1
AC1009
  9
$INSBASE
 10
0.0
 20
0.0
 30
0.0
  9
$EXTMIN
 10
0.0
 20
0.0
 30
0.0
  9
$EXTMAX
 10
0.0
 20
0.0
 30
0.0
  0
ENDSEC
  0
SECTION
  2
TABLES
  0
TABLE
  2
VPORT
 70
0
  0
ENDTAB
  0
TABLE
  2
LTYPE
 70
1
  0
LTYPE
  2
CONTINUOUS
 70
0
  3
Solid line
 72
65
 73
0
 40
0.0
  0
ENDTAB
  0
TABLE
  2
LAYER
 70
1
  0
LAYER
  2
0
 70
64
 62
7
  6
continuous
  0
ENDTAB
  0
TABLE
  2
STYLE
 70
1
  0
STYLE
  2
STANDARD
 70
0
 40
0
 41
1.0
 50
0.0
 71
0
 42
1
 3
ARIAL.TTF
 4

  0
ENDTAB
  0
TABLE
  2
VIEW
 70
0
  0
ENDTAB
  0
ENDSEC
  0
SECTION
  2
BLOCKS
  0
BLOCK
  8
renforts
  2
SKETCH
 70
0
 10
0.0
 20
0.0
 30
0.0
  3
SKETCH
  0
POLYLINE
  8
renforts
 62
7
 70
1
 66
1
 10
0.0
 20
0.0
 30
0.0
  0
VERTEX
  8
renforts
 10
772.55
 20
737.999923084
 30
0.0
  0
VERTEX
  8
renforts
 10
772.55
 20
749.999923084
 30
0.0
 42
1.0
  0
VERTEX
  8
renforts
 10
766.45
 20
749.999911624
 30
0.0
  0
VERTEX
  8
renforts
 10
742.1
 20
749.999911624
 30
0.0
  0
VERTEX
  8
renforts
 10
742.1
 20
1205.94991162
 30
0.0
  0
VERTEX
  8
renforts
 10
787.45
 20
1205.94991162
 30
0.0
 42
1.0
  0
VERTEX
  8
renforts
 10
793.55
 20
1205.9499158
 30
0.0
  0
VERTEX
  8
renforts
 10
793.55
 20
1218.0499158
 30
0.0
  0
VERTEX
  8
renforts
 10
814.55
 20
1218.0499158
 30
0.0
  0
VERTEX
  8
renforts
 10
814.55
 20
1205.9499158
 30
0.0
 42
1.0
  0
VERTEX
  8
renforts
 10
820.65
 20
1205.94992067
 30
0.0
  0
VERTEX
  8
renforts
 10
872.450000001
 20
1205.94992067
 30
0.0
 42
0.999988032431
  0
VERTEX
  8
renforts
 10
878.55
 20
1205.9500015
 30
0.0
  0
VERTEX
  8
renforts
 10
878.55
 20
1218.0500015
 30
0.0
  0
VERTEX
  8
renforts
 10
899.55
 20
1218.0500015
 30
0.0
  0
VERTEX
  8
renforts
 10
899.55
 20
1205.9500015
 30
0.0
 42
1.0
  0
VERTEX
  8
renforts
 10
905.65
 20
1205.95
 30
0.0
  0
VERTEX
  8
renforts
 10
930.0
 20
1205.95
 30
0.0
  0
VERTEX
  8
renforts
 10
930.0
 20
750.0
 30
0.0
  0
VERTEX
  8
renforts
 10
905.65
 20
750.0
 30
0.0
 42
1.0
  0
VERTEX
  8
renforts
 10
899.55
 20
749.999961758
 30
0.0
  0
VERTEX
  8
renforts
 10
899.55
 20
737.999961758
 30
0.0
  0
VERTEX
  8
renforts
 10
857.55
 20
737.999961758
 30
0.0
  0
VERTEX
  8
renforts
 10
857.55
 20
749.999961758
 30
0.0
 42
1.0
  0
VERTEX
  8
renforts
 10
851.45
 20
749.999920489
 30
0.0
  0
VERTEX
  8
renforts
 10
820.65
 20
749.999920489
 30
0.0
 42
1.0
  0
VERTEX
  8
renforts
 10
814.55
 20
749.999923084
 30
0.0
  0
VERTEX
  8
renforts
 10
814.55
 20
737.999923084
 30
0.0
  0
SEQEND
  8
renforts
  0
POLYLINE
  8
renforts
 62
7
 70
1
 66
1
 10
0.0
 20
0.0
 30
0.0
  0
VERTEX
  8
renforts
 10
879.549980836
 20
810.899911624
 30
0.0
  0
VERTEX
  8
renforts
 10
792.55000105
 20
810.899911624
 30
0.0
 42
-0.414213591935
  0
VERTEX
  8
renforts
 10
772.55
 20
830.899912593
 30
0.0
  0
VERTEX
  8
renforts
 10
772.55
 20
1125.04991027
 30
0.0
 42
-0.414213732419
  0
VERTEX
  8
renforts
 10
792.550010258
 20
1145.04991162
 30
0.0
  0
VERTEX
  8
renforts
 10
879.549990044
 20
1145.04991162
 30
0.0
 42
-0.414213693545
  0
VERTEX
  8
renforts
 10
899.55
 20
1125.04991496
 30
0.0
  0
VERTEX
  8
renforts
 10
899.55
 20
830.899917286
 30
0.0
 42
-0.414213692223
  0
SEQEND
  8
renforts
  0
ENDBLK
  0
ENDSEC
  0
SECTION
  2
ENTITIES
  0
INSERT
  2
SKETCH
  8
renforts
 62
7
 10
0.0
 20
0.0
 30
0.0
  0
ENDSEC
  0
EOF
