  0
SECTION
  2
HEADER
  9
$ACADVER
  1
AC1009
  9
$INSBASE
 10
0.0
 20
0.0
 30
0.0
  9
$EXTMIN
 10
0.0
 20
0.0
 30
0.0
  9
$EXTMAX
 10
0.0
 20
0.0
 30
0.0
  0
ENDSEC
  0
SECTION
  2
TABLES
  0
TABLE
  2
VPORT
 70
0
  0
ENDTAB
  0
TABLE
  2
LTYPE
 70
1
  0
LTYPE
  2
CONTINUOUS
 70
0
  3
Solid line
 72
65
 73
0
 40
0.0
  0
ENDTAB
  0
TABLE
  2
LAYER
 70
1
  0
LAYER
  2
0
 70
64
 62
7
  6
continuous
  0
ENDTAB
  0
TABLE
  2
STYLE
 70
1
  0
STYLE
  2
STANDARD
 70
0
 40
0
 41
1.0
 50
0.0
 71
0
 42
1
 3
ARIAL.TTF
 4

  0
ENDTAB
  0
TABLE
  2
VIEW
 70
0
  0
ENDTAB
  0
ENDSEC
  0
SECTION
  2
BLOCKS
  0
BLOCK
  8
planche1
  2
ARRAY
 70
0
 10
0.0
 20
0.0
 30
0.0
  3
ARRAY
  0
CIRCLE
  8
planche1
 62
0
 10
125.0
 20
885.0
 30
0.0
 40
15.0
  0
CIRCLE
  8
planche1
 62
0
 10
125.0
 20
775.0
 30
0.0
 40
15.0
  0
CIRCLE
  8
planche1
 62
0
 10
125.0
 20
665.0
 30
0.0
 40
15.0
  0
CIRCLE
  8
planche1
 62
0
 10
125.0
 20
555.0
 30
0.0
 40
15.0
  0
CIRCLE
  8
planche1
 62
0
 10
125.0
 20
445.0
 30
0.0
 40
15.0
  0
CIRCLE
  8
planche1
 62
0
 10
125.0
 20
335.0
 30
0.0
 40
15.0
  0
CIRCLE
  8
planche1
 62
0
 10
125.0
 20
225.0
 30
0.0
 40
15.0
  0
CIRCLE
  8
planche1
 62
0
 10
125.0
 20
115.0
 30
0.0
 40
15.0
  0
CIRCLE
  8
planche1
 62
0
 10
225.0
 20
885.0
 30
0.0
 40
15.0
  0
CIRCLE
  8
planche1
 62
0
 10
225.0
 20
775.0
 30
0.0
 40
15.0
  0
CIRCLE
  8
planche1
 62
0
 10
225.0
 20
665.0
 30
0.0
 40
15.0
  0
CIRCLE
  8
planche1
 62
0
 10
225.0
 20
555.0
 30
0.0
 40
15.0
  0
CIRCLE
  8
planche1
 62
0
 10
225.0
 20
445.0
 30
0.0
 40
15.0
  0
CIRCLE
  8
planche1
 62
0
 10
225.0
 20
335.0
 30
0.0
 40
15.0
  0
CIRCLE
  8
planche1
 62
0
 10
225.0
 20
225.0
 30
0.0
 40
15.0
  0
CIRCLE
  8
planche1
 62
0
 10
225.0
 20
115.0
 30
0.0
 40
15.0
  0
CIRCLE
  8
planche1
 62
0
 10
325.0
 20
885.0
 30
0.0
 40
15.0
  0
CIRCLE
  8
planche1
 62
0
 10
325.0
 20
775.0
 30
0.0
 40
15.0
  0
CIRCLE
  8
planche1
 62
0
 10
325.0
 20
665.0
 30
0.0
 40
15.0
  0
CIRCLE
  8
planche1
 62
0
 10
325.0
 20
555.0
 30
0.0
 40
15.0
  0
CIRCLE
  8
planche1
 62
0
 10
325.0
 20
445.0
 30
0.0
 40
15.0
  0
CIRCLE
  8
planche1
 62
0
 10
325.0
 20
335.0
 30
0.0
 40
15.0
  0
CIRCLE
  8
planche1
 62
0
 10
325.0
 20
225.0
 30
0.0
 40
15.0
  0
CIRCLE
  8
planche1
 62
0
 10
325.0
 20
115.0
 30
0.0
 40
15.0
  0
CIRCLE
  8
planche1
 62
0
 10
425.0
 20
885.0
 30
0.0
 40
15.0
  0
CIRCLE
  8
planche1
 62
0
 10
425.0
 20
775.0
 30
0.0
 40
15.0
  0
CIRCLE
  8
planche1
 62
0
 10
425.0
 20
665.0
 30
0.0
 40
15.0
  0
CIRCLE
  8
planche1
 62
0
 10
425.0
 20
555.0
 30
0.0
 40
15.0
  0
CIRCLE
  8
planche1
 62
0
 10
425.0
 20
445.0
 30
0.0
 40
15.0
  0
CIRCLE
  8
planche1
 62
0
 10
425.0
 20
335.0
 30
0.0
 40
15.0
  0
CIRCLE
  8
planche1
 62
0
 10
425.0
 20
225.0
 30
0.0
 40
15.0
  0
CIRCLE
  8
planche1
 62
0
 10
425.0
 20
115.0
 30
0.0
 40
15.0
  0
CIRCLE
  8
planche1
 62
0
 10
525.0
 20
885.0
 30
0.0
 40
15.0
  0
CIRCLE
  8
planche1
 62
0
 10
525.0
 20
775.0
 30
0.0
 40
15.0
  0
CIRCLE
  8
planche1
 62
0
 10
525.0
 20
665.0
 30
0.0
 40
15.0
  0
CIRCLE
  8
planche1
 62
0
 10
525.0
 20
555.0
 30
0.0
 40
15.0
  0
CIRCLE
  8
planche1
 62
0
 10
525.0
 20
445.0
 30
0.0
 40
15.0
  0
CIRCLE
  8
planche1
 62
0
 10
525.0
 20
335.0
 30
0.0
 40
15.0
  0
CIRCLE
  8
planche1
 62
0
 10
525.0
 20
225.0
 30
0.0
 40
15.0
  0
CIRCLE
  8
planche1
 62
0
 10
525.0
 20
115.0
 30
0.0
 40
15.0
  0
CIRCLE
  8
planche1
 62
0
 10
625.0
 20
885.0
 30
0.0
 40
15.0
  0
CIRCLE
  8
planche1
 62
0
 10
625.0
 20
775.0
 30
0.0
 40
15.0
  0
CIRCLE
  8
planche1
 62
0
 10
625.0
 20
665.0
 30
0.0
 40
15.0
  0
CIRCLE
  8
planche1
 62
0
 10
625.0
 20
555.0
 30
0.0
 40
15.0
  0
CIRCLE
  8
planche1
 62
0
 10
625.0
 20
445.0
 30
0.0
 40
15.0
  0
CIRCLE
  8
planche1
 62
0
 10
625.0
 20
335.0
 30
0.0
 40
15.0
  0
CIRCLE
  8
planche1
 62
0
 10
625.0
 20
225.0
 30
0.0
 40
15.0
  0
CIRCLE
  8
planche1
 62
0
 10
625.0
 20
115.0
 30
0.0
 40
15.0
  0
ENDBLK
  0
ENDSEC
  0
SECTION
  2
ENTITIES
  0
POLYLINE
  8
planche1
 62
0
 70
1
 66
1
 10
0.0
 20
0.0
 30
0.0
  0
VERTEX
  8
planche1
 10
50.0
 20
50.0
 30
0.0
  0
VERTEX
  8
planche1
 10
700.0
 20
50.0
 30
0.0
  0
VERTEX
  8
planche1
 10
700.0
 20
950.0
 30
0.0
  0
VERTEX
  8
planche1
 10
50.0
 20
950.0
 30
0.0
  0
SEQEND
  8
planche1
  0
INSERT
  2
ARRAY
  8
planche1
 62
0
 10
0.0
 20
0.0
 30
0.0
  0
POLYLINE
  8
planche1
 62
0
 70
1
 66
1
 10
0.0
 20
0.0
 30
0.0
  0
VERTEX
  8
planche1
 10
37.9
 20
37.9
 30
0.0
  0
VERTEX
  8
planche1
 10
712.1
 20
37.9
 30
0.0
  0
VERTEX
  8
planche1
 10
712.1
 20
962.1
 30
0.0
  0
VERTEX
  8
planche1
 10
37.9
 20
962.1
 30
0.0
  0
SEQEND
  8
planche1
  0
POLYLINE
  8
planche1
 62
0
 70
1
 66
1
 10
0.0
 20
0.0
 30
0.0
  0
VERTEX
  8
planche1
 10
59.1
 20
503.05
 30
0.0
  0
VERTEX
  8
planche1
 10
690.9
 20
503.05
 30
0.0
  0
VERTEX
  8
planche1
 10
690.9
 20
940.9
 30
0.0
  0
VERTEX
  8
planche1
 10
59.1
 20
940.9
 30
0.0
  0
SEQEND
  8
planche1
  0
POLYLINE
  8
planche1
 62
0
 70
1
 66
1
 10
0.0
 20
0.0
 30
0.0
  0
VERTEX
  8
planche1
 10
59.1
 20
59.1
 30
0.0
  0
VERTEX
  8
planche1
 10
690.9
 20
59.1
 30
0.0
  0
VERTEX
  8
planche1
 10
690.9
 20
496.95
 30
0.0
  0
VERTEX
  8
planche1
 10
59.1
 20
496.95
 30
0.0
  0
SEQEND
  8
planche1
  0
ENDSEC
  0
EOF
