0
SECTION
2
HEADER
9
$INSUNITS
70
4
9
$ACADVER
1
AC1014
9
$HANDSEED
5
FFFF
0
ENDSEC
0
SECTION
2
TABLES
0
TABLE
2
VPORT
5
8
100
AcDbSymbolTable
0
ENDTAB
0
TABLE
2
LTYPE
5
5
100
AcDbSymbolTable
0
LTYPE
5
14
100
AcDbSymbolTableRecord
100
AcDbLinetypeTableRecord
2
BYBLOCK
70
0
0
LTYPE
5
15
100
AcDbSymbolTableRecord
100
AcDbLinetypeTableRecord
2
BYLAYER
70
0
0
ENDTAB
0
TABLE
2
LAYER
5
2
100
AcDbSymbolTable
70
2
0
LAYER
5
50
100
AcDbSymbolTableRecord
100
AcDbLayerTableRecord
2
0
70
0
6
CONTINUOUS
0
ENDTAB
0
TABLE
2
STYLE
5
3
100
AcDbSymbolTable
70
1
0
STYLE
5
11
100
AcDbSymbolTableRecord
100
AcDbTextStyleTableRecord
2
STANDARD
70
0
0
ENDTAB
0
TABLE
2
VIEW
5
6
100
AcDbSymbolTable
70
0
0
ENDTAB
0
TABLE
2
UCS
5
7
100
AcDbSymbolTable
70
0
0
ENDTAB
0
TABLE
2
APPID
5
9
100
AcDbSymbolTable
70
2
0
APPID
5
12
100
AcDbSymbolTableRecord
100
AcDbRegAppTableRecord
2
ACAD
70
0
0
ENDTAB
0
TABLE
2
DIMSTYLE
5
A
100
AcDbSymbolTable
70
1
0
ENDTAB
0
TABLE
2
BLOCK_RECORD
5
1
100
AcDbSymbolTable
70
1
0
BLOCK_RECORD
5
1F
100
AcDbSymbolTableRecord
100
AcDbBlockTableRecord
2
*MODEL_SPACE
0
BLOCK_RECORD
5
1B
100
AcDbSymbolTableRecord
100
AcDbBlockTableRecord
2
*PAPER_SPACE
0
ENDTAB
0
ENDSEC
0
SECTION
2
BLOCKS
0
BLOCK
5
20
100
AcDbEntity
100
AcDbBlockBegin
2
*MODEL_SPACE
0
ENDBLK
5
21
100
AcDbEntity
100
AcDbBlockEnd
0
BLOCK
5
1C
100
AcDbEntity
100
AcDbBlockBegin
2
*PAPER_SPACE
0
ENDBLK
5
1D
100
AcDbEntity
100
AcDbBlockEnd
0
ENDSEC
0
SECTION
2
ENTITIES
0
ARC
5
100
100
AcDbEntity
8
0
100
AcDbCircle
10
823.36275784324539
20
-384.62514120231367
30
0
40
49.999999995605833
100
AcDbArc
50
-89.999544772918071
51
8.2031324703750084
0
LINE
5
101
100
AcDbEntity
8
0
100
AcDbLine
10
669.01365050861841
20
5.9497830872683464
30
0
11
669.01365048923731
21
-434.6251411911278
31
0
0
ARC
5
102
100
AcDbEntity
8
0
100
AcDbCircle
10
777.27191441568038
20
-344.62590820950317
30
0
40
39.999999999845777
100
AcDbArc
50
-90.354821415849713
51
4.4029305301010027
0
LINE
5
103
100
AcDbEntity
8
0
100
AcDbLine
10
872.85117942042905
20
-377.49098887989135
30
0
11
817.95263062905917
21
3.3310631001249273
31
0
0
LINE
5
104
100
AcDbEntity
8
0
100
AcDbLine
10
465.58134157452793
20
-377.55937528921743
30
0
11
519.95263062905917
21
3.3310631130325072
31
0
0
LINE
5
105
100
AcDbEntity
8
0
100
AcDbLine
10
817.15386749328661
20
-341.5551072222558
30
0
11
780.77719783745408
21
-89.216233289874637
31
0
0
LINE
5
106
100
AcDbEntity
8
0
100
AcDbLine
10
561.00309706239625
20
-384.62514118637444
30
0
11
777.02420392047759
21
-384.62514119587718
31
0
0
LINE
5
107
100
AcDbEntity
8
0
100
AcDbLine
10
709.01364451345034
20
15.331063104715694
30
0
11
709.01364451345034
21
3.3310631047156924
31
0
0
ARC
5
108
100
AcDbEntity
8
0
100
AcDbCircle
10
731.33574550299682
20
-96.668936895854657
30
0
40
49.999999999789949
100
AcDbArc
50
8.5721126433224146
51
89.999999997479449
0
ARC
5
109
100
AcDbEntity
8
0
100
AcDbCircle
10
561.0030970641559
20
-344.62514118636199
30
0
40
40.000000000012491
100
AcDbArc
50
177.46198883558225
51
269.99999999747951
0
ARC
5
110
100
AcDbEntity
8
0
100
AcDbCircle
10
515.07957338455935
20
-384.62514118431511
30
0
40
50.0000000000393
100
AcDbArc
50
171.87603483027181
51
269.99999999747877
0
LINE
5
111
100
AcDbEntity
8
0
100
AcDbLine
10
519.95263062905917
20
3.3310631130325072
30
0
11
622.80739655143134
21
3.331063108507915
31
0
0
ARC
5
112
100
AcDbEntity
8
0
100
AcDbCircle
10
712.11364451345037
20
3.3310631047156924
30
0
40
3.1000000000000227
100
AcDbArc
50
180
51
360
0
ARC
5
113
100
AcDbEntity
8
0
100
AcDbCircle
10
625.90739655142863
20
3.3310631083715463
30
0
40
3.0999999999973227
100
AcDbArc
50
-180
51
0.8095146512729372
0
LINE
5
114
100
AcDbEntity
8
0
100
AcDbLine
10
521.04233451383607
20
-342.85385453594142
30
0
11
557.19332369512085
21
-89.603170995615912
31
0
0
LINE
5
115
100
AcDbEntity
8
0
100
AcDbLine
10
606.69155550741084
20
-46.668936890581641
30
0
11
731.33574550519643
21
-46.668936896064743
31
0
0
LINE
5
116
100
AcDbEntity
8
0
100
AcDbLine
10
715.21364451345039
20
3.3310631046444179
30
0
11
817.95263062905917
21
3.3310631001249273
31
0
0
LINE
5
117
100
AcDbEntity
8
0
100
AcDbLine
10
629.00708714549398
20
3.3748606088187101
30
0
11
629.0136565013504
21
15.374858810633725
31
0
0
ARC
5
118
100
AcDbEntity
8
0
100
AcDbCircle
10
606.69155550521134
20
-96.668936890673734
30
0
40
50.000000000092093
100
AcDbArc
50
89.999999997479563
51
171.8760348303266
0
LINE
5
119
100
AcDbEntity
8
0
100
AcDbLine
10
675.2136505074003
20
15.349566789878516
30
0
11
675.21365050740326
21
-21.668936899875071
31
0
0
LINE
5
120
100
AcDbEntity
8
0
100
AcDbLine
10
662.81365050740328
20
-21.668936899329591
30
0
11
662.81365050740033
21
15.356355125480952
31
0
0
LINE
5
121
100
AcDbEntity
8
0
100
AcDbLine
10
629.0136565013504
20
15.374858810633725
30
0
11
662.81365050740033
21
15.356355125480952
31
0
0
LINE
5
122
100
AcDbEntity
8
0
100
AcDbLine
10
675.2136505074003
20
15.349566789878516
30
0
11
709.01364451345034
21
15.331063104715694
31
0
0
LINE
5
123
100
AcDbEntity
8
0
100
AcDbLine
10
665.81082967197847
20
-24.668936899593668
30
0
11
672.21365050727127
21
-24.668936899875309
31
0
0
ARC
5
124
100
AcDbEntity
8
0
100
AcDbCircle
10
672.21365050740337
20
-21.668936899875312
30
0
40
2.9999999999999982
100
AcDbArc
50
-90.000000002523024
51
0
0
ARC
5
125
100
AcDbEntity
8
0
100
AcDbCircle
10
665.81365050740305
20
-21.668938225779403
30
0
40
2.9999999999999809
100
AcDbArc
50
179.9999746729807
51
269.9461260038849
0
LINE
5
126
100
AcDbEntity
8
0
100
AcDbLine
10
675.21365049033705
20
-434.62514119009927
30
0
11
675.21365049033716
21
-409.6251411913986
31
0
0
LINE
5
127
100
AcDbEntity
8
0
100
AcDbLine
10
662.8136504903373
20
-409.62514119085313
30
0
11
662.8136504903373
21
-434.62514119085489
31
0
0
LINE
5
128
100
AcDbEntity
8
0
100
AcDbLine
10
665.85167162897403
20
-406.62514119111876
30
0
11
672.21365049046926
21
-406.62514119139865
31
0
0
ARC
5
129
100
AcDbEntity
8
0
100
AcDbCircle
10
665.81365048066164
20
-409.62490024682324
30
0
40
3.0000000000000124
100
AcDbArc
50
89.273830115660914
51
180.00460169200696
0
ARC
5
130
100
AcDbEntity
8
0
100
AcDbCircle
10
672.21365049033716
20
-409.6251411913986
30
0
40
2.9999999999999716
100
AcDbArc
50
0
51
89.999999997477005
0
LINE
5
131
100
AcDbEntity
8
0
100
AcDbLine
10
515.07957338235917
20
-434.62514118435433
30
0
11
662.8136504903373
21
-434.62514119085489
31
0
0
LINE
5
132
100
AcDbEntity
8
0
100
AcDbLine
10
675.21365049033705
20
-434.62514119009927
30
0
11
823.36315510381655
21
-434.62514119634136
31
0
0
ENDSEC
0
SECTION
2
OBJECTS
0
DICTIONARY
5
C
100
AcDbDictionary
3
ACAD_GROUP
350
D
3
ACAD_MLINESTYLE
350
17
0
DICTIONARY
5
D
100
AcDbDictionary
0
DICTIONARY
5
1A
330
C
100
AcDbDictionary
0
DICTIONARY
5
17
100
AcDbDictionary
0
ENDSEC
0
EOF
